<mxfile host="app.diagrams.net" modified="2021-06-17T23:47:14.296Z" agent="5.0 (Windows NT 10.0; Win64; x64) AppleWebKit/537.36 (KHTML, like Gecko) Chrome/91.0.4472.106 Safari/537.36" etag="Ex1jAIiRlkitT69xzDyZ" version="14.8.0" type="github">
  <diagram name="Page-1" id="c9db0220-8083-56f3-ca83-edcdcd058819">
    <mxGraphModel dx="1296" dy="691" grid="1" gridSize="10" guides="1" tooltips="1" connect="1" arrows="1" fold="1" page="1" pageScale="1.5" pageWidth="826" pageHeight="1169" background="#ffffff" math="0" shadow="0">
      <root>
        <mxCell id="0" style=";html=1;" />
        <mxCell id="1" style=";html=1;" parent="0" />
        <mxCell id="oHTOzMjrjBwwR5K5Gdxc-1" value="" style="rounded=0;whiteSpace=wrap;html=1;strokeWidth=2;" vertex="1" parent="1">
          <mxGeometry x="40" y="40" width="1157" height="830" as="geometry" />
        </mxCell>
        <UserObject label="" link="https://github.com/YamesYamerson/CSCI3130DesignDocs.git" id="oHTOzMjrjBwwR5K5Gdxc-2">
          <mxCell style="rounded=0;whiteSpace=wrap;html=1;strokeColor=#36393d;fillColor=#eeeeee;strokeWidth=2;" vertex="1" parent="1">
            <mxGeometry x="40" y="40" width="1157" height="150" as="geometry" />
          </mxCell>
        </UserObject>
        <mxCell id="oHTOzMjrjBwwR5K5Gdxc-10" value="" style="group" vertex="1" connectable="0" parent="1">
          <mxGeometry x="410" y="200" width="533.59" height="666.31" as="geometry" />
        </mxCell>
        <mxCell id="oHTOzMjrjBwwR5K5Gdxc-11" value="" style="shape=image;verticalLabelPosition=bottom;labelBackgroundColor=#ffffff;verticalAlign=top;aspect=fixed;imageAspect=0;image=data:image/png,iVBORw0KGgoAAAANSUhEUgAAAgAAAAIACAYAAAD0eNT6AAAABmJLR0QA/wD/AP+gvaeTAAAZnUlEQVR42u3dXayl1X0e8GedwWMsG9Qp1GKkjOR4ZPGhhC8rrkBBcTFRc1FfcFFHgFxfEENRk5tKbSLfh9jORaS4TYCWixgDMpXlC/vGsqFYRKAmsQ00ghlFOJbG0iAXeypGyAR7vHLx7jmeM7PPnL3P/nrfd/1+0ggPPrPP3uvdh/XMev5771JrDQDQli1LAADtEQAAoEECAAA0SAAAgAYJAADQIAEAABokAABAgwQAAGiQAAAADRIAAKBBAgAANEgAAIAGCQAA0CABAAAaJAAAQIMEAABokAAAAA0SAACgQQIAADRIAACABgkAANAgAQAAGiQAAECDBAAAaJAAAAANEgAAoEECAAA0SAAAgAYJAADQIAEAABokAABAgwQAAGiQAAAADRIAAKBBAgAANEgAAIAGCQAA0CABAAAaJAAAQIMEAABokAAAAA0SAACgQQIAADRIAACABgkAANAgAQAAGiQAAECDBAAAaJAAAAANEgAAoEECAAA0SAAAgAYJAADQIAEAABokAABAgwQAAGiQAAAADRIAAKBBAgAANEgAAIAGCQAA0CABAAAaJAAAQIMusQTLU0q5MsnVSa5J8oEkl53z6/Lzfn/210ErBzTqnSSnp/x687zf/yDJsSTHa61vWLblKLVWqzDPgpVySZIPptvkr8kvN/yrk1xhhQBW6sdJjmcSCCb/PJbk+7XWn1ue2QkAey1QKVtJbkzysSS3J7ktyXutDECvvJXkuSTPJHk6yYu11l9Ylt0JANMWpZTr0m32tyf5aJJDVgVgUE4leTZdIHim1vqKJdlJAEhSSjmQ5I4k9yT57SRXeWoAjMrrSb6Z5PEk36q1nml9QZoOAKWUG5J8MsndSQ77+QBowskkTyR5rNb6UquL0FwAKKUcTvc3/U8mud7PAUDTXk7yWJLHa60nW3rgTQSAySDfnUnuSzfMd8BzHoBznEk3PPhIkq+2MEA46gAw6fbvSvKZJNd6fgMwg1eTPJjkyTHPCowyAJRS3pXkU0n+KMlRz2UA9uG1JJ9N8le11p+N7cGNKgCUUi5Ncm+SP0xyxHMXgCU4keRzSR6ttb49lgc1igAw+Rv/7yf5r/ESPgBW4/Ukn0/y38ZwIjD4AFBK+TdJ/nt0/ACsx6tJ/lOt9X8P+UEM9tMASylXlVK+lO5dnmz+AKzLtUmeKaV8qZQy2FPnwQWAUsqBUsofpPvwh3s8DwHYkHuSHCul/MHkVWeDMqgKoJTyr5P8ZZKbPO8A6JHvJXmg1vp/hnKHB3ECUEp5TynlL5K8EJs/AP1zU5IXSil/UUp5zxDucO9PAEopVyf5X0l+3fMLgAH4v0n+fa31eJ/vZK9PAEop9yT5u9j8ARiOX0/yd5M9rLd6GQBKKZeWUh5J8qUk7/NcAmBg3pfkS6WURyZvUtc7vasAJkf+T8Un9QEwDi8n+UTfKoFenQCUUu5Od+Rv8wdgLK5PVwnc3ac71ZsAUEr54ySPx5E/AOPzviSPT/a6Xth4BTB584SH032IDwCM3aNJ7t/0Rw1vNABMXiv55SQf93wAoCFfS/K7tdafbuoObCwAlFIOJfl6kls9DwBo0PNJ/l2t9dQmvvlGAkAp5VeSfCPJda4/AA17Jcm/rbX+cN3feO1DgKWU69KlHps/AK27Lsnzk71xrdZ6AjB5gM8l+ZeuOQBs+0mS22qtr6zrG64tAEyO/Z9PcsR1BoALnEhy67rqgLVUAJOBv2/E5g8AuzmS5BuTPXPlVh4AJi/1+3p0/gCwl+uSfH0dHym80gAweZOfL8dL/QBgVrcm+fJkD12ZVZ8APBxv8gMA8/p4uj10ZVYWACbvd+ztfQFgf+5d5WcHrORVAKWUu5I84doBwMLurrU+uewbXXoAKKV8KMl3klzmmgHAwk4n+XCt9R+WeaNLrQBKKZcmeSo2fwBYlsuSPDXZY5dm2TMAf5bkRtcKAJbqxnR77NIsrQIopXwi3Uv+AIDV+N1a61PLuKGlBIBSytEk301yuWsDACvzZpKba62vLXpDC1cApZR3p+v9bf4AsFqXp5sHePeiN7SMGYA/SXKzawIAa3Fzur13IQtVAKWUm5L8bZID/VkXABi9M0l+o9b6vf3ewL5PAEopW0keis0fANbtQJKHJnvxvixSAdyX5COuAQBsxEfS7cX7sq8KoJTy/iTHkhzq77oAwOidSnJNrfVH8/7B/Z4A/Gls/gCwaYfS7clzm/sEoJTyW0meteYA0BsfrbV+e54/MFcAKKW8K8lLSa611gDQG68muaHW+rNZ/8C8FcDvx+YPAH1zbbo9emYznwBMPoXoH5NcZZ0BoHdeT/Krtda3Z/nieU4A7o3NHwD66qp0e/VMZjoBmHT/ryU5Yn0BoLdOJDk6yyzArCcAn4rNHwD67ki6PXtPe54AlFIOJDme5Kh1BYDeey3J1bXWMxf7ollOAO6KzR8AhuJour37oi56AjD5kIG/j5f+AcCQvJrk12qtv9jtC/Y6AbgzNn8AGJpr0+3hu9orANw3nrUAgKZcdA/ftQIopRxO93KCA9YQAAbnTJIjtdaT0/7Pi50A3BObPwAM1YF0e/lUFwsAn7R2ADBou+7lUwNAKeWGJNdbNwAYtOsne/oFdjsB8Ld/WnF/kncsAzBiU/f0C4YAJ+/8dyLJYWvG2NVaSynlliRf8ZwHRupkumHAHe8MOO0E4I74DyENqbW+kOTDSV6wGsAIHU63t+8wLQDcY61ozeRlMh9N8ojVAEbogr19WgVwMt1nCsPo1VrLBT8UpdyX5AtJDlohYCRer7XuON3fcQJQSrkuNn8aV2t9JN1pwEmrAYzEVZM9ftv5FcDt1gjMBQCjtGOPFwBgF+YCgJHZscdvzwBMPvr3jSSHrBGtmDYDMI25AGAETiW58uxHBJ97AnBjbP4wlbkAYAQOpdvrk+wMAB+zNrA7cwHACGzv9ecGAP0/7MFcADBw23t9qbWmlHJJkv+f5L3WhpbMOgMwjbkAYIDeSvIvaq0/P3sC8MHY/GEu5gKAAXpvuj1/uwK4xprA/MwFAAN0TSIAwMLMBQADsyMAXG09YP9qre/UWu9Pcn+Sd6wI0GNXJ04AYKnMBQAD4AQAVsFcANBz3QlAKeXKJFdYD1gecwFAj11RSrlyK/72DythLgDosau3ov+HlTIXAPTQNVtJPmAdYLXMBQA984GtJJdZB1g9cwFAj1wmAMAamQsAekIAgE0wFwBs2GVbSS63DrB+5gKADbrcCQBskLkAYENUALBp5gKADRAAoC/MBQBrJABAn5gLANZEAIC+MRcArMFlJUm1DrSq1lr6fP9KKfcl+UKSg64WsEwCAE3rewBIklLKLUm+kuSwKwYsy5YlgH4zFwCsggAAA2AuAFg2AQAGwvsFAMtkBoCmDWEGYOoPrrkAYEFOAGCAzAUAixIAYKDMBQCLEABgwMwFAPtlBoCmDXUGYOoPs7kAYA5OAGAkzAUA8xAAYETMBQCzEgBgZMwFALMwA0DTxjQDMPUH3FwAsAsnADBi5gKA3QgAMHLmAoBpBABogLkA4HxmAGja2GcApv7QmwsA4gQAmmMuAEgEAGiSuQBAAIBGmQuAtpkBoGktzgBM/Q+BuQBojhMAwFwANEgAAJKYC4DWCADANnMB0A4zADTNDMDuzAXAuDkBAKYyFwDjJgAAuzIXAOMlAAAXZS4AxskMAE0zAzAfcwEwHk4AgJmZC4DxEACAuZgLgHEQAIC5mQuA4TMDQNPMACzOXAAMkxMAYCHmAmCYBABgYeYCYHgEAGApzAXAsJgBoGlmAFbDXAD0nxMAYOnMBUD/CQDASpgLgH4TAICVMRcA/WUGgKaZAVgfcwHQL04AgLUwFwD9IgAAa2MuAPpDAADWylwA9IMZAJpmBmCzzAXA5jgBADbGXABsjgAAbJS5ANgMAQDYOHMBsH5mAGiaGYD+MRcA6+EEAOgVcwGwHgIA0DvmAmD1BACgl8wFwGqZAaBpZgCGwVwALJ8TAKD3zAXA8gkAwCCYC4DlEgCAwTAXAMtjBoCmmQEYLnMBsBgnAMAgmQuAxQgAwGCZC4D9EwCAQTMXAPtjBoCmmQEYF3MBMDsnAMBomAuA2QkAwKiYC4DZCADA6JgLgL2ZAaBpZgDGz1wATOcEABg1cwEwnQAAjJ65ALiQAAA0wVwA7GQGgKaZAWiTuQBwAgA0yFwACABAo8wF0DoBAGiWuQBaZgaAppkB4CxzAbTGCQBAzAXQHgEAYMJcAC0RAADOYS6AVpgBoGlmALgYcwGMmRMAgF2YC2DMBACAizAXwFgJAAB7MBfAGJkBoGlmAJiXuQDGwgkAwBzMBTAWAgDAnMwFMAYCAMA+mAtg6MwA0DQzACyDuQCGyAkAwILMBTBEAgDAEpgLYGgEAIAlMRfAkJgBoGlmAFgVcwH0nRMAgBUwF0DfCQAAK2IugD4TAABWyFwAfWUGgKaZAWCdzAXQJ04AANbEXAB9IgAArJG5APpCAACABl1iCQDWp5RyON0cwC1Wg01yAgCwJpMhwO/E5k8PCAAAa1BKuS/Js/EKAHpCBQCwQqWUg0m+kOQ+q0GfCAAAK6Lvp89UAAAroO+n7wQAgCXT9zMEKgCAJdH3MyQCAMAS6PsZGhUAwIL0/QyRAACwAH0/Q6UCANgHfT9DJwAAzEnfzxioAADmoO9nLAQAgBnp+xkTFQDAHvT9jJEAAHAR+n7GSgUAsAt9P2MmAABMoe9n7FQAAOfQ99MKAQBgQt9PS1QAANH30x4BAGievp8WqQCAZun7aZkAADRJ30/rVABAc/T9IAAAjdH3Q0cFADRB3w87CQDA6On74UIqAGDU9P0wnQAAjJa+H3anAgBGR98PexMAgFHR98NsVADAaOj7YXYCADAK+n6YjwoAGDR9P+yPAAAMlr4f9k8FAAySvh8WIwAAg6Pvh8WpAIDB0PfD8ggAwCDo+2G5VABA7+n7YfkEAKDX9P2wGioAoJf0/bBaAgDQO/p+WD0VANAr+n5YDwEA6A19P6yPCgDYOH0/rJ8AAGyUvh82QwUAbIy+HzZHAAA2Qt8Pm6UCANZK3w/9IAAAa6Pvh/5QAQBroe+HfhEAgJXT90P/qACAldH3Q38JAMBK6Puh31QAwNLp+6H/BABgqfT9MAwqAGAp9P0wLAIAsDB9PwyPCgBYiL4fhkkAAPZN3w/DpQIA5qbvh+ETAIC56PthHFQAwMz0/TAeAgAwE30/jIsKALgofT+MkwAA7ErfD+OlAgCm0vfDuAkAwAX0/TB+KgBgm74f2iEAAEn0/dAaFQCg74cGCQDQOH0/tEkFAI3S90PbBABokL4fUAFAY/T9QCIAQFP0/cBZKgBogL4fOJ8AACOn7wemUQHAiOn7gd0IADBS+n7gYlQAMDL6fmAWAgCMiL4fmJUKAEZC3w/MQwCAEdD3A/NSAcCA6fuB/RIAYKD0/cAiVAAwQPp+YFECAAyMvh9YBhUADIS+H1gmAQAGQN8PLJsKAHpO3w+sggAAPabvB1ZlK8k7lgH6pZRysJTycJKHkxy0IsCSvXNJktNJrrAW0A/6fmANTm+lCwBAD+j7gTURAKAv9P3AGp0+WwEAG+L1/cAGCACwSfp+YENObyV50zrA+un7gQ160wwAbIC+H9gwFQCsk74f6AkBANZF3w/0yOmtJD+wDrBa+n6gZ36wleSYdYDV0fcDPXSsJLkyyf+zFrSo1lpWddv6fqDH/lWptaaU8kZ8HgANWlUA0PcDPfbjWuuVZz8O+Lj1gOXQ9wM9dzzpPg44MQcAS6HvBwbgWJJcMvmNEwBYgL4fGJDjyS8DgBMA2Cd9PzAwxxIVACxE3w8M0I4A8P0kb1kTmJ2+Hxigt9Lt+V0AqLX+PMlz1gX2Vko5WEp5OMnDSQ5aEWBAnpvs+dsnAEnyjHWBi5v0/c/GsB8wTNt7/bkB4GnrArvT9wMjsL3Xl1pr9z9K2UryRpJD1odWzPpOgJO+/wtx5A8M16kkV9Zaf5GccwIw+RfPWh/4JX0/MCLPnt38k50VQGIOALbp+4GR2bHHCwAwhb4fGKEde/z2DMD2vyjlZJKrrBMtmDYDoO8HRuj1WuuO9yzZmvJF37ROtEjfD4zYBXv7tADwuHWiNfp+YOQu2NunVQAHkpyItzelAbXWMun7v+I5D4zUySRHaq1nzv2XF5wATL7gCetFC7yfP9CAJ87f/JMpJwBJUkq5IcmL1gwABu/GWutL5//LaTMAmXzhy9YMAAbt5Wmbf7JLAJh4zLoBwKDtupdPrQCS7anoE0kOWD8AGJwz6Yb/Tk77P3c9AZj8AZ8QCADD9PRum39y8QogSR6xfgAwSBfdw3etAJLtjwj++yTXWkcAGIxXk/zauZ/+d76LngBM/uCD1hEABuXBi23+yR4nAMn2OwMeT3LUegJA772W5Oppb/5zrr1mAM6+M+BnrScADMJn99r8kxlOAJKklPKudIniiHUFgN46keRorfVne33h1iy3Nrmhz1lXAOi1z82y+SczngAkSSnl0iT/mOQq6wsAvfN6kl+ttb49yxdvzXqrkxv8vPUFgF76/KybfzLHCUCyPQvwUrwvAAD0yatJbpj1+D+Z4wQg2Z4FeMA6A0CvPDDP5p/MGQCSpNb67SRftNYA0AtfnOzNc5mrAtj+Q6W8P8mxJIesOwBszKkk19RafzTvH9zaz3ebfKPPWHcA2KjP7GfzT/Z5ApBsf1DQC0k+Yv0BYO3+Jskte73n/272HQCSpJRyU5K/TXLAdQCAtTmT5Ddqrd/b7w1sLfLdJ9/4z10HAFirP19k808WPAFIklLKu5M8n+Rm1wMAVu67SW6ttf7TIjeycABIklLK0ckdutx1AYCVeTPJzbXW1xa9oa1l3JvJHfm06wIAK/XpZWz+yZICQJLUWp9K8pBrAwAr8dBkr12KpVQA2zfWfWLgC0ludJ0AYGleTPeSv7eXdYNLDQBJUkr5UJLvJLnM9QKAhZ1O8uFa6z8s80a3ln0vJ3fwftcLAJbi/mVv/skKAkCS1FqfTPKgawYAC3lwsqcu3dIrgB03Xsr/THKv6wcAc3u01vp7q7rxVQeAA0m+muTjriMAzOxrSe6stZ5Z1TdYaQBIklLKe5J8K8mtricA7On5JHfUWn+6ym+y8gCQJKWUQ0n+Osl1risA7OqVJL9Zaz216m+0lgCQJKWUX0mXao64vgBwgRPp3uP/h+v4ZlvrelSTB/Q7SX7iGgPADj9J8jvr2vyTNQaAJKm1vpLktnQpBwDo9sTbJnvk2myt+1FOHuCt6XoOAGjZK+mO/de+J25t4tFOjjh+M91MAAC06Pl0A38/3MQ339rUo55MON6R7rWOANCSr6V7qd+pTd2BrU0++slrHO9M8qjnAgCNeDTdm/z8dJN3YmvTq1BrPTN5q0OfHQDA2D1Ya/29Vb7D36zW9j4AM92ZUu5K8nB8lDAA43I63af6PdmXO9SrAJAkpZQPJXkqyY2eLwCMwItJPrGKj/RdxMYrgPNNFuiWJA95zgAwcA8luaVvm3/SwxOAHXeulE8k+R9JLvccAmBA3kzy6VrrU329g70OAElSSjmarhK42fMJgAH4broj/9f6fCd7VwGcb7KAtyb5syQbn5oEgF2cSbdX3dr3zT8ZwAnAjjtbyk3p+pSPeJ4B0CN/k+Q/1lq/N5Q73PsTgHNNFvaWJA8kOTWk+w7AKJ1KtyfdMqTNPxnYCcCOO17K+5P8aZL/4PkHwAZ8Mcl/qbX+aIh3frABYPsBlPJbSf4yybWeiwCswatJHqi1fnvID2JQFcA0kwtwQ5L/nOR1z0sAVuT1dHvNDUPf/JMRnADseDClXJrk3iR/mOSI5yoAS3AiyeeSPFprfXssD2pUAWD7QZXyriSfSvJHSY567gKwD68l+WySv6q1/mxsD26UAWD7wZVyIMldST4TMwIAzObVdJ9Q+2QfPrVvVUYdALYfZClbSe5Mcl+SjyU54PkNwDnOJHk6ySNJvlpr/cXYH3ATAWDHAy7lcJJ7knwyyfWe8wBNeznJY0ker7WebOmBNxcAdjz4Um5IFwTuTnLYzwFAE04meSLJY7XWl1pdhKYDwPYidLMCd6Q7GfjtJFf5+QAYldeTfDPJ40m+NeZuf1YCwLRFKeW6JLdPfn00ySGrAjAop5I8m+SZJM/UWl+xJDsJAHstUDdAeGO64cHbk9yW5L1WBqBX3kryXLoN/+kkL7YwyLcIAWDeBSvlkiQfTHLN5NfV5/zzCisEsFI/TnI8ybFz/nksyfdrrT+3PLMTAJa5mKVcmV8Ggg8kueycX5ef9/uzvw5aOaBR7yQ5PeXXm+f9/geZbPi11jcs23IIAADQoMF/GBAAMD8BAAAaJAAAQIMEAABokAAAAA0SAACgQQIAADRIAACABgkAANAgAQAAGiQAAECDBAAAaJAAAAANEgAAoEECAAA0SAAAgAYJAADQIAEAABokAABAgwQAAGiQAAAADRIAAKBBAgAANEgAAIAGCQAA0CABAAAaJAAAQIMEAABokAAAAA0SAACgQQIAADRIAACABgkAANAgAQAAGiQAAECDBAAAaJAAAAANEgAAoEECAAA0SAAAgAYJAADQIAEAABokAABAgwQAAGiQAAAADRIAAKBBAgAANEgAAIAGCQAA0CABAAAaJAAAQIMEAABokAAAAA0SAACgQQIAADRIAACABgkAANAgAQAAGiQAAECDBAAAaJAAAAANEgAAoEECAAA06J8BZpLsG0gJqJ4AAAASdEVYdEVYSUY6T3JpZW50YXRpb24AMYRY7O8AAAAASUVORK5CYII=;" vertex="1" parent="oHTOzMjrjBwwR5K5Gdxc-10">
          <mxGeometry x="34.22362768496421" y="91.26213592233009" width="378.7378640776699" height="378.7378640776699" as="geometry" />
        </mxCell>
        <mxCell id="oHTOzMjrjBwwR5K5Gdxc-12" value="" style="group" vertex="1" connectable="0" parent="oHTOzMjrjBwwR5K5Gdxc-10">
          <mxGeometry width="477.99" height="456.31067961165047" as="geometry" />
        </mxCell>
        <mxCell id="oHTOzMjrjBwwR5K5Gdxc-13" value="" style="ellipse;whiteSpace=wrap;html=1;aspect=fixed;" vertex="1" parent="oHTOzMjrjBwwR5K5Gdxc-12">
          <mxGeometry x="82.20582253711207" y="71.84378671348524" width="291.8857212614058" height="291.8857212614058" as="geometry" />
        </mxCell>
        <mxCell id="oHTOzMjrjBwwR5K5Gdxc-14" value="" style="shape=image;verticalLabelPosition=bottom;labelBackgroundColor=#ffffff;verticalAlign=top;aspect=fixed;imageAspect=0;image=data:image/png,iVBORw0KGgoAAAANSUhEUgAAAgAAAAIACAYAAAD0eNT6AAAACXBIWXMAAAsSAAALEgHS3X78AAAgAElEQVR42u3dB7RlVZ3n8V1FKKDbAAhFDiZQuwfQHgUEUdtWQIliTq0iwYDocuxpW12jiKFtBQyrEWgjYAsU2JIlOCqoqGtmHAyAEVBbJRUZildVs4/37HnnnXfvi+fee8Lnu9Z31aOqePWq3jn7/9v/vc8+IQAAAAAAAAAAAAAAAAAAAAAAAAAAAAAAAAAAAAAAAAAAAAAAAAAAAAAAAAAAAAAAAAAAAAAAAAAAAAAAAAAAAAAAAAAAAAAAAAAAAAAAAAAAAAAAAAAAAAAAAAAAAAAAAAAAAAAAAAAAAAAAAAAAAAAAAAAAAAAAAGBcLCm4tOQ6c7T8/xU/JwAAGFFBLxbwdXOX1qQgp68vfV3rlIIDAACYYca+TqGAzrdwZsV2/ehG0U2j20d3iu4a3SP67Oh+0RdED40eEn1R9GW5L8p/7tD892S/91n5/7tr/rm2zz/3RvmftXQBf891SiFBQAAAdGYmv84ci3z26xtEl0d3y4vyq6Jvi34wekr03OgV0R9Eb4j+MXp39L7og9GHomuiaxfomvxzPJh/zrvzP+OG/M+8Iv8aTsm/prflX+N++de8ef53mE84EAwAAI0u9qmgzVTMsl9/ZPRJ+cz72OhJ0RXR70RvjN4TnVhEEU+FPLl6Fou/dzF/5kT+td+Y/12yv9OJ0XdGD4s+Jfqo/N9gpn/HhXZFAAAYycw+zV77kf38ZqHXUn9N9CPR86I/ia6MrppjEZ/IZ+Sr8h8fyn9uYkABH4bpz5kofD3Fr2lijuEh+3135v8G2b/FP0ePCL2lh61mCAZLdAoAAOOc3a8zw6x+u+j+0f8ePSP6v6J3zVIY1/QppIMK+tqKZulV2O9rKgeGYnBZlf/cTJ8z6xz8NHpO9L2htzfhcaG396Afc11WAQCgsoK/SXSf6DvyYp/NaO+fZeabivzqmhf3UYSE1aXgM+hzZPsQfhE9Kw9W+4beHgOBAABQGaml348toweFXsv6qugds8zoi23xfoV+bcedaanhoVk6Bnfm34OPRl+Sd14GBYKlLmsAwKBZfr8ika3dZ4/InRC9JvR2wvcrRg8NmNW3cUY/qmCwdoZQ0O/f897o90Jvs2EWCJYPCHe6AwCg6E8rBNlja3tH3x29MHp7n0KzOi9CE4r92JcRJmboEmQbLLNHFd8T3Su6YZ9rYLYnNQAALSn6/Qb8bJb/wuhnQm+deb4FX4GuT5dgpkCQPZL42ejLQ28pp4zOAAB0YKafnWx3VPT8PrP84vr9agW/0fsJ0hMIa/p0B7Lv/VuijxUGAKA99FvTzx4lOyZ6Ueg9atZvlq/gt7dDkPYQlA9Wyp7ayJYK3tonDKQACQCoMUv7DNZZq/f1edG/L/TfuDfoWXu2ew9B+v4Xf98DeRg4OrrtHEIlAGBM9JuhPTz0doF/JfRavTMVfRv3hIHiUkHx92VPfHw1v5Ye3icMWCIAgJrM9v8m9B7XuylMP3xH0ediwsBvo5+MPr3PdagrAAAjoFz0sxfKvDH0ntFX9DmMZYLynoHsrIFsL8mWs1ybAIBF0q/Nn71Y5+ToLWF6i3/QEbvkQsPA6jD9aYLs6ZHP9ukKWB4AgEVSbvNvFH116B3/Wi76E8HufY7m8cJ+SwTfDr3Npn9Zun4tDwDAPAt/ceDcOvpP0V+F6c/qrw5a/KxPV+A30fdFdxAEAGDulFunu0RPDb2XvhTX9ge9XIesS1cgO2fic9EnF65nZwoAQJ/CXyRbU/1KmLr5ymyfTeoKFH/9vOgzZ7nmAaDThf+A6MVh+vq+tX028eTB8j6BK/NrXBAAoPDnHBimbuxbE6aurZrts8nLA6l7lX796tB7xbQgAKAzZBuhlsxQ+CcUfob2Lg+k/Svp17OzKw4r3A/2CABoZeEv7oLet0/hn1D42dEgkHUEDpjhfgGAxlGe0ewZvUThpyDQNwhcFt2ncL84UAhAIykW/r+KnhOmvnpX4acg0D8IZPfKrgPuJQBoROFfHj0xuirY3EfOFgSKmwWzQPCpMPV9A4IAgFpSXLdcP/rOMPWcfoWfnHsQKL5vILuXluX31pJgfwCAmlBe58929l9bGMBWKfzkooPAz8LURwftDwAwVoqFf6foV8P0k/sUfnLhQaB8suD5obenpt89CAAjmfWnNuSG0fdH7w9Td/aXD0QxsJMLO0yofF9lXbXj83svBI8NAhjDrH+/vDVpnZ8c/bLAz8PU8wPWNTwBGAbFU/y2in4xWOcn6xAEzoxu06c7BwCLpjizeF3o7UwuPs+v8JOjDwITYXKfzW3RN+gGABjGrH/H6EVm/WTtugGrCr+WvU3zcboBAKqa9R8dvavPrEPhJ+v3tMA90WN0AwDMl+KsYbsw9ex+m/zI5uwNyO7dHfp08wBgGsUd/q+M3hE80082uRuwMvraAfc4AEwZGDYJvV3FZv1kc0PA2lI34MvRTYUAAEWKm4SeE705WOsn29QNSE/qZPf2cwfc+wA6RnFz0PuCHf5kF54UOH7AGACgYy3/bKPfN8LUd5Mr/GQ7zw1IH38r9B7tTWOBDYJAx1r+2dvFihv9zPrJ7nQDsnv/YEsCQLdm/SFvA/bbLKTwk+0NAv3u+Q8PGCMAtIS01rc8ellwlC9pSWByo+/l0S1KYwWAhlM82Gfv6O+DjX6kEDB9SeB30b0KywH2BQANprimd0SYustfy58UBMpjQvZzRw4YQwA0hOJa3omFG13Ln+SgJYH0858eMJYAqDlpDS871e/K4GAfkvM/OOiKfAwpjikAGlD8nxi9IVjvJ7nwfQG/jD5JCADqTXGz3/PC5Ot7rfeTXMy+gLuj++Vji82BQA2Lf+KNYfqzvmb9JBfSDSieF3DUgDEHwJgo7tItHu5jsx/JqjcHfnDA2ANgxBR3534uTG7isdmPZNWbA9O48vkBYxCAERf/DaIXBef5kxz+5sC0JHBJdEMhABg9aTfuptEfhP47/Q1eJKveHFh8QuD7wWOCwFiK/7bRnwU7/UmO7wmBn0a3EQKA0RX/naM3helHeCr+JEe1JJDGnhujOwkBwPCL/1Oityr+JGsUAm6J7iYEAMMr/k8Nkwf8eMafZJ3OCrgz+jQhAKi++O8ZeidyKf4k6xoC7g29144LAUBFxf8Z0fsUf5INCAEPRJ8pBADVFP8HFX+SDQoBDwoBwOLb/mb+JJvaCdhLCADmX/yzDX/W/Ek2OQTcE91dCADmXvyfHHo7ahV/km14OuDJQgAwe/HPDvm5VfEn2aIQkI1pDgsC+pBeppEd73uT4k+yhSEgOzFwm9KYByj+kY3D9LP9FX+SbToxMHt3wKZCABDC0vzH7JW+1yj+JDsQAr6fj3nFMRDoFEsKH1+k+JPsUAi4eMBYCHSq+H9W8SfZwRDwOSEAXW79fyhMbpJZU7hRDBgk2xgC0o9pY+DxlgLQJdIjMG/Kb4DVij/JDoaA1fnHR5fGRqDVxX/fwg2xWvEn2cEQsLrwc/sJAWgz6ZGXJ0Tvyi/6CcWfZIdDQBoDs2PPn1QaK4FWkNa3Non+Ijjoh6QAUD4o6Of5GFkcM4FGU9zdemWw458kBz0ZcMWAsRNo9Oz/U4o/Sc4aAj6lC4A2kDa0HFFY77LjnyT7PxmQ9gQcWRpDgUaRNrLsHabvelX8SXLmJwP2Lo2lQKPa/ltEfx/s+CfJ+T4Z8LvocssBaCqXBev+rK492iSFXVaxH+ByZQRNbP1/SPFnxSHA18wuhoDjLQWgCaQNKwcHx/yy2kKaDYYro3fW3JWl0Ot7yCqOCz64NMYCtVz33zF6h3V/VmQ6JOWsfPB7RPRhNfUR+dd4VulrJxe7H+D26PalsRaoHd8M00/6c0NzsQHg9AbdA6cLAKwwBKTr6JvKC+pIWps6Ljjml8MJAGcUZj91PCFtSWFmdoYAwIoCQHk/wPtLYy5Qi+L/d30uWsWfVQeAOh+PukQA4JC6AMVx9TlCAOo04G0avTlY96cAIABw2PsBbgqTLw3yvgCMjdTyPDNMf+TPjUsBwPeP1T8Nk/345dIYDIyU9DjKa8LUc/6t+1MAEAA4nP0AxfcFvLo0FgMjnfnvECYf+XPOPwUAAYCje19ANvZ6NBBjG+guCR75owAgAHBcjwZe0oD7Ai1s/b8peOSPAoAAwHEtBaTr642WAjDK1v+jo3dp/VMAEAA49qWAu/Ix2VIARjLAXaj1TwFAAGBtlgIutBSAUbT+jyhceHb9UwAQAFiPpYDD8+vPAUEYysC2dfQ2rX8KAAIAa7cUkI3NW+kEoGrKZ5w78IcCgADA+h0Q9KXSmA0sitROen4hbWr9UwAQAFivpYDUCXi+pQBUOaBtGL0+OOufAoAAwLq/K+C6fMy2FIBKZv/Ha/1TABAA2JilgON0AbAY0hrSE6MP9mk3uekoAAgArN9SQPbfD0R3Lo3lwLwDwFeDZ/4pAAgAbNrZAOcJAFhM6/+QwtqSmT8FAAGAzegEpP0AB1oKwEJYFv1ZsPGPAoAAwKZuCPxxdH3lDPOd/f+D1j8FAAGAjV8KeIcuAOYzgG0RvTVMf+7fzUUBQABgM5YB0rkAt0SXN+D+QU1m/580+6cAIACwNV2AE3UBMBNpp+hflwq/2T8FAAGAzX4sMDsf4EmlsR6YFgBWmP1TABAA2LouwFkCAGYq/nub+VMAEADY2k7A04UADBq4LjX7pwAgALC1XYBLGnAfYYSkTSH7Bbv+KQAIAGz7UwH7lsZ+IFwdHPpDAUAAYNsPB/q2codiAnTkLwUAAYDdOSL4IF0AJL5j9k8BQABgZ7oAVyl7Zv8ZB5v9UwAQANi5LoAXBeHPSdDsnwKAAEB7AdCh2f+BZv8UAAQAdrYL8AJdgO6RBqorzf4pAAgA7Oy5AJc14L5ChaQToPYJnvunACAAsOunA+5Tqg3oQAA4Nzj1jwKAAMCudwFWCADdKv5PLlwEZv8UAAQAdrMLkD7eTQhoP2mjx78VBigBgAKAAMBuBoB0jZ5aqhFoGWlw2j56l9k/BQABgEJA/vGd0W0bcI9hkbP/95r9UwAQACgAlLoA79EFaDd/Ef1VmNz97yagACAAsNumWvCrvEagpbP/vw8O/qEAIACQ/Q8GerUuQHspH/tLCgACAJlqwreUyXaRHuvYI/Q/BIIUAAQA6gKkmrBHqXagBe3/U4LNfxQABABy5s2AJ1sGaAdpQNoiemuYevSvC58CgABAphCQNgPeEt28Afcb5jj7P8bsnwKAAEDOsQvwZl2A9nBNsPmPAoAAQM5tM+B3lc1mY/MfBQABgFzoZsCnlWoJGtj+/4T2PwUAAYCc5zLAiZYBms3DozcHJ/9RABAAyPmdDHhT9GHKaHNn/y8NTv6jACAAkAs7GfDFugDNIw1EKwxEFAAEAHKeISBdu2fbB9DM4r91dGUp1bm4KQAIAORcugBr8xqyVQPuPZRaNUcGm/8oAAgA5OKWAd5gGaB5fN0gRAFAACAXee9dogPQrPb/46L3a/9TABAAyEUuA9wXfYwQ0Jz2/1u1/ykACADkIgNAuobfYhmgOVwWHP1LAUAAIKu5/y5VVpvR/t8xeq/2PwUAAYCsaBngnuj2lgHq3/4/WvufAoAAQFa8DHCkZYD6Dz7nG3woAAgAZMX34Nd0AOo98CyP3qH9TwFAACArXgbIasvmQkB92/8vCZOb/wQACgACAFlFAEgvCHqRZYD6kc5pPs3AQwFAACArDgHpWv5MqeagJmwY/VX+TVpt9k8BQAAgKwoAqQPwy+gGym39Zv97l1o2AgAFAAGArHIfQObTdQHqw7r5j+8JUx//c+FSABAAyKqXAd5dqj2oAZcHp/9RABAAyOGYasvXldt6DTjZ438rg8f/KAAIAKTHATtBehTj0GDzHwUAAYAczWbAg0s1CGMMACfk35RVAgAFAAGAHFIAWJV//HEBoD58P0w9AMjFSgFAACCHtQ/ge8puPQabbYO3/1EAEADI0e0DyN4OuLV9AONv/x9m/Z8CgABAjngfwKGWAcYfAD5q/Z8CgABAjngfwEcEgPFzVfD8PwUAAYAc7T6Abym/4x1oNgue/6cAIACQo98HkNWeR9kHMHrSGczPUfwpAAgA5JhCwLNLNQkjIJ3B/M7CQCMAUAAQAMhRBIB0bb+jVJMwwoHmywYaCgACADmm+/JMSwDjYb3o9cEjgBQABAByPI8CXpfXIox4kHlM9AF7ACgACADkmPYAZDXo0boAoyM9c3mw2T8FAAGAHHMX4MBSbcIQSZst/ik4AIgCgABAjvdAoHeVahNGMMjYAEgBQAAg3ZsdXAb4sSUAjnHtL7vuJkawB0UAmP37sMZeII5xCeBH2v+jHWC2DL23MbnpOY7iXzx2etghQACY2/dhtfGAYxoP7o4u1wUYPum0pX1K3wgXJEd1s6ei9ofo/y793DCKjwAwc/G/o/CxEMBRjwvp471KNQpDIG2yOLwwCLjROerif1909+iy6A/D5GbUYRQfAWDw9+G26BOir9IJ4JjGhhQ+X1dYnsYQ1/4z/jl4AoDjKf73Rp9euCYfHv3BEEOAAND/+3Br9L8U/uzXCwEcw/iQ7vkPlyapGOIAc15hMHCDcxzFf91CIH34EDsBXQ8AsxX/9QptVyGA43oSYIU9AKNbBvhJ8AQAx1v8y12pRxb2BFQZArocAGYr/v2+D0IAx/EkwLVm/6MZXDaN3hlsAOT4i3+5+Gwc/T8Vh4CuBoD5FH8hgOPeCLgyv/91AYZEavPtFqY+euUi5DiLf7n4bFJxCOhiAFhI8RcCOM4AkF2nu5RqFSok3diHaP+zZsW/Xwj4UUUhoGsBYDHFXwjgOJcBDipdf6h47T/jbcEGQNav+JeLz2Zh8rTKxYSALgWAKoq/EMBRjx3pWn3rAq5TzPOGPqk0qJJ1Kf7la3Xz6E8XGQK6EgCqLP7l78PhQgCHaLq3T9ABGP7gskIHgDUu/lWHgC4EgGEUf50AjroDcHYD7tHGh4DvBqcAst7Fv1x8li8iBLQ9AAyz+AsBHOVpgFcr0cNlg+iNpRuYrGPxLxefLaLXLyAEtDkAjKL4CwEctuk6+k3oHQ+OIQ0s2Uyq+BZAFx/rXPzLxWer6M/nGQLaGgBGWfyFAI7iUcDsrYCbWQaoHmcAsKnFv1x8tp5nCGhjABhH8RcCOIqzAHYt1SxUGAD2c6OygcU/lP6MbaO/mGMIaFsAGGfxL4cATwew6rFlXwFgeDfsq4MNgGxm8e8XAn49hxDQpgBQh+KvE8BhbgR8Zen6QoWD5tuDRwDZ3OJfvp53CL2NQzOFgLYEgDoVfyGAw3oU8NgxXs+tDwAfDA4BYrOL/3xDQBsCQB2LvxDAKseZdO9+QAConrSecqoOAFtQ/MshYMcw+XhrOQQ0PQDUufgLAay6A3ByqWahwoHlXAGALSn+5RDw6OjNfWbObQgAdS7+5RBgYyAXEwDOacB92liuDJObAF14bHrxL4eAx0R/W+oEtGEJoO7FXyeAizXVpMuV6eEtA/xQAGDLin85BDw++rvC36HpAaApxV8IYBUB4Ptm/8Nh/egNwTHAbF/x7xcCfp//He5vcAC4v2HFXwjgYo8Dvj6vVaiYjaJ/FADY0uI/UwhoagBoYvEXAriYAPCHvFah4kFl09A7a9kxwGxr8S+HgJ0LywFfaFAA+EL+Nf+xocVfCOBCjwO+K7pJA+7VxgWA7aP3CQBsefEvh4Cdog9Gz8v/u86PF6Wv7bz8+/HEFnwfPB3A+QSArEZtJwBUHwDSQCgAsO3FvxwCsr/TRxv0dX8s+owWfR90AjjXAPBAvnwnAFQ8q9g1TH0+2kXnhivuvm1b8S9f/8tCMw4XWRom34nepsNQZusEuCeNR2kysksLr/+xD4B7FP6R3XAsDsBZ222vFhb/0OCZRBtnPykEvKHPwE8BIP24uwBQfQB4tpYbB3QA9sivkfXcLhgy6Ro7qhBCjUcs1qVnCQDVB4D9BQAOuOGOa/nME/Uai7Jr7N8FAA4Yj/YVAKpvux0gAHBAFyDzo0IARlD8M84vdJ+MRSzXpReUahcqCAAHS9wM/dfc0kbAfxECMOTi/7Uw9V0N9gEwXQNpT9JBAkD1AeCFAgCFANSk+NuQzEEB4FABoPoA8CIBgEIAFH/WPAC8SACoPgC8VADgPELAx4QAKP4cQwB4qQAgAFAIgOJPAQCWACgEQPGnJQAsJADYBMiFhoCPCwFQ/DmiAGAT4BACgMcAuZgQcJIQAMWfIwgAHgMcQgBwEBAXGwI+IQRA8eeQxhsHAQ3x5nQUMIUAKP50FHAHb1AvA2JVIeCTQgAUfw4pAHgZ0BBuUq8DphAAxZ9eB9zBG3XXwuDt5qQQAMWfdRtfHoruIgBURxqYd44+6AalEADFnzUdWx6IPt54Un0A2D56n5uUQgAqKP7nK/4cwriS1ajtjCXVB4BNo3e7UTmkEPApIUDxJxc5ptwV3cQ4Uj0bRf8YJg8DctFRCIC2P+tgqkn/mdcqVMz60RsEAAoBUPxZ0wBwXV6rMIQb+Qf5P/KEC45DDAGfFgIUf3IeprHjGmPG8LhCAOCIQsDJQoDiT84zAFzm1queNACfGyaftXQDc1gh4KH8438VAhpf/G344yjGjjRmnGO8GN4NfYoAwBGHgM8IAWb+5Cw+VOocOgSoQtbNfzy+zw1NCgFQ/DnOMWNV/vEHSjULFQaAt+kAcEwh4BQhQPEnZ1kCOFYAqJ70XuVXhckNF25oCgFQ/FmHsSJtAnxFqWahwht8v8I/uJuaQgBs+GMdxol0ne3b57pERTf5bsEbASkEQPFn/cYIbwIcEmmQ3Tx6j5ubNQgBpwoB2v5k4VrL3lWzmTFheGwQvTE4DphCgOKv+LNexwD/OrrM7TlcvhNsBGQ9Q4C2n+LP7m4AvMrtOfxlgHOCRwFZrxBwmhCg+LPzjwCerRs4PNJjFScVbnwXIOsSAj4rBIys+NvwxzqZatEJpVqFCkkHKxyrA8CahoDPCwFm/uxsB+CYUq3CEDoAh4TJjRdufAoBir9rkeMcA9ImwIN0AIY/EDgLgEKA4u/+pzMAOkTaWLFJ9E4DAIUAxZ+syb2/MrpxqVZhSHsBfmIZgA0IAV8QAhR/dqL9f63W/+i6AOcFGwEpBCj+5HhN9/kKs//hkxLWR/oMDKQQoPiTo7zX0yOAHyp0qDHkAHB4cBogmxUCvigEKP5s7SmAryvVKAxxkHhGn8GWFAIUf3LU93jmXu7r0e0B2DJMfSugAYJCQPOLvxP+2KR7u/gWwOX2AIx2KeDa4EkANjMEfEkIUPzZmicAfqT1P/ouwJlh6i5MUgjQ9idH/QTA6cL86Ei7LN8VPAnAZoeAMzsaAhR/tukJgH8s1SYMuf2fcZAlAAoBij855j0AB5RqE0awBPDo6APBRkA2PwR8uSMhQPFn24p/VoN2LNUmjID1otfrAlAIUPzJEd+/aQPgz/JahDF0AWwEpBCg+JPj2gB4RoeW72pD2mzx34J3ArBdIeDfWxYCFH+28b5N9+s7SjUJIxxUnmMPAIUAxZ8c0x6AZ+kAjG8JYLPQew+zEEAhQPEnR7n+f0d001JNwoi5Kv9mTLg4KQTUrvg74Y9tM9Wabyq/4yM9c/nR4EAgtjcEfKVhIcDMn105AOgjpVqEMQSAw4JHASkEKP7kaJcADhEAxr8PYJvgzYAUAhR/cnSb/7Kas7X1/3pwjX0A7EAIOLumIUDxZ9fW/7+r7NZnGeDj9gFQCBh78bfhj11Z//+49n99AsAh9gGwAyEgDT4rahICzPzZtfZ/Wv8/WACozz6A5cF5AOxWCDh3zCFA8WdX1/+z5/83t/5fLy6zD4BCgOJPDnn9/1Lltj6kM5jfk39zvBeAQoDiT1Z976V9OP9Uqj2owTrk3qVWjYGIQsDwir8Nf+xi+z9zzxrsv0GJDaK/DDYDspsh4LwhhwAzfzr8J4SfR5cpt/XsApxqGYBCQOUhQPGn9n/v45PN/utHehTjxaUOgIGJQoDiT1b1+N9hpZqDGlB8HPCO4HFAdjsEfLWiEKD40/01eZ3fHjz+V/sQcH5hGcAFTCFgYSHAhj9yai35muJf/2WAo0r7AAxU7GoI+I8FhgAzf3KyfqTn/4/Q/q9/B2CH6L2WASgE/Pnj8+cZAhR/cnr9yN7+t50OQDP4umUACgH/PwRcMMcQoPiT/dv/lyj+zVkGOMYyAIWAeYUAxZ+cPvtPAeDN2v/NWQZ4bPR+ywAUAqYtByzpU/Bt+CMHt//viz5GB6BZIeBSywA0iE0LAReWQoCZPzlz+/9ixb95ywBHWAYgZw0Bij858+7/w7X/m9cB2Dq60jIA2TcEXFS4Zy5Q/Mm+7f/sYLktdQCaGQJWWAYgp4WAdD9kbxE8p9QpU/zpXpm8R87qs08GDVkGeEn+TZzQBSCnXP8TAz52j9Dsf/KeeLH2f3N5WPTm/Bu52sVNTgnCE4WBTkAmp9aKG/MaggZ3AU4KNgOSg5YDtP3J/s/+n2D231zSms3upW+ugY4kOSgApBrxVOv/7eB7fdY6SZJc22c/zHeVzfYsA7zFMgBJco7t/zdp/zef9Djg8uithQ0eAgBJshgA0ua/W6Kbl2oIGt4F+IwuAElyltn/yWb/7SFt4Ngj2AxIkpx589/updqBlvDtYDNg0x9ZI5ugRyubufnvW8pke5cBXhOcDNjkALCabIACQHNP/nu19n97+Yvor4KTAZt8hC3pmuUwTv77ZXQjZbLdXYD3BpsBm9iauyr6wujLoy8ja+jL82v0KkuNjdz8926z//aSHufYLnpncP55U0w35+ddwmgIny9du6x3AFib14RtSrUCLe0CnKYL0LgAcGb+vVsv/z6SdXO9/Bo9UwBo3Oz/FLP/9pMe69gt9H8hCusbAM6QztGQLuMZAkCjZv/ZHoBdSjUCLQ8BK0o3qRAgAAACQHc2aKbvz9mKf5PhIqUAAA3gSURBVPcCwDOCg4EEAEAA6PrBP3sLAN28US/XBRAAAAGgs7P/rxtXukfa6PGC4GAgAQAQALp68M/zSzUBHaP8zK4QIAAAAkB7Z/9prP+2S1YX4CBdAAEAEAA6N/s/wOwfGVfrAggAgABg9o/udQEO0QUQAAABoDOz/wPN/lHEXgABABAA2j/798pfTOsC7BsmT4XSBRAAAAGgXbP/9Na/55n9o9+Ne3FwLoAAAAgAbX3u/yLjCMqkE6D2Ck4HFAAAAaCtp/7tWRrzgSkXxNm6AAIAIAC0bvb/FcUfswWAvyoVf50AAQAQAJo9838w+kQBADORNoWcpAsgAAACQGtm/yeUxnhg4A28PPqn4KkAAQAQAJpa/NOu/2ws39z4gbmwbv7jO3QBBABAAGj87P/tZv+YL8uiPw0OBxIAAAGgqYf+XBtdz6WJ+ZCS4oHBEcECACAANPXQHy/8wYJIO0XPC5YCBABAAGha639FaSwH5h0Ado4+EDwWKAAAAkBTZv73R3cSALAYUtvouPyiWqULIAAAAkBtZ/9pjH5faQwHFnxDbxC9LtgQKAAAAkDdN/5lm7eXGS9QZRdg/zD9XAAhQAAABIB6nPiX2v/7mv2jStIa0peCDYECACAA1LX1/4XSmA1UdmNvFb0tTD1lSggQAAABYPwn/t0S3cI4gWGQTgh8feHmthQgAAACwHhb/2nt/3X5v7/WP4Z6g18QLAUIAIAAUJdn/s83PmDYpHWlHaN3BksBAgAgAIy79Z+NxTuUxmhgKKSlgKODpQABABAAxtX6T/++R5XGZmAkN/rFwVKAAAAIAONq/V9sXMCoSW2m7aO3B0sBAgAgAIy69Z+NvduVxmRgJKR206vC9DcGCgECAAQAAWC4u/5fWRqLgbF0AtIN710BAgAEAAFg+Af+nGHmj7rc8BtHbwreFSAAwHggAAz7rP8b8zHXeICxkw6deE6pVSUECAAQANzD1RT/4rj67NLYC9QiBLw/TH8qQAioNgAsFQJQ0+K/VAAYyrq/1/yiMXwjeDRwGAHgdJcWGsLpAsBQHvn7hksLdSWl/+xEqvRooP0A1QWAs0Jvt+8jog8ja+gj8mv0LAGg8nX/7CVsHvlDrUmPoxwY7AcYxu7flaF37CdZV1cGTwMNY93/oNIYC9SStDZ1fJj+aKABYXEDAuma7d66/3GlsRVoBJcKAZXPBsgmKARUU/wvVUbQNNIa1ebR3wb7AUhyvuv+N+djqHV/NHYpYM8weXa19wWQ5Ozn/K/Ox06tfzSWtGHl8DD1fQFCAElOX+ZLs/83lMZQoNHLAZ8I9gOQ5Gzr/idp+6MtFE+tu1wIIMmBxf/yAWMn0PguQPYCixuC44JJKv7lk/5uCJMv+TH7R6tIG1l2Dr0DQzwZQNKO/96Pd0WfUBorgVaRNrQ8t3AjeDKAZJd3/K/Nx8TiGAm0OgQcWbgJPBlAsms7/lMAOFLxR5dI61vHFdbAhACSXSn+ad3//aUxEegUpwVPBpDs3o7/zxr+0VWKj7hcIASQ7FDxv2jAWAh0bilgg+j3hACSHSj+10SXaf0Dk4+8PDL6YyGAZIuL/0+im5TGPkAIiGwV/U1wUBDJ9h308+vo1oo/MJ30CMzjorcIASRbVPz/FH18aawD0CcE7BZdKQSQbEHxz8ayXRV/YO4h4KnRu4UAkg0u/vfkY5niD8wzBOwRvU8IINnA4p+NXXsq/sDCQ8Azog8IASQbVPyzMWsfxR9YfAjYO3qvEECyAcX/fsUfqDYE7B56r8wUAkjWec1f2x8YQgj4r9E7gsOCSNZzt//TFH9geCEge5zmj0IAyRoU/zQG/Sl41A8YSQh4bPSXQgDJGhT/G4NDfoCRhoAtw/R3B6wVAkgOsfivDdPP9t9G8QdGHwKyFwgV3yK4RgggOcTiv6ZQ/LOxZxPFHxg96WUa2auELwiTm3HWWBIgOYSW/5owueHvwjD5Sl8v9gHGGAIyTstvzNW5QgDJqop/cVz5twFjEIARs7Tw8fsLN++EEECyguI/Ufj54weMPQDGxJLCx0cWblYHBpGs4hn/tfnY0m/MAVCjbsBzo3cGTwiQXPxO/2wseV5hjFH8gZqSduPuHL0+9H9CQBAgOdNmv1T8s/NGnlAaWwA0IARkjwleHibX8WwOJDnbZr+05p+NHR7zAxpIcXfuicHmQJJz3+z36QFjCYCGUNyl+/pCB8C+AJL91vuzn3vDgDEEQMNYUkjwe0R/G+wLIM36px/uc3OYfJWvzX5Ai0hreJtHLync/JYEyO62/NPHl0Y3K40VAFpEcS3vuDD9vABLAmQ3Wv7Fe/4DA8YIAC2juKZ3QPS24D0CZBcf8bs9euCAsQFAB7oB20avtCRAdqrl/83ojmb9gBCQ8T/C1B3BugFk+2b95fP8rfcDlgT+zN9GbwwODiLbeLBPdm8/W8sfwKBuwMbRL4apm4V0A8hmFf7yRr8zw+Spflr+AGZcEnhF6G0SSgOJbgDZnFl/Kv7ZPfyaAfc4AExhSaE1uE30It0AsnGH+mReHN2+0O53sA+AeXcDjoquDPYGkE2Y9Wev731z4f610Q/AvCnOGrLHBb8aPClA1nnWf0GYfLyv2M0DgEV3A14bvTVM32EsBJCjf64/deNuiR5u1g9g2N2ALaKfK3UDLAuQ45n1nx7d0qwfwCi7AftGfxxsEiTHUfivi+5n1g9glBRfMbws+r7o/TMsCwgC5OKe6Z8o3FcPht4LfJb16c4BwMi7ATtFV5S6AZYFyOp292eeF33CgHsQAMbWDcjYP/p/g2UBssp2/0/D1Df3rWPWD6AuLA2Tm4/Wi749+gdBgFxU4b8lv5fW73OfAUCtKHYDHhX9WOitWRYHN0GA7F/41xQC8ydC74mbfvcWANSW4o7kbM3yrMLAlzYKCgJU+Kc+z782v1f+WuEH0GTK+wP2jF4Ypu9sFgTY1cI/Eaae3f+MUuG3zg+g0ZTXLf82+g0dASr8f/aq6PNmuF8AoBVBoDijeX70f5Y6AvYIsCut/qujB5c6Zgo/gFZTXtPcvxQEihuiHCbEphb+NYVreabC3++eAIBOBYGsI3BxaTB9qM9MSpFhXQv/2lLhL/76lfk1rvADwIBB8OnRr4Sp66RpFmV5gHVu85dP7st+7tzoPgo/AMwcBIp7BLJHoT4TvTP0f3LA8gDr0uYvb+y7K3pa9MmF63mJwg8AM1PeBb119F3Rn4fp+wR0BTju2X7xmvt16L0ca4cZrmcAwByCQHHGtGH0FdFvh+n7BCaCvQIc3Wy/vL7/rejfR/+y1NFS+AFgEfRrnT41+q/RP/UJA6uDJQIOf7Z/e+i1+XcvXZsO8AGAIVAOAtn7Bo6Ofq80gBfPFLBEwIUU/TWF7lLx930nekx0y1muTQDAEFjaZ8D9m9B7+dCvhQEuouj3a/H/NvrJ6B59rkNtfgAYA/2WB7J12BdHvxx6bdryEoEwoOjPpehnT5+cm19LD+sz29fmB4AadwWy16m+NnpB9L5ZOgP2DHRnI9+aQhgs/r77o5dFj4pu26fom+0DQM3pN1g/Jvrm6EXRu0sDf7bJa1WYuoHQ0wTtOpkvbeQrr+lnwfCK6Fvya2S2DhMAoAGkAbzcrt0m+rro18L0ZYLi7FAgaG7BH9TaTzv4/yN6ZHTHAQFSix8AWhQG1u0zsG8WPST66egNAwrLqjD9BEKBoJ4FP3Vyyr8/2xx6avQl0eWKPgDoDBRZP/TeRZCdPHhh9LY+hWR1IRD06xAIBaPZuDdbwV8Zeq39d0f3jG4wx2sAANCxMNBvrXfT6H7Rfwm9swbuHlCc+i0ZCAXVzu5Xh6lPcZT/n3ui3w29R0EPGTDLX6roAwAGkRWJdQf8Wnb4y0HRD4fe8a93zFDAUrEa9PIioaD/7vxisR80u08z/G9GPxJ6bf1tB3zP7N4HAFTaHcjYOPrM6NujX4r+OEx/3LD86OGqMPORxW3rGAxq35cL/UMzfI4HQu9lUGdF/yH6d6G3d2NQwTfLBwCMNBBknYPtovtH/zEPBT8MvdfDrpmlSBYL4cSAgFC3DsKaOczkJ0p/t9WzfM57o9dGz4y+N3po6D2et76CDwCoUyBISwZLZ/g92Ww1O0b2NdEPhd4Jc1mRuyMvjHMptOVCmoJCCgszBYaqXF0o6hOFr6MYXOYSTLLPcWf+b7Ai9JZUjog+K7rVDAFrSeHfWsEHANSySzBTKEjdgkdGn5R3DLKXGn08enb06uhvQm9j20OhunX21bNY1WmID+Vf+2/yv0v2dzohemzobdB7Sui9yGmdWf4d1zW7BwC0oVMwn3b1srxzsGt03+gr8wL6gejJ0XOil0e/H70u+p+h95RCtgfhgTB4t/x8gsND+efKPudd+Z9xXf5nXpZ/DSfnX9Ox+de4b/41b5b/Hebyb7OumT0AoGvBoLiMsJDZbvb7s/XxjaKbhN4ehMdHdwm9d9VnbfX98i7DIbmHRV+We1jh5/fPf++z8v93l/xzbZd/7o3yP2shX+M6hb+jQg8AwBw6B0sLBbROM+VieCkWdwUeAIAxdBSKwaEYIOZi+f8rfk4AAAAAAAAAAAAAAAAAAAAAAAAAAAAAAAAAAAAAAAAAAAAAAAAAAAAAAAAAAAAAAAAAAAAAAAAAAAAAAAAAAAAAAAAAAAAAAAAAAAAAAAAAAAAAAAAAAAAAAAAAAAAAAAAAAAAAAAAAAAAAAAAAAAAAAAAAAAAAAACMgf8Hh3KKVd2zUXIAAAAASUVORK5CYII=;" vertex="1" parent="oHTOzMjrjBwwR5K5Gdxc-12">
          <mxGeometry x="-4.5745582338902135" width="456.31067961165047" height="456.31067961165047" as="geometry" />
        </mxCell>
        <mxCell id="oHTOzMjrjBwwR5K5Gdxc-15" value="" style="triangle;whiteSpace=wrap;html=1;strokeColor=none;" vertex="1" parent="oHTOzMjrjBwwR5K5Gdxc-12">
          <mxGeometry x="290.9005046591263" y="281.7718446601942" width="69.27391304347829" height="78.53106796116505" as="geometry" />
        </mxCell>
        <mxCell id="oHTOzMjrjBwwR5K5Gdxc-24" value="&lt;h1 style=&quot;font-size: 29px&quot;&gt;&lt;div style=&quot;text-align: center&quot;&gt;&lt;span&gt;&lt;font style=&quot;font-size: 29px&quot;&gt;Welcome To Chrome Media Grabber Extension!&lt;/font&gt;&lt;/span&gt;&lt;/div&gt;&lt;div style=&quot;text-align: center&quot;&gt;&lt;span&gt;&lt;br&gt;&lt;/span&gt;&lt;/div&gt;&lt;div style=&quot;text-align: center&quot;&gt;&lt;font style=&quot;font-size: 16px ; font-weight: normal&quot;&gt;Download any videos from any website. Chrome Media Grabber Extension helps to easily download videos from any webpage on the internet.&lt;/font&gt;&lt;/div&gt;&lt;/h1&gt;" style="text;html=1;strokeColor=none;fillColor=none;spacing=5;spacingTop=-20;whiteSpace=wrap;overflow=hidden;rounded=0;fontStyle=1" vertex="1" parent="oHTOzMjrjBwwR5K5Gdxc-10">
          <mxGeometry x="-86.40999999999997" y="456.30999999999995" width="620" height="210" as="geometry" />
        </mxCell>
        <mxCell id="oHTOzMjrjBwwR5K5Gdxc-16" value="" style="group" vertex="1" connectable="0" parent="1">
          <mxGeometry x="50" y="50" width="142.38" height="140" as="geometry" />
        </mxCell>
        <mxCell id="oHTOzMjrjBwwR5K5Gdxc-17" value="" style="shape=image;verticalLabelPosition=bottom;labelBackgroundColor=#ffffff;verticalAlign=top;aspect=fixed;imageAspect=0;image=data:image/png,iVBORw0KGgoAAAANSUhEUgAAAgAAAAIACAYAAAD0eNT6AAAABmJLR0QA/wD/AP+gvaeTAAAZnUlEQVR42u3dXayl1X0e8GedwWMsG9Qp1GKkjOR4ZPGhhC8rrkBBcTFRc1FfcFFHgFxfEENRk5tKbSLfh9jORaS4TYCWixgDMpXlC/vGsqFYRKAmsQ00ghlFOJbG0iAXeypGyAR7vHLx7jmeM7PPnL3P/nrfd/1+0ggPPrPP3uvdh/XMev5771JrDQDQli1LAADtEQAAoEECAAA0SAAAgAYJAADQIAEAABokAABAgwQAAGiQAAAADRIAAKBBAgAANEgAAIAGCQAA0CABAAAaJAAAQIMEAABokAAAAA0SAACgQQIAADRIAACABgkAANAgAQAAGiQAAECDBAAAaJAAAAANEgAAoEECAAA0SAAAgAYJAADQIAEAABokAABAgwQAAGiQAAAADRIAAKBBAgAANEgAAIAGCQAA0CABAAAaJAAAQIMEAABokAAAAA0SAACgQQIAADRIAACABgkAANAgAQAAGiQAAECDBAAAaJAAAAANEgAAoEECAAA0SAAAgAYJAADQIAEAABokAABAgwQAAGiQAAAADRIAAKBBAgAANEgAAIAGCQAA0CABAAAaJAAAQIMusQTLU0q5MsnVSa5J8oEkl53z6/Lzfn/210ErBzTqnSSnp/x687zf/yDJsSTHa61vWLblKLVWqzDPgpVySZIPptvkr8kvN/yrk1xhhQBW6sdJjmcSCCb/PJbk+7XWn1ue2QkAey1QKVtJbkzysSS3J7ktyXutDECvvJXkuSTPJHk6yYu11l9Ylt0JANMWpZTr0m32tyf5aJJDVgVgUE4leTZdIHim1vqKJdlJAEhSSjmQ5I4k9yT57SRXeWoAjMrrSb6Z5PEk36q1nml9QZoOAKWUG5J8MsndSQ77+QBowskkTyR5rNb6UquL0FwAKKUcTvc3/U8mud7PAUDTXk7yWJLHa60nW3rgTQSAySDfnUnuSzfMd8BzHoBznEk3PPhIkq+2MEA46gAw6fbvSvKZJNd6fgMwg1eTPJjkyTHPCowyAJRS3pXkU0n+KMlRz2UA9uG1JJ9N8le11p+N7cGNKgCUUi5Ncm+SP0xyxHMXgCU4keRzSR6ttb49lgc1igAw+Rv/7yf5r/ESPgBW4/Ukn0/y38ZwIjD4AFBK+TdJ/nt0/ACsx6tJ/lOt9X8P+UEM9tMASylXlVK+lO5dnmz+AKzLtUmeKaV8qZQy2FPnwQWAUsqBUsofpPvwh3s8DwHYkHuSHCul/MHkVWeDMqgKoJTyr5P8ZZKbPO8A6JHvJXmg1vp/hnKHB3ECUEp5TynlL5K8EJs/AP1zU5IXSil/UUp5zxDucO9PAEopVyf5X0l+3fMLgAH4v0n+fa31eJ/vZK9PAEop9yT5u9j8ARiOX0/yd5M9rLd6GQBKKZeWUh5J8qUk7/NcAmBg3pfkS6WURyZvUtc7vasAJkf+T8Un9QEwDi8n+UTfKoFenQCUUu5Od+Rv8wdgLK5PVwnc3ac71ZsAUEr54ySPx5E/AOPzviSPT/a6Xth4BTB584SH032IDwCM3aNJ7t/0Rw1vNABMXiv55SQf93wAoCFfS/K7tdafbuoObCwAlFIOJfl6kls9DwBo0PNJ/l2t9dQmvvlGAkAp5VeSfCPJda4/AA17Jcm/rbX+cN3feO1DgKWU69KlHps/AK27Lsnzk71xrdZ6AjB5gM8l+ZeuOQBs+0mS22qtr6zrG64tAEyO/Z9PcsR1BoALnEhy67rqgLVUAJOBv2/E5g8AuzmS5BuTPXPlVh4AJi/1+3p0/gCwl+uSfH0dHym80gAweZOfL8dL/QBgVrcm+fJkD12ZVZ8APBxv8gMA8/p4uj10ZVYWACbvd+ztfQFgf+5d5WcHrORVAKWUu5I84doBwMLurrU+uewbXXoAKKV8KMl3klzmmgHAwk4n+XCt9R+WeaNLrQBKKZcmeSo2fwBYlsuSPDXZY5dm2TMAf5bkRtcKAJbqxnR77NIsrQIopXwi3Uv+AIDV+N1a61PLuKGlBIBSytEk301yuWsDACvzZpKba62vLXpDC1cApZR3p+v9bf4AsFqXp5sHePeiN7SMGYA/SXKzawIAa3Fzur13IQtVAKWUm5L8bZID/VkXABi9M0l+o9b6vf3ewL5PAEopW0keis0fANbtQJKHJnvxvixSAdyX5COuAQBsxEfS7cX7sq8KoJTy/iTHkhzq77oAwOidSnJNrfVH8/7B/Z4A/Gls/gCwaYfS7clzm/sEoJTyW0meteYA0BsfrbV+e54/MFcAKKW8K8lLSa611gDQG68muaHW+rNZ/8C8FcDvx+YPAH1zbbo9emYznwBMPoXoH5NcZZ0BoHdeT/Krtda3Z/nieU4A7o3NHwD66qp0e/VMZjoBmHT/ryU5Yn0BoLdOJDk6yyzArCcAn4rNHwD67ki6PXtPe54AlFIOJDme5Kh1BYDeey3J1bXWMxf7ollOAO6KzR8AhuJour37oi56AjD5kIG/j5f+AcCQvJrk12qtv9jtC/Y6AbgzNn8AGJpr0+3hu9orANw3nrUAgKZcdA/ftQIopRxO93KCA9YQAAbnTJIjtdaT0/7Pi50A3BObPwAM1YF0e/lUFwsAn7R2ADBou+7lUwNAKeWGJNdbNwAYtOsne/oFdjsB8Ld/WnF/kncsAzBiU/f0C4YAJ+/8dyLJYWvG2NVaSynlliRf8ZwHRupkumHAHe8MOO0E4I74DyENqbW+kOTDSV6wGsAIHU63t+8wLQDcY61ozeRlMh9N8ojVAEbogr19WgVwMt1nCsPo1VrLBT8UpdyX5AtJDlohYCRer7XuON3fcQJQSrkuNn8aV2t9JN1pwEmrAYzEVZM9ftv5FcDt1gjMBQCjtGOPFwBgF+YCgJHZscdvzwBMPvr3jSSHrBGtmDYDMI25AGAETiW58uxHBJ97AnBjbP4wlbkAYAQOpdvrk+wMAB+zNrA7cwHACGzv9ecGAP0/7MFcADBw23t9qbWmlHJJkv+f5L3WhpbMOgMwjbkAYIDeSvIvaq0/P3sC8MHY/GEu5gKAAXpvuj1/uwK4xprA/MwFAAN0TSIAwMLMBQADsyMAXG09YP9qre/UWu9Pcn+Sd6wI0GNXJ04AYKnMBQAD4AQAVsFcANBz3QlAKeXKJFdYD1gecwFAj11RSrlyK/72DythLgDosau3ov+HlTIXAPTQNVtJPmAdYLXMBQA984GtJJdZB1g9cwFAj1wmAMAamQsAekIAgE0wFwBs2GVbSS63DrB+5gKADbrcCQBskLkAYENUALBp5gKADRAAoC/MBQBrJABAn5gLANZEAIC+MRcArMFlJUm1DrSq1lr6fP9KKfcl+UKSg64WsEwCAE3rewBIklLKLUm+kuSwKwYsy5YlgH4zFwCsggAAA2AuAFg2AQAGwvsFAMtkBoCmDWEGYOoPrrkAYEFOAGCAzAUAixIAYKDMBQCLEABgwMwFAPtlBoCmDXUGYOoPs7kAYA5OAGAkzAUA8xAAYETMBQCzEgBgZMwFALMwA0DTxjQDMPUH3FwAsAsnADBi5gKA3QgAMHLmAoBpBABogLkA4HxmAGja2GcApv7QmwsA4gQAmmMuAEgEAGiSuQBAAIBGmQuAtpkBoGktzgBM/Q+BuQBojhMAwFwANEgAAJKYC4DWCADANnMB0A4zADTNDMDuzAXAuDkBAKYyFwDjJgAAuzIXAOMlAAAXZS4AxskMAE0zAzAfcwEwHk4AgJmZC4DxEACAuZgLgHEQAIC5mQuA4TMDQNPMACzOXAAMkxMAYCHmAmCYBABgYeYCYHgEAGApzAXAsJgBoGlmAFbDXAD0nxMAYOnMBUD/CQDASpgLgH4TAICVMRcA/WUGgKaZAVgfcwHQL04AgLUwFwD9IgAAa2MuAPpDAADWylwA9IMZAJpmBmCzzAXA5jgBADbGXABsjgAAbJS5ANgMAQDYOHMBsH5mAGiaGYD+MRcA6+EEAOgVcwGwHgIA0DvmAmD1BACgl8wFwGqZAaBpZgCGwVwALJ8TAKD3zAXA8gkAwCCYC4DlEgCAwTAXAMtjBoCmmQEYLnMBsBgnAMAgmQuAxQgAwGCZC4D9EwCAQTMXAPtjBoCmmQEYF3MBMDsnAMBomAuA2QkAwKiYC4DZCADA6JgLgL2ZAaBpZgDGz1wATOcEABg1cwEwnQAAjJ65ALiQAAA0wVwA7GQGgKaZAWiTuQBwAgA0yFwACABAo8wF0DoBAGiWuQBaZgaAppkB4CxzAbTGCQBAzAXQHgEAYMJcAC0RAADOYS6AVpgBoGlmALgYcwGMmRMAgF2YC2DMBACAizAXwFgJAAB7MBfAGJkBoGlmAJiXuQDGwgkAwBzMBTAWAgDAnMwFMAYCAMA+mAtg6MwA0DQzACyDuQCGyAkAwILMBTBEAgDAEpgLYGgEAIAlMRfAkJgBoGlmAFgVcwH0nRMAgBUwF0DfCQAAK2IugD4TAABWyFwAfWUGgKaZAWCdzAXQJ04AANbEXAB9IgAArJG5APpCAACABl1iCQDWp5RyON0cwC1Wg01yAgCwJpMhwO/E5k8PCAAAa1BKuS/Js/EKAHpCBQCwQqWUg0m+kOQ+q0GfCAAAK6Lvp89UAAAroO+n7wQAgCXT9zMEKgCAJdH3MyQCAMAS6PsZGhUAwIL0/QyRAACwAH0/Q6UCANgHfT9DJwAAzEnfzxioAADmoO9nLAQAgBnp+xkTFQDAHvT9jJEAAHAR+n7GSgUAsAt9P2MmAABMoe9n7FQAAOfQ99MKAQBgQt9PS1QAANH30x4BAGievp8WqQCAZun7aZkAADRJ30/rVABAc/T9IAAAjdH3Q0cFADRB3w87CQDA6On74UIqAGDU9P0wnQAAjJa+H3anAgBGR98PexMAgFHR98NsVADAaOj7YXYCADAK+n6YjwoAGDR9P+yPAAAMlr4f9k8FAAySvh8WIwAAg6Pvh8WpAIDB0PfD8ggAwCDo+2G5VABA7+n7YfkEAKDX9P2wGioAoJf0/bBaAgDQO/p+WD0VANAr+n5YDwEA6A19P6yPCgDYOH0/rJ8AAGyUvh82QwUAbIy+HzZHAAA2Qt8Pm6UCANZK3w/9IAAAa6Pvh/5QAQBroe+HfhEAgJXT90P/qACAldH3Q38JAMBK6Puh31QAwNLp+6H/BABgqfT9MAwqAGAp9P0wLAIAsDB9PwyPCgBYiL4fhkkAAPZN3w/DpQIA5qbvh+ETAIC56PthHFQAwMz0/TAeAgAwE30/jIsKALgofT+MkwAA7ErfD+OlAgCm0vfDuAkAwAX0/TB+KgBgm74f2iEAAEn0/dAaFQCg74cGCQDQOH0/tEkFAI3S90PbBABokL4fUAFAY/T9QCIAQFP0/cBZKgBogL4fOJ8AACOn7wemUQHAiOn7gd0IADBS+n7gYlQAMDL6fmAWAgCMiL4fmJUKAEZC3w/MQwCAEdD3A/NSAcCA6fuB/RIAYKD0/cAiVAAwQPp+YFECAAyMvh9YBhUADIS+H1gmAQAGQN8PLJsKAHpO3w+sggAAPabvB1ZlK8k7lgH6pZRysJTycJKHkxy0IsCSvXNJktNJrrAW0A/6fmANTm+lCwBAD+j7gTURAKAv9P3AGp0+WwEAG+L1/cAGCACwSfp+YENObyV50zrA+un7gQ160wwAbIC+H9gwFQCsk74f6AkBANZF3w/0yOmtJD+wDrBa+n6gZ36wleSYdYDV0fcDPXSsJLkyyf+zFrSo1lpWddv6fqDH/lWptaaU8kZ8HgANWlUA0PcDPfbjWuuVZz8O+Lj1gOXQ9wM9dzzpPg44MQcAS6HvBwbgWJJcMvmNEwBYgL4fGJDjyS8DgBMA2Cd9PzAwxxIVACxE3w8M0I4A8P0kb1kTmJ2+Hxigt9Lt+V0AqLX+PMlz1gX2Vko5WEp5OMnDSQ5aEWBAnpvs+dsnAEnyjHWBi5v0/c/GsB8wTNt7/bkB4GnrArvT9wMjsL3Xl1pr9z9K2UryRpJD1odWzPpOgJO+/wtx5A8M16kkV9Zaf5GccwIw+RfPWh/4JX0/MCLPnt38k50VQGIOALbp+4GR2bHHCwAwhb4fGKEde/z2DMD2vyjlZJKrrBMtmDYDoO8HRuj1WuuO9yzZmvJF37ROtEjfD4zYBXv7tADwuHWiNfp+YOQu2NunVQAHkpyItzelAbXWMun7v+I5D4zUySRHaq1nzv2XF5wATL7gCetFC7yfP9CAJ87f/JMpJwBJUkq5IcmL1gwABu/GWutL5//LaTMAmXzhy9YMAAbt5Wmbf7JLAJh4zLoBwKDtupdPrQCS7anoE0kOWD8AGJwz6Yb/Tk77P3c9AZj8AZ8QCADD9PRum39y8QogSR6xfgAwSBfdw3etAJLtjwj++yTXWkcAGIxXk/zauZ/+d76LngBM/uCD1hEABuXBi23+yR4nAMn2OwMeT3LUegJA772W5Oppb/5zrr1mAM6+M+BnrScADMJn99r8kxlOAJKklPKudIniiHUFgN46keRorfVne33h1iy3Nrmhz1lXAOi1z82y+SczngAkSSnl0iT/mOQq6wsAvfN6kl+ttb49yxdvzXqrkxv8vPUFgF76/KybfzLHCUCyPQvwUrwvAAD0yatJbpj1+D+Z4wQg2Z4FeMA6A0CvPDDP5p/MGQCSpNb67SRftNYA0AtfnOzNc5mrAtj+Q6W8P8mxJIesOwBszKkk19RafzTvH9zaz3ebfKPPWHcA2KjP7GfzT/Z5ApBsf1DQC0k+Yv0BYO3+Jskte73n/272HQCSpJRyU5K/TXLAdQCAtTmT5Ddqrd/b7w1sLfLdJ9/4z10HAFirP19k808WPAFIklLKu5M8n+Rm1wMAVu67SW6ttf7TIjeycABIklLK0ckdutx1AYCVeTPJzbXW1xa9oa1l3JvJHfm06wIAK/XpZWz+yZICQJLUWp9K8pBrAwAr8dBkr12KpVQA2zfWfWLgC0ludJ0AYGleTPeSv7eXdYNLDQBJUkr5UJLvJLnM9QKAhZ1O8uFa6z8s80a3ln0vJ3fwftcLAJbi/mVv/skKAkCS1FqfTPKgawYAC3lwsqcu3dIrgB03Xsr/THKv6wcAc3u01vp7q7rxVQeAA0m+muTjriMAzOxrSe6stZ5Z1TdYaQBIklLKe5J8K8mtricA7On5JHfUWn+6ym+y8gCQJKWUQ0n+Osl1risA7OqVJL9Zaz216m+0lgCQJKWUX0mXao64vgBwgRPp3uP/h+v4ZlvrelSTB/Q7SX7iGgPADj9J8jvr2vyTNQaAJKm1vpLktnQpBwDo9sTbJnvk2myt+1FOHuCt6XoOAGjZK+mO/de+J25t4tFOjjh+M91MAAC06Pl0A38/3MQ339rUo55MON6R7rWOANCSr6V7qd+pTd2BrU0++slrHO9M8qjnAgCNeDTdm/z8dJN3YmvTq1BrPTN5q0OfHQDA2D1Ya/29Vb7D36zW9j4AM92ZUu5K8nB8lDAA43I63af6PdmXO9SrAJAkpZQPJXkqyY2eLwCMwItJPrGKj/RdxMYrgPNNFuiWJA95zgAwcA8luaVvm3/SwxOAHXeulE8k+R9JLvccAmBA3kzy6VrrU329g70OAElSSjmarhK42fMJgAH4broj/9f6fCd7VwGcb7KAtyb5syQbn5oEgF2cSbdX3dr3zT8ZwAnAjjtbyk3p+pSPeJ4B0CN/k+Q/1lq/N5Q73PsTgHNNFvaWJA8kOTWk+w7AKJ1KtyfdMqTNPxnYCcCOO17K+5P8aZL/4PkHwAZ8Mcl/qbX+aIh3frABYPsBlPJbSf4yybWeiwCswatJHqi1fnvID2JQFcA0kwtwQ5L/nOR1z0sAVuT1dHvNDUPf/JMRnADseDClXJrk3iR/mOSI5yoAS3AiyeeSPFprfXssD2pUAWD7QZXyriSfSvJHSY567gKwD68l+WySv6q1/mxsD26UAWD7wZVyIMldST4TMwIAzObVdJ9Q+2QfPrVvVUYdALYfZClbSe5Mcl+SjyU54PkNwDnOJHk6ySNJvlpr/cXYH3ATAWDHAy7lcJJ7knwyyfWe8wBNeznJY0ker7WebOmBNxcAdjz4Um5IFwTuTnLYzwFAE04meSLJY7XWl1pdhKYDwPYidLMCd6Q7GfjtJFf5+QAYldeTfDPJ40m+NeZuf1YCwLRFKeW6JLdPfn00ySGrAjAop5I8m+SZJM/UWl+xJDsJAHstUDdAeGO64cHbk9yW5L1WBqBX3kryXLoN/+kkL7YwyLcIAWDeBSvlkiQfTHLN5NfV5/zzCisEsFI/TnI8ybFz/nksyfdrrT+3PLMTAJa5mKVcmV8Ggg8kueycX5ef9/uzvw5aOaBR7yQ5PeXXm+f9/geZbPi11jcs23IIAADQoMF/GBAAMD8BAAAaJAAAQIMEAABokAAAAA0SAACgQQIAADRIAACABgkAANAgAQAAGiQAAECDBAAAaJAAAAANEgAAoEECAAA0SAAAgAYJAADQIAEAABokAABAgwQAAGiQAAAADRIAAKBBAgAANEgAAIAGCQAA0CABAAAaJAAAQIMEAABokAAAAA0SAACgQQIAADRIAACABgkAANAgAQAAGiQAAECDBAAAaJAAAAANEgAAoEECAAA0SAAAgAYJAADQIAEAABokAABAgwQAAGiQAAAADRIAAKBBAgAANEgAAIAGCQAA0CABAAAaJAAAQIMEAABokAAAAA0SAACgQQIAADRIAACABgkAANAgAQAAGiQAAECDBAAAaJAAAAANEgAAoEECAAA06J8BZpLsG0gJqJ4AAAASdEVYdEVYSUY6T3JpZW50YXRpb24AMYRY7O8AAAAASUVORK5CYII=;" vertex="1" parent="oHTOzMjrjBwwR5K5Gdxc-16">
          <mxGeometry x="10.194272076372318" y="27.184466019417474" width="112.81553398058252" height="112.81553398058252" as="geometry" />
        </mxCell>
        <mxCell id="oHTOzMjrjBwwR5K5Gdxc-18" value="" style="group" vertex="1" connectable="0" parent="oHTOzMjrjBwwR5K5Gdxc-16">
          <mxGeometry width="142.38" height="135.92233009708738" as="geometry" />
        </mxCell>
        <mxCell id="oHTOzMjrjBwwR5K5Gdxc-19" value="" style="ellipse;whiteSpace=wrap;html=1;aspect=fixed;" vertex="1" parent="oHTOzMjrjBwwR5K5Gdxc-18">
          <mxGeometry x="24.48684075573551" y="21.400276893378585" width="86.9446829289294" height="86.9446829289294" as="geometry" />
        </mxCell>
        <mxCell id="oHTOzMjrjBwwR5K5Gdxc-20" value="" style="shape=image;verticalLabelPosition=bottom;labelBackgroundColor=#ffffff;verticalAlign=top;aspect=fixed;imageAspect=0;image=data:image/png,iVBORw0KGgoAAAANSUhEUgAAAgAAAAIACAYAAAD0eNT6AAAACXBIWXMAAAsSAAALEgHS3X78AAAgAElEQVR42u3dB7RlVZ3n8V1FKKDbAAhFDiZQuwfQHgUEUdtWQIliTq0iwYDocuxpW12jiKFtBQyrEWgjYAsU2JIlOCqoqGtmHAyAEVBbJRUZildVs4/37HnnnXfvi+fee8Lnu9Z31aOqePWq3jn7/9v/vc8+IQAAAAAAAAAAAAAAAAAAAAAAAAAAAAAAAAAAAAAAAAAAAAAAAAAAAAAAAAAAAAAAAAAAAAAAAAAAAAAAAAAAAAAAAAAAAAAAAAAAAAAAAAAAAAAAAAAAAAAAAAAAAAAAAAAAAAAAAAAAAAAAAAAAAAAAAAAAAAAAAGBcLCm4tOQ6c7T8/xU/JwAAGFFBLxbwdXOX1qQgp68vfV3rlIIDAACYYca+TqGAzrdwZsV2/ehG0U2j20d3iu4a3SP67Oh+0RdED40eEn1R9GW5L8p/7tD892S/91n5/7tr/rm2zz/3RvmftXQBf891SiFBQAAAdGYmv84ci3z26xtEl0d3y4vyq6Jvi34wekr03OgV0R9Eb4j+MXp39L7og9GHomuiaxfomvxzPJh/zrvzP+OG/M+8Iv8aTsm/prflX+N++de8ef53mE84EAwAAI0u9qmgzVTMsl9/ZPRJ+cz72OhJ0RXR70RvjN4TnVhEEU+FPLl6Fou/dzF/5kT+td+Y/12yv9OJ0XdGD4s+Jfqo/N9gpn/HhXZFAAAYycw+zV77kf38ZqHXUn9N9CPR86I/ia6MrppjEZ/IZ+Sr8h8fyn9uYkABH4bpz5kofD3Fr2lijuEh+3135v8G2b/FP0ePCL2lh61mCAZLdAoAAOOc3a8zw6x+u+j+0f8ePSP6v6J3zVIY1/QppIMK+tqKZulV2O9rKgeGYnBZlf/cTJ8z6xz8NHpO9L2htzfhcaG396Afc11WAQCgsoK/SXSf6DvyYp/NaO+fZeabivzqmhf3UYSE1aXgM+hzZPsQfhE9Kw9W+4beHgOBAABQGaml348toweFXsv6qugds8zoi23xfoV+bcedaanhoVk6Bnfm34OPRl+Sd14GBYKlLmsAwKBZfr8ika3dZ4/InRC9JvR2wvcrRg8NmNW3cUY/qmCwdoZQ0O/f897o90Jvs2EWCJYPCHe6AwCg6E8rBNlja3tH3x29MHp7n0KzOi9CE4r92JcRJmboEmQbLLNHFd8T3Su6YZ9rYLYnNQAALSn6/Qb8bJb/wuhnQm+deb4FX4GuT5dgpkCQPZL42ejLQ28pp4zOAAB0YKafnWx3VPT8PrP84vr9agW/0fsJ0hMIa/p0B7Lv/VuijxUGAKA99FvTzx4lOyZ6Ueg9atZvlq/gt7dDkPYQlA9Wyp7ayJYK3tonDKQACQCoMUv7DNZZq/f1edG/L/TfuDfoWXu2ew9B+v4Xf98DeRg4OrrtHEIlAGBM9JuhPTz0doF/JfRavTMVfRv3hIHiUkHx92VPfHw1v5Ye3icMWCIAgJrM9v8m9B7XuylMP3xH0ediwsBvo5+MPr3PdagrAAAjoFz0sxfKvDH0ntFX9DmMZYLynoHsrIFsL8mWs1ybAIBF0q/Nn71Y5+ToLWF6i3/QEbvkQsPA6jD9aYLs6ZHP9ukKWB4AgEVSbvNvFH116B3/Wi76E8HufY7m8cJ+SwTfDr3Npn9Zun4tDwDAPAt/ceDcOvpP0V+F6c/qrw5a/KxPV+A30fdFdxAEAGDulFunu0RPDb2XvhTX9ge9XIesS1cgO2fic9EnF65nZwoAQJ/CXyRbU/1KmLr5ymyfTeoKFH/9vOgzZ7nmAaDThf+A6MVh+vq+tX028eTB8j6BK/NrXBAAoPDnHBimbuxbE6aurZrts8nLA6l7lX796tB7xbQgAKAzZBuhlsxQ+CcUfob2Lg+k/Svp17OzKw4r3A/2CABoZeEv7oLet0/hn1D42dEgkHUEDpjhfgGAxlGe0ewZvUThpyDQNwhcFt2ncL84UAhAIykW/r+KnhOmvnpX4acg0D8IZPfKrgPuJQBoROFfHj0xuirY3EfOFgSKmwWzQPCpMPV9A4IAgFpSXLdcP/rOMPWcfoWfnHsQKL5vILuXluX31pJgfwCAmlBe58929l9bGMBWKfzkooPAz8LURwftDwAwVoqFf6foV8P0k/sUfnLhQaB8suD5obenpt89CAAjmfWnNuSG0fdH7w9Td/aXD0QxsJMLO0yofF9lXbXj83svBI8NAhjDrH+/vDVpnZ8c/bLAz8PU8wPWNTwBGAbFU/y2in4xWOcn6xAEzoxu06c7BwCLpjizeF3o7UwuPs+v8JOjDwITYXKfzW3RN+gGABjGrH/H6EVm/WTtugGrCr+WvU3zcboBAKqa9R8dvavPrEPhJ+v3tMA90WN0AwDMl+KsYbsw9ex+m/zI5uwNyO7dHfp08wBgGsUd/q+M3hE80082uRuwMvraAfc4AEwZGDYJvV3FZv1kc0PA2lI34MvRTYUAAEWKm4SeE705WOsn29QNSE/qZPf2cwfc+wA6RnFz0PuCHf5kF54UOH7AGACgYy3/bKPfN8LUd5Mr/GQ7zw1IH38r9B7tTWOBDYJAx1r+2dvFihv9zPrJ7nQDsnv/YEsCQLdm/SFvA/bbLKTwk+0NAv3u+Q8PGCMAtIS01rc8ellwlC9pSWByo+/l0S1KYwWAhlM82Gfv6O+DjX6kEDB9SeB30b0KywH2BQANprimd0SYustfy58UBMpjQvZzRw4YQwA0hOJa3omFG13Ln+SgJYH0858eMJYAqDlpDS871e/K4GAfkvM/OOiKfAwpjikAGlD8nxi9IVjvJ7nwfQG/jD5JCADqTXGz3/PC5Ot7rfeTXMy+gLuj++Vji82BQA2Lf+KNYfqzvmb9JBfSDSieF3DUgDEHwJgo7tItHu5jsx/JqjcHfnDA2ANgxBR3534uTG7isdmPZNWbA9O48vkBYxCAERf/DaIXBef5kxz+5sC0JHBJdEMhABg9aTfuptEfhP47/Q1eJKveHFh8QuD7wWOCwFiK/7bRnwU7/UmO7wmBn0a3EQKA0RX/naM3helHeCr+JEe1JJDGnhujOwkBwPCL/1Oityr+JGsUAm6J7iYEAMMr/k8Nkwf8eMafZJ3OCrgz+jQhAKi++O8ZeidyKf4k6xoC7g29144LAUBFxf8Z0fsUf5INCAEPRJ8pBADVFP8HFX+SDQoBDwoBwOLb/mb+JJvaCdhLCADmX/yzDX/W/Ek2OQTcE91dCADmXvyfHHo7ahV/km14OuDJQgAwe/HPDvm5VfEn2aIQkI1pDgsC+pBeppEd73uT4k+yhSEgOzFwm9KYByj+kY3D9LP9FX+SbToxMHt3wKZCABDC0vzH7JW+1yj+JDsQAr6fj3nFMRDoFEsKH1+k+JPsUAi4eMBYCHSq+H9W8SfZwRDwOSEAXW79fyhMbpJZU7hRDBgk2xgC0o9pY+DxlgLQJdIjMG/Kb4DVij/JDoaA1fnHR5fGRqDVxX/fwg2xWvEn2cEQsLrwc/sJAWgz6ZGXJ0Tvyi/6CcWfZIdDQBoDs2PPn1QaK4FWkNa3Non+Ijjoh6QAUD4o6Of5GFkcM4FGU9zdemWw458kBz0ZcMWAsRNo9Oz/U4o/Sc4aAj6lC4A2kDa0HFFY77LjnyT7PxmQ9gQcWRpDgUaRNrLsHabvelX8SXLmJwP2Lo2lQKPa/ltEfx/s+CfJ+T4Z8LvocssBaCqXBev+rK492iSFXVaxH+ByZQRNbP1/SPFnxSHA18wuhoDjLQWgCaQNKwcHx/yy2kKaDYYro3fW3JWl0Ot7yCqOCz64NMYCtVz33zF6h3V/VmQ6JOWsfPB7RPRhNfUR+dd4VulrJxe7H+D26PalsRaoHd8M00/6c0NzsQHg9AbdA6cLAKwwBKTr6JvKC+pIWps6Ljjml8MJAGcUZj91PCFtSWFmdoYAwIoCQHk/wPtLYy5Qi+L/d30uWsWfVQeAOh+PukQA4JC6AMVx9TlCAOo04G0avTlY96cAIABw2PsBbgqTLw3yvgCMjdTyPDNMf+TPjUsBwPeP1T8Nk/345dIYDIyU9DjKa8LUc/6t+1MAEAA4nP0AxfcFvLo0FgMjnfnvECYf+XPOPwUAAYCje19ANvZ6NBBjG+guCR75owAgAHBcjwZe0oD7Ai1s/b8peOSPAoAAwHEtBaTr642WAjDK1v+jo3dp/VMAEAA49qWAu/Ix2VIARjLAXaj1TwFAAGBtlgIutBSAUbT+jyhceHb9UwAQAFiPpYDD8+vPAUEYysC2dfQ2rX8KAAIAa7cUkI3NW+kEoGrKZ5w78IcCgADA+h0Q9KXSmA0sitROen4hbWr9UwAQAFivpYDUCXi+pQBUOaBtGL0+OOufAoAAwLq/K+C6fMy2FIBKZv/Ha/1TABAA2JilgON0AbAY0hrSE6MP9mk3uekoAAgArN9SQPbfD0R3Lo3lwLwDwFeDZ/4pAAgAbNrZAOcJAFhM6/+QwtqSmT8FAAGAzegEpP0AB1oKwEJYFv1ZsPGPAoAAwKZuCPxxdH3lDPOd/f+D1j8FAAGAjV8KeIcuAOYzgG0RvTVMf+7fzUUBQABgM5YB0rkAt0SXN+D+QU1m/580+6cAIACwNV2AE3UBMBNpp+hflwq/2T8FAAGAzX4sMDsf4EmlsR6YFgBWmP1TABAA2LouwFkCAGYq/nub+VMAEADY2k7A04UADBq4LjX7pwAgALC1XYBLGnAfYYSkTSH7Bbv+KQAIAGz7UwH7lsZ+IFwdHPpDAUAAYNsPB/q2codiAnTkLwUAAYDdOSL4IF0AJL5j9k8BQABgZ7oAVyl7Zv8ZB5v9UwAQANi5LoAXBeHPSdDsnwKAAEB7AdCh2f+BZv8UAAQAdrYL8AJdgO6RBqorzf4pAAgA7Oy5AJc14L5ChaQToPYJnvunACAAsOunA+5Tqg3oQAA4Nzj1jwKAAMCudwFWCADdKv5PLlwEZv8UAAQAdrMLkD7eTQhoP2mjx78VBigBgAKAAMBuBoB0jZ5aqhFoGWlw2j56l9k/BQABgEJA/vGd0W0bcI9hkbP/95r9UwAQACgAlLoA79EFaDd/Ef1VmNz97yagACAAsNumWvCrvEagpbP/vw8O/qEAIACQ/Q8GerUuQHspH/tLCgACAJlqwreUyXaRHuvYI/Q/BIIUAAQA6gKkmrBHqXagBe3/U4LNfxQABABy5s2AJ1sGaAdpQNoiemuYevSvC58CgABAphCQNgPeEt28Afcb5jj7P8bsnwKAAEDOsQvwZl2A9nBNsPmPAoAAQM5tM+B3lc1mY/MfBQABgFzoZsCnlWoJGtj+/4T2PwUAAYCc5zLAiZYBms3DozcHJ/9RABAAyPmdDHhT9GHKaHNn/y8NTv6jACAAkAs7GfDFugDNIw1EKwxEFAAEAHKeISBdu2fbB9DM4r91dGUp1bm4KQAIAORcugBr8xqyVQPuPZRaNUcGm/8oAAgA5OKWAd5gGaB5fN0gRAFAACAXee9dogPQrPb/46L3a/9TABAAyEUuA9wXfYwQ0Jz2/1u1/ykACADkIgNAuobfYhmgOVwWHP1LAUAAIKu5/y5VVpvR/t8xeq/2PwUAAYCsaBngnuj2lgHq3/4/WvufAoAAQFa8DHCkZYD6Dz7nG3woAAgAZMX34Nd0AOo98CyP3qH9TwFAACArXgbIasvmQkB92/8vCZOb/wQACgACAFlFAEgvCHqRZYD6kc5pPs3AQwFAACArDgHpWv5MqeagJmwY/VX+TVpt9k8BQAAgKwoAqQPwy+gGym39Zv97l1o2AgAFAAGArHIfQObTdQHqw7r5j+8JUx//c+FSABAAyKqXAd5dqj2oAZcHp/9RABAAyOGYasvXldt6DTjZ438rg8f/KAAIAKTHATtBehTj0GDzHwUAAYAczWbAg0s1CGMMACfk35RVAgAFAAGAHFIAWJV//HEBoD58P0w9AMjFSgFAACCHtQ/ge8puPQabbYO3/1EAEADI0e0DyN4OuLV9AONv/x9m/Z8CgABAjngfwKGWAcYfAD5q/Z8CgABAjngfwEcEgPFzVfD8PwUAAYAc7T6Abym/4x1oNgue/6cAIACQo98HkNWeR9kHMHrSGczPUfwpAAgA5JhCwLNLNQkjIJ3B/M7CQCMAUAAQAMhRBIB0bb+jVJMwwoHmywYaCgACADmm+/JMSwDjYb3o9cEjgBQABAByPI8CXpfXIox4kHlM9AF7ACgACADkmPYAZDXo0boAoyM9c3mw2T8FAAGAHHMX4MBSbcIQSZst/ik4AIgCgABAjvdAoHeVahNGMMjYAEgBQAAg3ZsdXAb4sSUAjnHtL7vuJkawB0UAmP37sMZeII5xCeBH2v+jHWC2DL23MbnpOY7iXzx2etghQACY2/dhtfGAYxoP7o4u1wUYPum0pX1K3wgXJEd1s6ei9ofo/y793DCKjwAwc/G/o/CxEMBRjwvp471KNQpDIG2yOLwwCLjROerif1909+iy6A/D5GbUYRQfAWDw9+G26BOir9IJ4JjGhhQ+X1dYnsYQ1/4z/jl4AoDjKf73Rp9euCYfHv3BEEOAAND/+3Br9L8U/uzXCwEcw/iQ7vkPlyapGOIAc15hMHCDcxzFf91CIH34EDsBXQ8AsxX/9QptVyGA43oSYIU9AKNbBvhJ8AQAx1v8y12pRxb2BFQZArocAGYr/v2+D0IAx/EkwLVm/6MZXDaN3hlsAOT4i3+5+Gwc/T8Vh4CuBoD5FH8hgOPeCLgyv/91AYZEavPtFqY+euUi5DiLf7n4bFJxCOhiAFhI8RcCOM4AkF2nu5RqFSok3diHaP+zZsW/Xwj4UUUhoGsBYDHFXwjgOJcBDipdf6h47T/jbcEGQNav+JeLz2Zh8rTKxYSALgWAKoq/EMBRjx3pWn3rAq5TzPOGPqk0qJJ1Kf7la3Xz6E8XGQK6EgCqLP7l78PhQgCHaLq3T9ABGP7gskIHgDUu/lWHgC4EgGEUf50AjroDcHYD7tHGh4DvBqcAst7Fv1x8li8iBLQ9AAyz+AsBHOVpgFcr0cNlg+iNpRuYrGPxLxefLaLXLyAEtDkAjKL4CwEctuk6+k3oHQ+OIQ0s2Uyq+BZAFx/rXPzLxWer6M/nGQLaGgBGWfyFAI7iUcDsrYCbWQaoHmcAsKnFv1x8tp5nCGhjABhH8RcCOIqzAHYt1SxUGAD2c6OygcU/lP6MbaO/mGMIaFsAGGfxL4cATwew6rFlXwFgeDfsq4MNgGxm8e8XAn49hxDQpgBQh+KvE8BhbgR8Zen6QoWD5tuDRwDZ3OJfvp53CL2NQzOFgLYEgDoVfyGAw3oU8NgxXs+tDwAfDA4BYrOL/3xDQBsCQB2LvxDAKseZdO9+QAConrSecqoOAFtQ/MshYMcw+XhrOQQ0PQDUufgLAay6A3ByqWahwoHlXAGALSn+5RDw6OjNfWbObQgAdS7+5RBgYyAXEwDOacB92liuDJObAF14bHrxL4eAx0R/W+oEtGEJoO7FXyeAizXVpMuV6eEtA/xQAGDLin85BDw++rvC36HpAaApxV8IYBUB4Ptm/8Nh/egNwTHAbF/x7xcCfp//He5vcAC4v2HFXwjgYo8Dvj6vVaiYjaJ/FADY0uI/UwhoagBoYvEXAriYAPCHvFah4kFl09A7a9kxwGxr8S+HgJ0LywFfaFAA+EL+Nf+xocVfCOBCjwO+K7pJA+7VxgWA7aP3CQBsefEvh4Cdog9Gz8v/u86PF6Wv7bz8+/HEFnwfPB3A+QSArEZtJwBUHwDSQCgAsO3FvxwCsr/TRxv0dX8s+owWfR90AjjXAPBAvnwnAFQ8q9g1TH0+2kXnhivuvm1b8S9f/8tCMw4XWRom34nepsNQZusEuCeNR2kysksLr/+xD4B7FP6R3XAsDsBZ222vFhb/0OCZRBtnPykEvKHPwE8BIP24uwBQfQB4tpYbB3QA9sivkfXcLhgy6Ro7qhBCjUcs1qVnCQDVB4D9BQAOuOGOa/nME/Uai7Jr7N8FAA4Yj/YVAKpvux0gAHBAFyDzo0IARlD8M84vdJ+MRSzXpReUahcqCAAHS9wM/dfc0kbAfxECMOTi/7Uw9V0N9gEwXQNpT9JBAkD1AeCFAgCFANSk+NuQzEEB4FABoPoA8CIBgEIAFH/WPAC8SACoPgC8VADgPELAx4QAKP4cQwB4qQAgAFAIgOJPAQCWACgEQPGnJQAsJADYBMiFhoCPCwFQ/DmiAGAT4BACgMcAuZgQcJIQAMWfIwgAHgMcQgBwEBAXGwI+IQRA8eeQxhsHAQ3x5nQUMIUAKP50FHAHb1AvA2JVIeCTQgAUfw4pAHgZ0BBuUq8DphAAxZ9eB9zBG3XXwuDt5qQQAMWfdRtfHoruIgBURxqYd44+6AalEADFnzUdWx6IPt54Un0A2D56n5uUQgAqKP7nK/4cwriS1ajtjCXVB4BNo3e7UTmkEPApIUDxJxc5ptwV3cQ4Uj0bRf8YJg8DctFRCIC2P+tgqkn/mdcqVMz60RsEAAoBUPxZ0wBwXV6rMIQb+Qf5P/KEC45DDAGfFgIUf3IeprHjGmPG8LhCAOCIQsDJQoDiT84zAFzm1queNACfGyaftXQDc1gh4KH8438VAhpf/G344yjGjjRmnGO8GN4NfYoAwBGHgM8IAWb+5Cw+VOocOgSoQtbNfzy+zw1NCgFQ/DnOMWNV/vEHSjULFQaAt+kAcEwh4BQhQPEnZ1kCOFYAqJ70XuVXhckNF25oCgFQ/FmHsSJtAnxFqWahwht8v8I/uJuaQgBs+GMdxol0ne3b57pERTf5bsEbASkEQPFn/cYIbwIcEmmQ3Tx6j5ubNQgBpwoB2v5k4VrL3lWzmTFheGwQvTE4DphCgOKv+LNexwD/OrrM7TlcvhNsBGQ9Q4C2n+LP7m4AvMrtOfxlgHOCRwFZrxBwmhCg+LPzjwCerRs4PNJjFScVbnwXIOsSAj4rBIys+NvwxzqZatEJpVqFCkkHKxyrA8CahoDPCwFm/uxsB+CYUq3CEDoAh4TJjRdufAoBir9rkeMcA9ImwIN0AIY/EDgLgEKA4u/+pzMAOkTaWLFJ9E4DAIUAxZ+syb2/MrpxqVZhSHsBfmIZgA0IAV8QAhR/dqL9f63W/+i6AOcFGwEpBCj+5HhN9/kKs//hkxLWR/oMDKQQoPiTo7zX0yOAHyp0qDHkAHB4cBogmxUCvigEKP5s7SmAryvVKAxxkHhGn8GWFAIUf3LU93jmXu7r0e0B2DJMfSugAYJCQPOLvxP+2KR7u/gWwOX2AIx2KeDa4EkANjMEfEkIUPzZmicAfqT1P/ouwJlh6i5MUgjQ9idH/QTA6cL86Ei7LN8VPAnAZoeAMzsaAhR/tukJgH8s1SYMuf2fcZAlAAoBij855j0AB5RqE0awBPDo6APBRkA2PwR8uSMhQPFn24p/VoN2LNUmjID1otfrAlAIUPzJEd+/aQPgz/JahDF0AWwEpBCg+JPj2gB4RoeW72pD2mzx34J3ArBdIeDfWxYCFH+28b5N9+s7SjUJIxxUnmMPAIUAxZ8c0x6AZ+kAjG8JYLPQew+zEEAhQPEnR7n+f0d001JNwoi5Kv9mTLg4KQTUrvg74Y9tM9Wabyq/4yM9c/nR4EAgtjcEfKVhIcDMn105AOgjpVqEMQSAw4JHASkEKP7kaJcADhEAxr8PYJvgzYAUAhR/cnSb/7Kas7X1/3pwjX0A7EAIOLumIUDxZ9fW/7+r7NZnGeDj9gFQCBh78bfhj11Z//+49n99AsAh9gGwAyEgDT4rahICzPzZtfZ/Wv8/WACozz6A5cF5AOxWCDh3zCFA8WdX1/+z5/83t/5fLy6zD4BCgOJPDnn9/1Lltj6kM5jfk39zvBeAQoDiT1Z976V9OP9Uqj2owTrk3qVWjYGIQsDwir8Nf+xi+z9zzxrsv0GJDaK/DDYDspsh4LwhhwAzfzr8J4SfR5cpt/XsApxqGYBCQOUhQPGn9n/v45PN/utHehTjxaUOgIGJQoDiT1b1+N9hpZqDGlB8HPCO4HFAdjsEfLWiEKD40/01eZ3fHjz+V/sQcH5hGcAFTCFgYSHAhj9yai35muJf/2WAo0r7AAxU7GoI+I8FhgAzf3KyfqTn/4/Q/q9/B2CH6L2WASgE/Pnj8+cZAhR/cnr9yN7+t50OQDP4umUACgH/PwRcMMcQoPiT/dv/lyj+zVkGOMYyAIWAeYUAxZ+cPvtPAeDN2v/NWQZ4bPR+ywAUAqYtByzpU/Bt+CMHt//viz5GB6BZIeBSywA0iE0LAReWQoCZPzlz+/9ixb95ywBHWAYgZw0Bij858+7/w7X/m9cB2Dq60jIA2TcEXFS4Zy5Q/Mm+7f/sYLktdQCaGQJWWAYgp4WAdD9kbxE8p9QpU/zpXpm8R87qs08GDVkGeEn+TZzQBSCnXP8TAz52j9Dsf/KeeLH2f3N5WPTm/Bu52sVNTgnCE4WBTkAmp9aKG/MaggZ3AU4KNgOSg5YDtP3J/s/+n2D231zSms3upW+ugY4kOSgApBrxVOv/7eB7fdY6SZJc22c/zHeVzfYsA7zFMgBJco7t/zdp/zef9Djg8uithQ0eAgBJshgA0ua/W6Kbl2oIGt4F+IwuAElyltn/yWb/7SFt4Ngj2AxIkpx589/updqBlvDtYDNg0x9ZI5ugRyubufnvW8pke5cBXhOcDNjkALCabIACQHNP/nu19n97+Yvor4KTAZt8hC3pmuUwTv77ZXQjZbLdXYD3BpsBm9iauyr6wujLoy8ja+jL82v0KkuNjdz8926z//aSHufYLnpncP55U0w35+ddwmgIny9du6x3AFib14RtSrUCLe0CnKYL0LgAcGb+vVsv/z6SdXO9/Bo9UwBo3Oz/FLP/9pMe69gt9H8hCusbAM6QztGQLuMZAkCjZv/ZHoBdSjUCLQ8BK0o3qRAgAAACQHc2aKbvz9mKf5PhIqUAAA3gSURBVPcCwDOCg4EEAEAA6PrBP3sLAN28US/XBRAAAAGgs7P/rxtXukfa6PGC4GAgAQAQALp68M/zSzUBHaP8zK4QIAAAAkB7Z/9prP+2S1YX4CBdAAEAEAA6N/s/wOwfGVfrAggAgABg9o/udQEO0QUQAAABoDOz/wPN/lHEXgABABAA2j/798pfTOsC7BsmT4XSBRAAAAGgXbP/9Na/55n9o9+Ne3FwLoAAAAgAbX3u/yLjCMqkE6D2Ck4HFAAAAaCtp/7tWRrzgSkXxNm6AAIAIAC0bvb/FcUfswWAvyoVf50AAQAQAJo9838w+kQBADORNoWcpAsgAAACQGtm/yeUxnhg4A28PPqn4KkAAQAQAJpa/NOu/2ws39z4gbmwbv7jO3QBBABAAGj87P/tZv+YL8uiPw0OBxIAAAGgqYf+XBtdz6WJ+ZCS4oHBEcECACAANPXQHy/8wYJIO0XPC5YCBABAAGha639FaSwH5h0Ado4+EDwWKAAAAkBTZv73R3cSALAYUtvouPyiWqULIAAAAkBtZ/9pjH5faQwHFnxDbxC9LtgQKAAAAkDdN/5lm7eXGS9QZRdg/zD9XAAhQAAABIB6nPiX2v/7mv2jStIa0peCDYECACAA1LX1/4XSmA1UdmNvFb0tTD1lSggQAAABYPwn/t0S3cI4gWGQTgh8feHmthQgAAACwHhb/2nt/3X5v7/WP4Z6g18QLAUIAIAAUJdn/s83PmDYpHWlHaN3BksBAgAgAIy79Z+NxTuUxmhgKKSlgKODpQABABAAxtX6T/++R5XGZmAkN/rFwVKAAAAIAONq/V9sXMCoSW2m7aO3B0sBAgAgAIy69Z+NvduVxmRgJKR206vC9DcGCgECAAQAAWC4u/5fWRqLgbF0AtIN710BAgAEAAFg+Af+nGHmj7rc8BtHbwreFSAAwHggAAz7rP8b8zHXeICxkw6deE6pVSUECAAQANzD1RT/4rj67NLYC9QiBLw/TH8qQAioNgAsFQJQ0+K/VAAYyrq/1/yiMXwjeDRwGAHgdJcWGsLpAsBQHvn7hksLdSWl/+xEqvRooP0A1QWAs0Jvt+8jog8ja+gj8mv0LAGg8nX/7CVsHvlDrUmPoxwY7AcYxu7flaF37CdZV1cGTwMNY93/oNIYC9SStDZ1fJj+aKABYXEDAuma7d66/3GlsRVoBJcKAZXPBsgmKARUU/wvVUbQNNIa1ebR3wb7AUhyvuv+N+djqHV/NHYpYM8weXa19wWQ5Ozn/K/Ox06tfzSWtGHl8DD1fQFCAElOX+ZLs/83lMZQoNHLAZ8I9gOQ5Gzr/idp+6MtFE+tu1wIIMmBxf/yAWMn0PguQPYCixuC44JJKv7lk/5uCJMv+TH7R6tIG1l2Dr0DQzwZQNKO/96Pd0WfUBorgVaRNrQ8t3AjeDKAZJd3/K/Nx8TiGAm0OgQcWbgJPBlAsms7/lMAOFLxR5dI61vHFdbAhACSXSn+ad3//aUxEegUpwVPBpDs3o7/zxr+0VWKj7hcIASQ7FDxv2jAWAh0bilgg+j3hACSHSj+10SXaf0Dk4+8PDL6YyGAZIuL/0+im5TGPkAIiGwV/U1wUBDJ9h308+vo1oo/MJ30CMzjorcIASRbVPz/FH18aawD0CcE7BZdKQSQbEHxz8ayXRV/YO4h4KnRu4UAkg0u/vfkY5niD8wzBOwRvU8IINnA4p+NXXsq/sDCQ8Azog8IASQbVPyzMWsfxR9YfAjYO3qvEECyAcX/fsUfqDYE7B56r8wUAkjWec1f2x8YQgj4r9E7gsOCSNZzt//TFH9geCEge5zmj0IAyRoU/zQG/Sl41A8YSQh4bPSXQgDJGhT/G4NDfoCRhoAtw/R3B6wVAkgOsfivDdPP9t9G8QdGHwKyFwgV3yK4RgggOcTiv6ZQ/LOxZxPFHxg96WUa2auELwiTm3HWWBIgOYSW/5owueHvwjD5Sl8v9gHGGAIyTstvzNW5QgDJqop/cVz5twFjEIARs7Tw8fsLN++EEECyguI/Ufj54weMPQDGxJLCx0cWblYHBpGs4hn/tfnY0m/MAVCjbsBzo3cGTwiQXPxO/2wseV5hjFH8gZqSduPuHL0+9H9CQBAgOdNmv1T8s/NGnlAaWwA0IARkjwleHibX8WwOJDnbZr+05p+NHR7zAxpIcXfuicHmQJJz3+z36QFjCYCGUNyl+/pCB8C+AJL91vuzn3vDgDEEQMNYUkjwe0R/G+wLIM36px/uc3OYfJWvzX5Ai0hreJtHLync/JYEyO62/NPHl0Y3K40VAFpEcS3vuDD9vABLAmQ3Wv7Fe/4DA8YIAC2juKZ3QPS24D0CZBcf8bs9euCAsQFAB7oB20avtCRAdqrl/83ojmb9gBCQ8T/C1B3BugFk+2b95fP8rfcDlgT+zN9GbwwODiLbeLBPdm8/W8sfwKBuwMbRL4apm4V0A8hmFf7yRr8zw+Spflr+AGZcEnhF6G0SSgOJbgDZnFl/Kv7ZPfyaAfc4AExhSaE1uE30It0AsnGH+mReHN2+0O53sA+AeXcDjoquDPYGkE2Y9Wev731z4f610Q/AvCnOGrLHBb8aPClA1nnWf0GYfLyv2M0DgEV3A14bvTVM32EsBJCjf64/deNuiR5u1g9g2N2ALaKfK3UDLAuQ45n1nx7d0qwfwCi7AftGfxxsEiTHUfivi+5n1g9glBRfMbws+r7o/TMsCwgC5OKe6Z8o3FcPht4LfJb16c4BwMi7ATtFV5S6AZYFyOp292eeF33CgHsQAMbWDcjYP/p/g2UBssp2/0/D1Df3rWPWD6AuLA2Tm4/Wi749+gdBgFxU4b8lv5fW73OfAUCtKHYDHhX9WOitWRYHN0GA7F/41xQC8ydC74mbfvcWANSW4o7kbM3yrMLAlzYKCgJU+Kc+z782v1f+WuEH0GTK+wP2jF4Ypu9sFgTY1cI/Eaae3f+MUuG3zg+g0ZTXLf82+g0dASr8f/aq6PNmuF8AoBVBoDijeX70f5Y6AvYIsCut/qujB5c6Zgo/gFZTXtPcvxQEihuiHCbEphb+NYVreabC3++eAIBOBYGsI3BxaTB9qM9MSpFhXQv/2lLhL/76lfk1rvADwIBB8OnRr4Sp66RpFmV5gHVu85dP7st+7tzoPgo/AMwcBIp7BLJHoT4TvTP0f3LA8gDr0uYvb+y7K3pa9MmF63mJwg8AM1PeBb119F3Rn4fp+wR0BTju2X7xmvt16L0ca4cZrmcAwByCQHHGtGH0FdFvh+n7BCaCvQIc3Wy/vL7/rejfR/+y1NFS+AFgEfRrnT41+q/RP/UJA6uDJQIOf7Z/e+i1+XcvXZsO8AGAIVAOAtn7Bo6Ofq80gBfPFLBEwIUU/TWF7lLx930nekx0y1muTQDAEFjaZ8D9m9B7+dCvhQEuouj3a/H/NvrJ6B59rkNtfgAYA/2WB7J12BdHvxx6bdryEoEwoOjPpehnT5+cm19LD+sz29fmB4AadwWy16m+NnpB9L5ZOgP2DHRnI9+aQhgs/r77o5dFj4pu26fom+0DQM3pN1g/Jvrm6EXRu0sDf7bJa1WYuoHQ0wTtOpkvbeQrr+lnwfCK6Fvya2S2DhMAoAGkAbzcrt0m+rro18L0ZYLi7FAgaG7BH9TaTzv4/yN6ZHTHAQFSix8AWhQG1u0zsG8WPST66egNAwrLqjD9BEKBoJ4FP3Vyyr8/2xx6avQl0eWKPgDoDBRZP/TeRZCdPHhh9LY+hWR1IRD06xAIBaPZuDdbwV8Zeq39d0f3jG4wx2sAANCxMNBvrXfT6H7Rfwm9swbuHlCc+i0ZCAXVzu5Xh6lPcZT/n3ui3w29R0EPGTDLX6roAwAGkRWJdQf8Wnb4y0HRD4fe8a93zFDAUrEa9PIioaD/7vxisR80u08z/G9GPxJ6bf1tB3zP7N4HAFTaHcjYOPrM6NujX4r+OEx/3LD86OGqMPORxW3rGAxq35cL/UMzfI4HQu9lUGdF/yH6d6G3d2NQwTfLBwCMNBBknYPtovtH/zEPBT8MvdfDrpmlSBYL4cSAgFC3DsKaOczkJ0p/t9WzfM57o9dGz4y+N3po6D2et76CDwCoUyBISwZLZ/g92Ww1O0b2NdEPhd4Jc1mRuyMvjHMptOVCmoJCCgszBYaqXF0o6hOFr6MYXOYSTLLPcWf+b7Ai9JZUjog+K7rVDAFrSeHfWsEHANSySzBTKEjdgkdGn5R3DLKXGn08enb06uhvQm9j20OhunX21bNY1WmID+Vf+2/yv0v2dzohemzobdB7Sui9yGmdWf4d1zW7BwC0oVMwn3b1srxzsGt03+gr8wL6gejJ0XOil0e/H70u+p+h95RCtgfhgTB4t/x8gsND+efKPudd+Z9xXf5nXpZ/DSfnX9Ox+de4b/41b5b/Hebyb7OumT0AoGvBoLiMsJDZbvb7s/XxjaKbhN4ehMdHdwm9d9VnbfX98i7DIbmHRV+We1jh5/fPf++z8v93l/xzbZd/7o3yP2shX+M6hb+jQg8AwBw6B0sLBbROM+VieCkWdwUeAIAxdBSKwaEYIOZi+f8rfk4AAAAAAAAAAAAAAAAAAAAAAAAAAAAAAAAAAAAAAAAAAAAAAAAAAAAAAAAAAAAAAAAAAAAAAAAAAAAAAAAAAAAAAAAAAAAAAAAAAAAAAAAAAAAAAAAAAAAAAAAAAAAAAAAAAAAAAAAAAAAAAAAAAAAAAAAAAAAAAACMgf8Hh3KKVd2zUXIAAAAASUVORK5CYII=;" vertex="1" parent="oHTOzMjrjBwwR5K5Gdxc-18">
          <mxGeometry x="-1.3626343675417658" width="135.92233009708738" height="135.92233009708738" as="geometry" />
        </mxCell>
        <mxCell id="oHTOzMjrjBwwR5K5Gdxc-21" value="" style="triangle;whiteSpace=wrap;html=1;strokeColor=none;" vertex="1" parent="oHTOzMjrjBwwR5K5Gdxc-18">
          <mxGeometry x="86.6512141537823" y="83.93203883495147" width="20.634782608695662" height="23.39223300970874" as="geometry" />
        </mxCell>
        <mxCell id="oHTOzMjrjBwwR5K5Gdxc-22" value="Text" style="text;html=1;strokeColor=none;fillColor=none;align=center;verticalAlign=middle;whiteSpace=wrap;rounded=0;" vertex="1" parent="1">
          <mxGeometry x="660" y="320" width="40" height="20" as="geometry" />
        </mxCell>
        <mxCell id="oHTOzMjrjBwwR5K5Gdxc-23" value="&lt;font size=&quot;1&quot; data-font-src=&quot;https://fonts.googleapis.com/css?family=benne&quot; face=&quot;Tahoma&quot;&gt;&lt;span style=&quot;font-size: 33px&quot;&gt;&lt;b&gt;Chrome Media Grabber&lt;/b&gt;&lt;/span&gt;&lt;/font&gt;" style="text;html=1;strokeColor=none;fillColor=none;align=center;verticalAlign=middle;whiteSpace=wrap;rounded=0;" vertex="1" parent="1">
          <mxGeometry x="150" y="105" width="480" height="20" as="geometry" />
        </mxCell>
        <mxCell id="oHTOzMjrjBwwR5K5Gdxc-25" value="" style="shape=image;verticalLabelPosition=bottom;labelBackgroundColor=#ffffff;verticalAlign=top;aspect=fixed;imageAspect=0;image=data:image/png,iVBORw0KGgoAAAANSUhEUgAAA9QAAAPWCAYAAAABHNCPAAAABGdBTUEAALGPC/xhBQAAAAFzUkdCAK7OHOkAAAAgY0hSTQAAeiYAAICEAAD6AAAAgOgAAHUwAADqYAAAOpgAABdwnLpRPAAAAAZiS0dEAP8A/wD/oL2nkwAAAAlwSFlzAAAASAAAAEgARslrPgAAgABJREFUeNrs3Xd8TmfjBvDrPNkRBDFCQmKEoFZIELN2bbFn0Ro1W4q2quiiRVHV1l61Z4zYM3bsEYmZEDtkyE6e+/dH+/rRWiHJfcb1/Xzuz9vi1SvJOfc513OfoQghQERERM+Li4sTycnJSEtLQ0xMzP9+DcnJyTCbzYiOjn7u114mISEBiYmJL/39lJQUPHny5K0yWllZwcHB4bV/zsLCAjly5PjPr5tMJuTMmRMAYGNjA3t7ewCAg4MDrKysAAC5cuV69r+lZPo3noiISEMsZQcgIiJ6GykpKeLRo0d4dkRFRSE+Ph5RUVGIi4tDQkICYmJiEBsbi/j4eMTFxeHJkydISUl5rii/6NfohQQA2Nvbw8bGBgCQM2dOmEymp6Xd3t4etra2cHR0hJ2dHWxtbZErVy7Y2dnB3t4euXLlQq5cueDo6Pj0n//5d5Z1IiLSHIUr1EREpDapqani7NmzCA0NRUREBG7evIlbt24hIiICt2/fxuPHjxEbGys7JmUgk8mE/Pnzo1ChQihYsCBcXV3h7OyMUqVKoXLlyihSpAgLNxERqQ4LNRERqcLNmzfF3LlzsWvXLpw8eRLx8fGyI5GK5M2bF40aNULfvn1Ro0YNlmsiIlIFFmoiIpLGbDaLrVu34o8//sCWLVuQlpYmOxJpQNmyZdGvXz/06NGD93UTEZFULNRERCTFzp07xbBhw3D27FnZUUij8uTJg88//xyDBw+GnZ0dizUREWU5FmoiIspS+/fvF6NGjcLhw4dlRyGdKFSoEL7++mt89NFHsLCwYLEmIqIsw0JNRERZ4uHDh2Lw4MFYtmyZ7CikUz4+PpgzZw7Kli3LUk1ERFnCJDsAERHp3+rVq0XZsmVZpilTHT16FF5eXhg7dqxITk7migEREWU6rlATEVGmiYmJER9//DFWrlwpOwoZjLe3N9asWQMXFxeuVhMRUaZhoSYiokxx5coV0apVK1y4cEF2FDIoJycnLFu2DPXr12epJiKiTMFLvomIKMNt2bJFVKlShWWapHr48CGaNGmC3377jasHRESUKVioiYgoQ82YMUM0b94cUVFRsqMQITU1FQMHDsSPP/7IUk1ERBmOhZqIiDLMxIkTxaBBg2A2m2VHIXrOl19+iVGjRrFUExFRhmKhJiKiDDF69GgxatQo2TGIXmrixIkYPXo0SzUREWUYPpSMiIje2VdffSV++OEH2TGI3sjs2bPx0Ucf8UFlRET0zlioiYjoncyZM0d8/PHHsmMQvTErKyts3rwZDRo0YKkmIqJ3wkJNRERvbfPmzaJVq1ZITU2VHYUoXXLmzIkjR46gVKlSLNVERPTWWKiJiOitnD59WtSsWRNPnjyRHYXorVSsWBFHjhyBtbU1SzUREb0VPpSMiIjSLS4uTnTq1IllmjTt1KlTGD16tOwYRESkYSzURESUbgMHDsSlS5dkxyB6Z5MnT8auXbt4uR4REb0VXvJNRETpsmzZMtG5c2fZMYgyjJubGy5evAg7Ozte+k1EROnCFWoiInpj9+/fF5988onsGEQZ6saNG/j5559lxyAiIg3iCjUREb2xjz76SMydO1d2DKIMZ2dnh4sXL8LNzY2r1ERE9Ma4Qk1ERG/kxIkTYv78+bJjEGWKhIQEjBw5UnYMIiLSGK5QExHRawkhRI0aNXDo0CHZUYgyjaIoOHr0KKpUqcJVaiIieiNcoSYiotfasWMHyzTpnhACY8aMkR2DiIg0hIWaiIhe65dffpEdgShLbN26FYGBgbx8j4iI3ggLNRERvVJISIjYtm2b7BhEWWbKlCmyIxARkUawUBMR0SstWbIEfN4GGYm/vz/CwsK40RMR0WuxUBMR0SstX75cdgSiLJWWloY5c+bIjkFERBrAp3wTEdFLnThxQlSuXFl2DKIs5+7ujmvXrvFp30RE9EpcoSYiopcKCAiQHYFIiuvXr+PUqVNcdSAioldioSYiopfavn277AhE0qxbt052BCIiUjle8k1ERC8UExMjnJyckJKSIjsKkRTlypXDmTNneNk3ERG9FFeoiYjohQ4ePMgyTYZ27tw5REZGcuWBiIheioWaiIhe6PDhw7IjEEklhEBgYKDsGEREpGIs1ERE9EJHjx6VHYFIuv3798uOQEREKsZCTURE/yGEEMeOHZMdg0g6FmoiInoVFmoiIvqP0NBQREVFyY5BJN25c+eQkpLC+6iJiOiFWKiJiOg/Tp06JTsCkSokJSXh4sWLsmMQEZFKsVATEdF/nD17VnYEItXgB0xERPQyLNRERPQfLNRE/+/MmTOyIxARkUqxUBMR0X+cO3dOdgQi1eAKNRERvYwiBJ+zQURE/+/x48cid+7csmMQqUbevHlx//59RXYOIiJSH65QExHRc4KDg2VHIFKVBw8eIDIykisQRET0HyzURET0nJCQENkRiFTn0qVLsiMQEZEKsVATEdFzWKiJ/ouFmoiIXoSFmoiInsNCTfRf3C+IiOhFWKiJiOg5LA5E/8UVaiIiehEWaiIieio1NVVcvXpVdgwi1QkNDZUdgYiIVIiFmoiIngoPD0dycrLsGESqc+PGDZjNZj7pm4iInsNCTURET12/fl12BCJVSkpKwu3bt2XHICIilWGhJiKip65duyY7ApFqcf8gIqJ/Y6EmIqKnuEJN9HIs1ERE9G8s1ERE9BQLNdHLcf8gIqJ/Y6EmIqKnWBiIXo4r1ERE9G8s1ERE9BQLNdHLcf8gIqJ/Y6EmIiIAQHx8vHjw4IHsGESqxRVqIiL6NxZqIiIC8PfqmxB8zS7Ry9y9exfx8fHcSYiI6CkWaiIiAsDLWYleRwiBGzduyI5BREQqYik7ABERqYNRi4K7uzsURXnu16Kiol66Wv/48WPZkUmiq1evonTp0rJjEBGRSrBQExERAGOuUFtbW+Pq1atQ/t2o34LZbBbR0dEv/L20tDTExMS88PdSUlLw5MmTF/5eYmIiEhISnvu16OhomM3mp/+empqK2NjY5/5MXFwckpOTn/u1f38QkJSUhPj4+Od+LTY2Fqmpqa/MnZCQgMTERMTHxyM4OPhdv22aY8T9hIiIXo6FmoiIABjzgUsFCxbMkDINACaTScmVK9dLf9/JyUn2l5uhwsLChJubm+wYWY6FmoiInsV7qImICIAxi0KhQoVkR9CsggULwsLCQnaMLGfED56IiOjlWKiJiAiAMe+hdnFxkR1Bs6ysrJT8+fPLjpHlWKiJiOhZLNRERIRHjx699P5fPeMK9bsx4gcS/7xejq/OIiIiACzUREQEY65OA39ftkxvz9XVVXaELBcXF4cHDx7IjkFERCrBQk1ERIYt1EZcYc1IRv3+3bx5U3YEIiJSCRZqIiIybKHmJd/vxogr1AALNRER/T8WaiIiQlhYmOwIUrBQvxujrlDfunVLdgQiIlIJFmoiIjJkoVYUBc7OzrJjaJpRV6hZqImI6H9YqImIyJCF2snJCba2torsHFrGFWoiIjI6FmoiIjLkPdS83PvdFSxYEBYWFrJjZDneQ01ERP/DQk1EZHAxMTEiKipKdowsx0L97iwtLZUCBQrIjpHluEJNRET/w0JNRGRwRrzcG2ChzihGvOw7IiICQgghOwcREcnHQk1EZHBGvNwbYKHOKEZ8MFlSUhLu378vOwYREakACzURkcFxhZrehRELNcDLvomI6G8s1EREBsdCTe/CiJd8A3wwGRER/Y2FmojI4IxaqI1aBDOaUb+PXKEmIiKAhZqIyPCMWqidnZ1lR9AFXvJNRERGxkJNRGRwV69elR0hy9nZ2SFPnjyK7Bx6wBVqIiIyMhZqIiIDi4qKEpGRkbJjZDneP51xChYsCEtLS9kxshzvoSYiIoCFmojI0Iy4Og2wUGckCwsLpUCBArJjZDmuUBMREcBCTURkaEYt1Ea9TDmzGPH7GRERASGEkJ2DiIjkYqEmIjIwoxZqrlBnLCM+mCwpKQn379+XHYOIiCRjoSYiMjAWasoIRizUAC/7JiIiFmoiIkO7cuWK7AhSsFBnLCNe8g2wUBMREQs1EZGhcYWaMoJRCzWf9E1ERCzUREQGlZiYKG7fvi07hhQs1BmLl3wTEZFRsVATERnU9evXYTabZcfIciaTCUZ8zVNmMuoKNQs1ERGxUBMRGZRR75/Oly8frKysFNk59MTZ2RmWlpayY2Q5XvJNREQs1EREBnXx4kXZEaQw6mpqZrKwsFCcnZ1lx8hyXKEmIiIWaiIigwoODpYdQQreP505jHgfdUREBIQQQnYOIiKSx3jXZxFlgPv374sHDx7g3r17uHPnDu7fv4/k5GQIIRAVFfX0z9nb28PR0RGOjo7ImTMn8uTJAw8PD+TLl4+Xm5J0Rl2hLliwoOwIumTElf+kpCTcv38f+fPnlx2FCACQlJQkQkJCcPXqVTx48AAxMTGIjY19OkwmE2xsbGBvb4/s2bPDxsYGTk5OcHd3R/HixVGoUCGenxClEws10Svcv39fBAUF4fz587hw4QIuXLiAixcvIiEh4Z3+3ly5cgkPDw+UKlUKVatWRYMGDVCsWDEexCjLCCEEV6gpIxmxUAN/X/bNQk0y3L9/XwQGBuLw4cO4ePEiLl26hLCwMKSlpb3132lvby+KFy+OEiVKwNfXF3Xq1EH58uVhMpl4jkL0EizURM+IiYkR+/btw+7du7Fr1y6cP38emXE13+PHj3H06FEcPXoUCxcuBAAULVpUNGjQAB9//DG8vLx44KJMFR4ejidPnsiOIQULdeYw4iXfwN+F2svLS3YMMogTJ06I9evXw9/fH2fPns3wvz8+Ph5nz57F2bNnsWbNGgBArly5UKtWLVG3bl20bt0ahQsX5jkK0TNYqMnw0tLSxPbt27FgwQJs2LABSUlJUnJcu3YNf/75J2bNmoXmzZuLSZMmoUSJEjxoUaYw6uXeAAt1ZjHqCjWf9E2Z7dGjR2Lu3LlYsGCBlLn78ePH2LBhAzZs2IBPP/0U1atXFz169ECXLl1gb2/P8xQyPD6UjAwrOjpafPPNN6JIkSL44IMPsHLlSmll+llCCPj7++O9997DN998IxISEvjAG8pwLNSU0Yy8Qk2UGe7fvy+GDBkiChcujBEjRqhi3hZC4ODBg+jTpw9cXFwwcuRIERkZyfMUMjQWajKkJUuWiGLFimH8+PGIiIiQHeeFkpKSMH78eJQrVw6BgYE8WFGGOn36tOwI0rBQZw6jrlCzUFNGE0KIBQsWiNKlS2P69OmIi4uTHemFHj9+jJ9++gnFixfHnDlzBJ94T0bFQk2GEhUVJdq0aSO6deuGyMhI2XHeyJUrV1C7dm0MHz5cJCYm8mBFGeLo0aOyI0jh4OCAnDlz8hLFTFCgQAFYWhrvTjJe8k0Z6fLly6JevXro2bOnZs5ToqKi8PHHH6Np06Z4+PAhz1PIcFioyTBOnjwpvLy8sG7dOtlR0s1sNmPy5MmoVKkSjh07xoMVvZOIiAhx5coV2TGk4Op05rGwsFCM+EoyFmrKCCkpKeL7778X5cqVw549e2THeSsBAQGoVKkSjhw5wvMUMhQWajKEWbNmCV9fX1y7dk12lHcSHBwMX19fjB49WiQnJ/OARel26NAh0atXr0x5er0WGPWy5KxixPuor1+/jhEjRvA+UnprISEhonr16hg9ejQSExNlx3knN2/eRO3atTF9+nTuD2QYLNSka4mJiaJHjx6ib9++mj9I/U9qaiq+//57VKlSBadPn+YBi17r0aNHYsaMGaJy5crC19cX27dvlx1JGq5QZy6jfmDx888/o3DhwujXr584cuQI7yWlN/bnn38KLy8vBAUFyY6SYZKTkzFkyBB06NBBxMXFcV8g3WOhJt26d++eqFu3LhYtWiQ7SqY4e/YsfHx88MMPPwiz2cwDFj0nJSVFbNq0SbRt21YULFgQgwYNwokTJ2THks6ohS+rGHGF+n/i4+Px559/olq1anBzc8OwYcPE/v37RUpKCudn+o8HDx6IVq1aiX79+qn2oWPvauXKlahZsyZu3brFfYB0jYWadOns2bPC29sbR44ckR0lUyUnJ+Orr75C/fr1ERERwQOWwaWlpYldu3aJPn36CGdnZzRv3hxr1qxRxevg1IKFOnPx+/u38PBwTJkyBbVr10bu3LnRvHlzMX36dBESEsJ5mrBt2zZRrlw5bNiwQXaUTHfq1Cn4+PggKCiI2z7plsKrkkhvtm7dKjp27Ijo6GjZUbKUk5MT5s2bh+bNm/MJxgZiNpvFoUOHsGrVKqxatQp37tyRHUnVNm3ahKZNm3IfySRr1qwRbdu2lR1D1dzd3dGgQQPUr18fjRo1Qo4cObg9GkRiYqIYO3Ysfv75Z5jNZtlxspStrS3mzp2Lzp07c3sn3WGhJl2ZMmWKGDFiBNLS0mRHkUJRFAwaNAg//fQTbGxseNDSsaNHj4oVK1Zg1apVfA9uOpw6dQoVKlTgvpFJjh07Jnx8fGTH0AxbW1vUqlULTZs2RZs2beDi4sJtU6cuXrwoOnTogPPnz8uOIo2iKPj222/x5ZdfQlEUbuukGyzUpAtpaWli4MCB+OOPP2RHUYUKFSpg2bJlKFWqFA9YOnL69GmxYsUKrFixAtevX5cdR5MePHgAJycn7heZ5M6dO8KIr87KCIqioFq1amjXrh3atm3Lcq0jCxcuFAMGDNDtvdLp1aNHD8yePRtWVlbcxkkXWKhJ8+Lj40WnTp3g7+8vO4qqZMuWDdOnT0evXr14wNKwixcvPi3RISEhsuNomp2dHeLi4rgykonMZrOws7NDcnKy7Cia9r9y3bZtW7Rt2xaurq7cZjUoPj5eDBgwAAsWLJAdRXUaNWqE1atXw8HBgds2aR4LNWlaZGSkaN68OQ4fPiw7imp17NgRf/zxB3LmzMmDlkZcuXLlaYk+d+6c7Di6UaJECYSGhnI/yGRFixYVvIIi4yiKgho1aqBbt25o164dHB0duQ1rwMWLF0W7du1w8eJF2VFUq1KlSti8eTMKFCjAbZo0jYWaNOv69euiSZMmXLV7A+7u7li2bBl8fHx40FKpsLAwsXLlSqxYsYKvt8okdevWxe7du7kPZLLatWuL/fv3y46hS7a2tmjevDm6deuGxo0b85JZleIl3m/O3d0dW7duhYeHB7dl0iy+Nos06dSpU8LX15dl+g1dv34dtWrVwowZM/gJmoo8fvxY/PHHH8LX11e4u7tjxIgRLNOZyMjvSM5K/D5nnsTERKxatQotWrRAoUKFMHjwYHHs2DHO6yoRHx8vevbsKT788EOW6Td0/fp1+Pr64siRI9yOSbNYqElzduzYIWrXrs3XA6VTcnIyBg0ahM6dO4snT57wwCVJWlqa2LJli+jQoYMoWLAg+vfvj0OHDoFXC2U+viM5a7BQZ40HDx7g119/hY+PD0qXLi0mT54sHjx4wIlEkosXLwpvb2/eL/0WHj58iHr16sHf35/bL2kSCzVpyqpVq0SzZs0QGxsrO4pm/XPpNy5dusQDVxa6cOGC+Pzzz4WrqyuaNm2KlStXIjExUXYsQ2Ghzhr8Pme94OBgDB8+HC4uLmjXrp3Ytm2bMJvNnOOzyOLFi4W3tzcuXLggO4pmxcfHw8/PDwsXLuR2S5rDQk2aMWfOHNGpUyc+PTYDXLx4Ed7e3li5ciUPXJkoOjpa/Pbbb6JKlSqibNmymDRpEq+skIgrp1mD32d5kpOTsXr1ajRu3Bju7u4YN26cCA8P5zyfSVJSUsTgwYNF9+7deYl3BkhNTUXPnj0xffp0brOkLUIIDg7Vj0mTJglFUQQAjgweQ4YMEcnJyUL2z1hP4+DBg+LDDz8U9vb20n++HP8/Tp06xe08C8bJkyel/6w5/n+YTCbRuHFjsWbNGpGSksJ9IIPGnTt3RI0aNaT/fPU6xo0bx22VQzODT/km1Zs4caIYNWqU7Bi6VqVKFaxatQpFihThUzbfUnR0tFixYgVmzpyJM2fOyI5DL/Dw4UPkyZOH23gmi4yMFE5OTrJj0AsUKFAAPXr0wCeffILChQtzX3hLQUFBws/PD+Hh4bKj6NrAgQMxbdo0mEwmbqukaizUpFpCCDFs2DD88ssvsqMYgpOTE5YuXYoGDRrwwJUOJ06cELNmzcJff/3FS/5UzN7eHnFxcdy2s0i2bNlEfHy87Bj0EiaTCe+//z4GDx6MZs2aQVEU7htvaNasWWLQoEG8/SyLdOvWDfPmzYOlpSW3UVItFmpSpbS0NPHxxx9j/vz5sqMYioWFBUaPHo0xY8bwE+FXePLkiVi6dCl+++03nD17VnYcegMeHh4ICQnhNp1FSpYsKUJDQ2XHoDdQokQJ9O7dGx999BGv4HiFpKQkMXDgQMyZM0d2FMNp2bIlli9fDltbW26fpEos1KQ6iYmJomPHjtiwYYPsKIbVokULLFq0CDlz5uTB6xkhISHit99+w8KFCxETEyM7DqVD3bp1sXv3bm7PWaR+/fpi165dsmNQOtjb26Nz584YPHgw3nvvPe4rzwgPDxdt2rTBiRMnZEcxrEaNGmHt2rWwt7fntkmqw6d8k6rExcWJFi1asExL5u/vj8qVK+P8+fOG/8TNbDaLnTt3iubNmwtPT0/8+uuvLNMaVLhwYdkRDIVP+tae+Ph4zJkzB+XKlUONGjXEqlWrRFpamuGPAfv27RPe3t4s05Jt27YNdevWxaNHjwy/TZL6sFCTajx69EjUq1cPO3bskB2FAFy5cgXVqlXDqlWrDHnwevjwoZgwYYIoWrQoGjRogE2bNoFX9GhXoUKFZEcwFBZqbTt48CDat2+PkiVLYtq0aSImJsaQk9+kSZNEvXr1cO/ePdlRCMCxY8dQr1493L9/35DbI6kXCzWpwt27d0XdunVx9OhR2VHoGU+ePEH79u3Rt29fkZKSYogD2JUrV8SQIUNEkSJF8MUXXyAsLEx2JMoALHhZi99vfbh69SqGDh0KFxcX9O3bVwQHBxviOJCYmCg+/PBD8fnnnyMtLU12HHrG6dOnUatWLfD96qQmLNQk3fXr10WNGjX4cCcVmzVrFpo0aYKHDx/q8gAmhBA7duwQH3zwgfDw8MD06dPBJxTri4uLi+wIhsJCrS+xsbGYNWsWypYti5YtW4oDBw7o8lgA/H2/tK+vLxYuXCg7Cr1ESEgIatasidDQUN1uh6QtLNQkVXBwsKhVqxauXr0qOwq9xq5du1CxYkUcPXpUNwew5ORksWjRIlG+fHk0bNgQAQEBvKxbp1jwshbvWdcns9kMf39/1KpVC15eXmLRokUiNTVVN5NmYGCg8Pb2xsmTJ2VHodcIDw9HzZo1cfr0ad1sf6RdfMo3SXP8+HHRpEkTREZGyo5C6WBra4uZM2eiZ8+emn3S5oMHD8Rvv/2G33//Hffv35cdh7LAgwcP4OTkpNltVmvi4+OFg4MDP6AygBIlSuCzzz5Djx49YGdnp9l9bObMmWLo0KFISUmRHYXSwdHREZs3b0b16tU1u+2R9rFQkxR79+4VLVq0QGxsrOwo9Jb69++PqVOnwtraWjMHsRs3bojJkydj3rx5vKTbQOzs7BAXFwdFUTSzrepB/vz5BT+wMo58+fJh4MCB+OSTTzT1Pmu+X1r7smXLhrVr16Jhw4aa2e5IX1ioKcvt2LFDtGzZEgkJCbKj0DuqVq0aVq9ejYIFC6r6IHb27Fnx008/YcWKFUhNTZUdh7JYiRIlEBoaquptVI+8vb3F8ePHZcegLJYtWzb07t0bn3/+OVxcXFS93925c0f4+fnh8OHDsqPQO7KxscHq1avRrFkzVW9zpE+8h5qy1NatW0WLFi1YpnXi8OHDqFChAnbv3q3KT+YCAwNF8+bNRYUKFfDXX3+xTBsU75+Wo0iRIrIjkARxcXGYPn06ihUrhu7du4vLly+r8vhw8uRJUbVqVZZpnUhKSoKfnx/Wrl2ryu2N9I2FmrLMxo0bRatWrZCYmCg7CmWgBw8eoHHjxpg+fbpqDmIBAQHC19dX1KxZk++PJj7hWxI3NzfZEUii5ORkLF68GGXKlEGvXr1UVawXLFggfH19ER4eLjsKZaDk5GR07NgRq1evVs22RsbAQk1ZYvPmzaJdu3ZISkqSHYUyQUpKCoYMGYLOnTuL+Ph4aQeynTt3iqpVq4oPPvgAhw4dkv1tIZXgCrUcXKEm4O/jw/z581GqVCm0b99eXLx4UdoxIjU1VYwaNUr07NmTH+7rVEpKCjp27IjFixezVFOWYaGmTLd69WrRunVrlmkDWLZsGXx9fXH9+vUsPZBt3rxZeHt7iwYNGuDo0aOyvw2kMoUKFZIdwZC4Qk3PMpvNWLVqFd577z106NAhy4v1w4cPRcOGDTFx4kTZ3wrKZGlpaejZsyeWLFnCUk1ZgoWaMtXy5ctFp06d+BoKAzl9+jQqV66Mbdu2ZfqBbNOmTaJKlSqiWbNm4MOP6GW4Qi0HV6jpRcxmM1auXIly5cqhe/fu4urVq5l+rDh9+rSoUqUK9uzZI/vLpyySlpaGHj16YP78+SzVlPmEEBwcmTIWL14sLCwsBAAOAw4LCwvx/fffC7PZLDJ62woMDBTVq1eX/jVyaGOcPn06w7dBjtePmJgY6T97DvUPKysr8fHHH4uwsLBM2U+XL18u7O3tpX+dHHKGyWQSs2bN4jGAI1OH9AAc+hx//fUXyzSHACCaNWsmHj9+LDJiu7p06ZJo166dUBRF+tfFoZ0RFRWVIdsfR/pH7ty5pf/8ObQxrK2tRZ8+fURERESG7K9ms1l88803PF5wCEVRxLRp03gc4Mi0IT0Ah/7G7Nmzhclkkj6BcqhnlChRQpw/f1687Tb14MEDMXjwYGFpaSn9a+HQ1siRI8dbb3cc7z4qVqwofRvg0NawsbERffr0EXfv3n3rfTc6Olq0bNlS+tfCoZ6hKIr45ZdfeDzgyJTBe6gpQ/3++++iT58+MJvNsqOQily+fBnVqlVL9/shExMTxXfffSfc3Nwwffp0vkea0o338crFB5NReiUlJWHWrFkoUaIExowZI6KiotJ13AgODhZVqlTBhg0bZH8ppCJCCHz66aeYPHlyurYnojfBQk0Z5o8//hADBgyAEJyr6L9iY2PRtm1bDBkyRKSmpr52I9m4caMoU6YMvv76a8TFxcmOTxrFQi0Xv//0tmJjY/Htt9+icOHCGDVqlIiOjn7tcWPLli2iWrVqCA0NlR2fVGr48OH49ttveaJKGYqFmjLElClTxCeffMIyTa8khMD06dPRtGlTREZGvnBjOX/+vKhXr55o0aIFrl27JjsyaRwLnVzu7u6yI5DGxcbGYuLEiShRogSmTJkiEhIS/nPsEEKIb7/9VjRv3hzR0dGyI5PKjRkzhqWaMpbsa845tD9++ukn6ffGcGhvuLq6imPHjon/bUePHj3ifdIcGT5++uknIXuONPLYtGmT9G2AQ18jX758YsKECSIhIUEIIRAbGyv8/Pyk5+LQ3hg5ciSPDxwZMhQhBIje1nfffSe+/vpr2TFIo+zs7DBz5kwkJCTg66+/RmRkpOxIpDPLly9Hhw4dFNk5jOrSpUvC09NTdgzSITc3N3z66aeYPXs2zp8/LzsOadSoUaPw448/8hhB74SFmt7axIkTxahRo2THICJ6qSNHjsDHx4cnS5IkJSUJe3t7PqiSiFTrs88+w+TJk3mcoLfGe6jprXz11Vcs00SkeoULF5YdwdBsbGyUQoUKyY5BRPRSU6ZMwdChQ4XgKiO9JRZqSrevv/5a/PDDD7JjEBG9kp2dHfLnzy87huEVK1ZMdgQioleaNm0ahg0bJjsGaRQLNaXL+PHjxXfffSc7BhHRaxUvXhwmk4mX8UlWtGhR2RGIiF7rl19+wWeffcZVako3Fmp6Y5MnTxbffPON7BhERG+kZMmSsiMQWKiJSDt++eUXfP755yzVlC4s1PRGpk6dKoYPHy47BhHRG/Pw8JAdgcBLvolIWyZNmoRx48axVNMbY6Gm15o2bZr49NNPZccgIkqXEiVKyI5AYKEmIu0ZO3Ysvv/+e5ZqeiMs1PRKv/32G8s0EWmSj4+P7AgEoFSpUjCZeLpBRNoyevRo/PTTTyzV9Fo8wtFLzZo1SwwaNAh8iwARaU39+vXh6enJB5KpQPbs2RV3d3fZMYiI0m3kyJH45ZdfeCJMr8RCTS80b9480b9/f5ZpItKc8uXLY9GiRbJj0DPKly8vOwIR0VsZNmwYfv31V54Q00uxUNN/LFq0SHz88ccwm82yoxARvbE8efJg/PjxOHr0KJydnbk6rSJNmzZFjhw5ZMcgIko3IQSGDBmCP/74g6WaXkjhCiQ9a9myZaJbt25IS0uTHYWI6LUsLS1Rt25ddOjQAR07dkS2bNlYpFUqKSlJ7N27F3v27MHevXtx4sQJpKamyo5FRPRGFEXBrFmz8NFHH/E4Q89hoaanVq1aJTp37swTHCJStfz586NBgwZo2LAhmjRpAicnJ57caFBsbKwIDAzEoUOHcPDgQRw/fhxPnjyRHYuI6KVMJhPmzZuHHj168LhDT7FQEwBg3bp1okOHDkhJSZEdhYjoOYUKFUKNGjXg6+uLWrVqoVy5clAUhSczOpOamirOnj2LQ4cO4fDhwzh06BBu3LghOxYR0XMsLCywcOFCdOnShcchAsBCTQC2bt0qWrVqhaSkJNlRiIhQtGhR+Pr6Pi3RZcqU4UmLQd29e1ccP34cJ06cwMGDBxEYGIjExETZsYjI4CwsLLBo0SJ07tyZxydioTa6gIAA0bp1a5ZpIpLCzs4OlStXhq+vL3x9fVG9enXkzp2bJyj0QomJieLEiRNPLxM/dOgQHjx4IDsWERmQpaUlli9fDj8/Px6zDI6F2sB27NghWrRowU/7iSjLODs7w8vL6+nqc5UqVWBjY8OTEXpr165dE4GBgU9XsIODg/nKRyLKElZWVli1ahVatmzJ45iBsVAb1O7du0WzZs2QkJAgO4ouKYrCEzoyPJPJhLJly6JOnTpPV59dXFx40kGZ6v79+yIwMBB79uzB7t27cfHiRdmRiKTjeUnmsba2xtq1a9G0aVMe3wyKhdqAjh49KurXr8+nqWYSV1dX+Pv747vvvsOaNWtkxyHKUkWLFkX9+vVRv3591K1bl0/gJunu378v9u3bh/+tYp88eZLFggwlb968WLZsGdauXYuZM2fKjqNL1tbW8Pf3R6NGjXjMMyAWaoM5e/asqFOnDh4/fiw7ii4VLlwYe/bsQdGiRRUhhBg/fjzGjRvHkzfSrRIlSqBhw4aoU6cOateujbx58/JkglTt1q1bYvv27di2bRt27tyJR48eyY5ElGl8fHywZs0aFCpUSBFCiL59+2L27NmyY+lS9uzZsXPnTnh7e/M4aDAs1AZy9epVUbNmTdy5c0d2FF0qXLgwdu/ejWLFij03kW7ZskV07twZ0dHRsiMSvbNs2bKhWrVqqF+/Ppo3b47SpUvzxIE0y2w2i1OnTmHnzp3YuXMn9u3bx9dHkm5069YNf/75J+zs7J7O00IIMXDgQK5UZxJHR0fs2bMHFSpU4LHRQFioDeLWrVuiZs2afKdnJilSpAj27t0LNze3F06gwcHBolWrVggNDZUdlShdFEVBpUqV0KhRIzRq1AjVqlWDlZUVTxRIlx4/fiy2b9+OjRs3IiAggKvXpEk2NjaYPn06+vTp88K5mivVmatgwYLYv3//fxZYSL9YqA3g4cOHonbt2nwwSyZ59jLvV/252NhY0a1bN2zYsEF2ZKJXsrW1RY0aNdCsWTP4+fnxQWJkSGlpaeL06dPYuHEjNm3ahBMnTsiORPRaBQsWxOrVq1GtWrVXzttcqc5chQsXxoEDB1C4cGEePw2AhVrnYmJiRN26dXHy5EnZUXTJ3d0de/bsQZEiRd5owjSbzWL06NGYMGEC76smVXFyckLTpk3RokULNGrUCNmyZeNJANEzQkNDhb+/P9atW4cjR47AbDbLjkT0nBo1amDVqlUoUKDAG83fXKnOXGXKlMG+ffuQJ08eHk91joVaxxISEkTjxo2xf/9+2VF0qWjRotizZ89bffq4atUq0bNnT8TFxcn+MsjAXFxc4OfnBz8/P1SvXh0WFhY86BO9gdu3b4u1a9dizZo1OHDgANLS0mRHIoP75JNPMHXq1HTfksNSnbmqVKmCXbt2IXv27Dy+6hgLtU6lpKSI1q1bY/PmzbKj6JKbmxv27Nnz0num38S5c+dEq1atcO3aNdlfDhmIi4sL2rRpg3bt2qF69eowmUw8yBO9g8jISLF582asWrUK27dvR3JysuxIZCA2Njb47bff0Lt377eey3n5d+aqXr06tm/fziu/dIyFWofMZrPo3LkzVqxYITuKLhUvXhy7d++Gq6vrO0+MkZGRomPHjti5c6fsL4t07H8r0e3atUO1atVYookySWRkpFi1ahWWLVuGwMBAXhZOmcrV1RVr165F5cqV33lO50p15mrWrBnWrl3Lh3rqlRCCQ0fDbDaLvn37CgAcmTBKlCghbt68KTLyZ5aamipGjhwp/Wvj0NfIkSOH6Natm/D39xepqakZus1ycHC8fty6dUtMnTpV+Pr6Sp8POPQ3atasKe7evZuhc7vZbBaffPKJ9K9Nr6Nz584iLS2Nx2MdDukBODJ2jBgxQvqEodfh4eEhbt26lWkT4eLFi4WdnZ30r5NDu8PKyko0a9ZMLF++XMTHx2fatsrBwZG+ERwcLMaMGSPc3d2lzxMc2h9Dhw4VKSkpmTLHm81m8fHHH0v/GvU6+vfvz2OzDof0ABwZN3744QfpE4VeR8mSJUVERESmT4JBQUHC1dVV+tfLoa1RpUoVMX36dHH//v1M30Y5ODjefpjNZrF3717x4YcfCgcHB+lzB4e2hr29vViyZEmmz/Ms1Zk7vvjii0z/GXJk7ZAegCNjxsyZM6VPEHodHh4eWVKm/zcePHgg3n//felfN4e6R86cOUWfPn3EyZMns2zb5ODgyLiRkJAgVq5cKZo1ayYsLCykzykc6h6urq7i2LFjWTbf8/LvzB0TJkzIsp8lR+YP6QE43n0sWbJEmEwm6ZODHkepUqXE7du3s3zSS05OFgMGDJD+9XOoayiKIurWrSv++usvkZCQkOXbJQcHR+aM69evizFjxggXFxfp8wyH+kaDBg3Ew4cPs3zO50p15h7P//jjjyz/mXJkzpAegOPdhr+/v7CyspI+MehxeHp6ijt37kid7ObMmSNsbGykfy845I4CBQqIUaNGicuXL0vdHjk4ODJ3pKamCn9/f65acwjg79I1YsQIqQ+WZKnOvGEymcSyZcuk/Ww5Mm7wtVkaduzYMfH+++8jLi5OdhTdKVWqFHbv3g1nZ2fprzc4efKkaN26NcLDw2VHoSzm5eWFwYMHo1OnTnzVBpHB3L59WyxevBh//PEHbty4ITsOZTEHBwfMmzcP7dq1kz73C8H3VGcWKysrbNq0CQ0bNpT+c6a3x0KtUSEhIcLX1xeRkZGyo+hOmTJlsGvXLuTPn181k9udO3eEn58fDh8+LDsKZTI7Ozt06dIFAwYMQIUKFVSzDRKRHGlpaWLz5s347bffsGPHDvC8Tf+KFy+OdevWoWzZsqo5BgjB91Rnlhw5cmD//v0oX768an7elD4s1Bp0584dUb16dX5inQlKlSqFPXv2oECBAqqb1JKSksTAgQMxZ84c2VEoExQtWhR9+vRB79694eTkpLrtj4jku3LlipgzZw5mzZqFx48fy45DmaBJkyb466+/kCtXLtUdB7hSnXmcnZ1x6NAhuLm5qe7nTm9A9jXnHOkbMTExomLFitLv+9DjeO+99zTx2qHffvuN983raNSuXVts2LBBpKWlqX7b4+DgUMeIiYkRM2bMEKVKlZI+h3FkzFAURYwePVr1xwLeU515w9PTU0RGRqr658/x4iE9AMebj6SkJNGgQQPpO7weR7ly5TRRpv839u/fL/Llyyf9+8bxdsPS0lJ07NhRBAUFaWab4+DgUN8wm81ix44dokmTJkJRFOlzG8fbjRw5coh169YJ2dtTerY7lurMGTVq1BDx8fGa2RY4/h7SA3C8+eTVo0cP6Tu6Hkf58uXFgwcPNDd53bp1S3h7e0v//nG8+ciePbsYPHiwuHHjhua2Nw4ODnWP0NBQMXjwYGFnZyd9ruN481GiRAlx/vx5IXv7Se/ge6ozbzRv3lzqk9050j+kB+B4s/HVV19J38H1OCpUqCDl3Y4ZNeLj40W3bt2kfx85Xj1cXV3FpEmTRHR0tGa3NQ4ODm2Mu3fviq+//lo4OTlJn/s4Xj1atmyp6eMCV6ozbwwZMkSz24URh/QAHK8fixYt4qVcmTAqVqyom3tVpkyZIiwtLaV/TzmeH8WLFxdz5swRSUlJutjOODg4tDPi4uLE77//LooVKyZ9LuR4fphMJjF+/HhhNpuF7O3kXQdLdeaN33//XfPbh1GG9AAcrx4HDx4UNjY20ndqvQ2tr0y/aOzbt4/3VatklClTRixcuFCkpKToahvj4ODQ3khLSxP+/v7Cy8tL+tzIob37pd9k8PLvzBmWlpZi+/btutpW9Dr42iwVu3HjhvDx8cH9+/dlR9GVihUrYseOHciTJ4/uXk1w8+ZN0aZNGwQFBcmOYkjly5fHZ599hi5dusDCwkJ32xcRadvOnTvFmDFjcPjwYdlRDKlkyZJYt24dPD09dXd8EIKv1MoMOXLkwMGDB1X1TnL6LxZqlYqJiRHVq1fHhQsXZEfRlcqVK2P79u2qfL9jRomLixO9evXCypUrZUcxDF9fX3z99ddo1KiRbrcrItKPPXv2iB9//BE7duyQHcUw2rZti/nz58PBwUG3xwkhhOjbty9mz54tO4quFCtWDEePHtXlQpBuyF4i53jx5VlNmjSRfqmJ3oa3t7d4/PixIS6dMZvN4scffxQWFhbSv+96Hj4+PmLr1q2G2KY4ODj0Nw4fPiwaNWokfS7V87CwsBATJkzQxf3SbzJ4T3XmjFq1aonk5GRDbENaHNIDcPx3jBkzRvqOq7fh4+MjoqKiDDcRbdmyRTg6Okr//utteHl5iU2bNhlue+Lg4NDnOHjwoGjYsKH0uVVvI3fu3Ib80NVsNouPPvpI+vdfb2Po0KGG25a0MnjJt8ps3bpVNG3aFGazWXYU3ahatSq2bt2KnDlzGvJSmcuXL4tWrVrh4sWLsqNoXvny5TFu3Di0aNECiqIYcnsiIv06ePCgGDt2LHbu3Ck7iua99957WLduHYoVK2bIY8U/pRrz58+XHUU3FEXBypUr0bZtW0NuU2rGQq0iN2/eFJUqVcLDhw9lR9GNatWqYevWrciRI4ehJ5/Y2FjRtWtX+Pv7y46iSZ6enhg/fjz8/PxYpIlI9wIDA8XXX3+NvXv3yo6iSe3atcO8efN0fb/0mzCbzaJnz55YtGiR7Ci6kSNHDgQFBaFEiRKG3rbUxiQ7AP0tJSVFdOrUiWU6A1WvXp1l+h/Zs2dX1q9fjwkTJsBk4m7/pgoVKoQ///wTZ8+eRdu2bRWWaSIygho1aih79uxRduzYAS8vL9lxNENRFIwcORIrVqwwfJkGAJPJpMybNw/dunWTHUU3YmJi4Ofnh/j4eK6Iqonsa845/h5ffvml9Hsz9DR8fX1FTEwM7zV5wVi9erVwcHCQ/jNS83B0dBQ//PCDiIuL4zbEwcFh6GE2m8WKFSuEh4eH9LlZzSNXrlwiICBAyP55qXGkpqaKTp06Sf8Z6WkMGjSI25qKBi/5VoFTp04Jb29vpKamyo6iCzVr1sTmzZuRPXt2w386/DLnzp0TrVq1wrVr12RHURUbGxsMGDAAX375JV9PQUT0jNTUVDFv3jyMHz8eERERsuOoStmyZbFu3ToUL16cx42XSE1NFV26dOErPTOIyWTC3r17UbNmTW5zKsBCrQL16tUTu3fvlh1DF2rVqoXNmzfzUqs3EBkZKTp27MiHz+DvA1OXLl3w7bffokiRItx2iIheIiEhQUybNg0//vgjYmJiZMeRzs/PDwsWLOB5xxv4Z6Uaq1evlh1FF7y8vHD8+HE+20UFeDOlZIcOHWKZziC1a9fGli1beFB7Q3ny5FECAgLw6aefyo4iVZ06dRAUFIRFixYpLNNERK9mZ2enjBo1Srl8+TL69esHS0tL2ZGkMJlM+P7777Fq1Sqed7whS0tLZenSpWjdurXsKLpw4sQJBAQEyI5BYKGWbsaMGbIj6ELNmjWxadMmZMuWjQe1dLC0tFSmTJmiLF26FPb29rLjZKnixYtj5cqV2LNnj1KxYkVuN0RE6ZAvXz7l999/V86fP4927drJjpOlcuTIgbVr1+LLL7/kwyrTycrKSlmxYgVatmwpO4ouzJw5U3YEAi/5lurBgwfCxcUFycnJsqNo2vvvv4+NGzfC3t6eB7V3cOzYMdGmTRvd3xvn6OiI0aNHY9CgQbC2tuY2Q0SUAXbu3CmGDx+OM2fOyI6SqcqUKYN169bxtUXvKDk5Wfj5+WHTpk2yo2iayWTCzZs3UbBgQW6PEnGFWqI1a9awTL+jevXqsUxnEG9vb+X48eOoXr267CiZwtLSEgMGDMDly5cxbNgwhWWaiCjj1K9fXzl58iT+/PNPODk5yY6TKdq0aYPDhw+zTGcAa2trZfXq1WjSpInsKJpmNpuxatUq2TEMj4VaouXLl8uOoGn169dnmc5gzs7Oyu7du/HRRx/JjpKhGjZsiLNnz2LGjBmKk5MTtxciokxgMpmUPn36KKGhoRg4cKBu7q82mUz49ttvsXr1ar5BJAPZ2Ngoa9euRb169WRH0bR169bJjmB4vORbkidPnojcuXMjJSVFdhRNatiwIdavXw87Ozse2DLJrFmzxKBBgzR9FYWLiwu+//57dO/endsJEVEWu3Tpkhg6dCi2bdsmO8pby549OxYtWoRWrVrxOJJJ4uPjRZMmTbB//37ZUTTJxsYGjx8/5jmxRFyhluTAgQMs02+JZTpr9OnTR9m1axfy588vO0q6WVtbY/DgwQgODmaZJiKSpFSpUsrWrVsVf39/uLm5yY6Tbh4eHjh69CjLdCazt7dXNm7ciCpVqsiOoklJSUk4fPiw7BiGxkItyd69e2VH0KRGjRphw4YNLNNZpEaNGkpQUJCmDnLNmjVDcHAwpk2bpvBVJkRE8jVv3ly5ePEivvnmG1hbW8uO80aaNWuGY8eOwdPTk8eRLJAjRw5l+/btqFSpkuwomrRv3z7ZEQyNhVoSbvjp98EHH2D9+vWwtbXlwS0Lubi4KHv37kXHjh1lR3ml4sWLY/Pmzdi4caNStGhRbiNERCpiZ2enjB07Vjlx4gRq1KghO85LmUwmjB8/Hv7+/siZMyePJVnI0dFRCQgIQKlSpWRH0Zw9e/bIjmBovIdagtjYWJE7d26kpqbKjqIZTZs2xZo1a2BjY8ODmyRCCPHTTz/hq6++Qlpamuw4T9na2uLLL7/EiBEjuH0QEWmAEELMmzcPI0eORGRkpOw4T+XMmRNLlixBs2bNeCyRKCIiQtSuXRtXr16VHUUzHBwcEBMTA74XXQ6uUEtw/vx5lul0aNKkCVavXs2yJJmiKMrIkSOVTZs2IVeuXLLjAADq1KmDU6dO4euvv1a4fRARaYOiKErv3r2Vy5cvY/DgwTCZ5J+Oenh44NChQyzTKlCoUCFlz549mrzvXpYnT57gzp07smMYlvwZzID4iduba9GiBS/zVpnGjRsrR44ckXpJVoECBbB06VLs2bNHKVWqFLcNIiINypUrlzJt2jRlz549KFu2rLQcLVu2xPHjx1G6dGkeT1TC1dVV2b59O5ydnWVH0YxLly7JjmBYLNQSXLlyRXYETWjZsiVWrVoFa2trHuBUxsPDQzl69CiaNWuWpf9dk8mE/v37Izg4GJ06deJ2QUSkA7Vq1VJOnjyJSZMmwcHBIcv+uyaTCWPHjsW6deuQI0cOHlNUpkSJEsqOHTvg5OQkO4omhIaGyo5gWCzUErBQv16rVq2wcuVKlmkVy5Ejh7JhwwZ89dVXyIpbdsqXL4+DBw9i5syZiqOjI7cLIiIdsbKyUoYNG6ZcunQJ7dq1y/T/Xo4cObBu3Tp88803Cu87Va8yZcooW7ZsQfbs2WVHUb2QkBDZEQyLhVoCFupXa9OmDcu0RphMJuW7775TVqxYgWzZsmXKf8Pe3h4///wzgoKCULVqVW4TREQ6VqhQIWXlypXK9u3b4eHhkSn/jVKlSuHo0aNo0aIFjykaUKVKFWXdunWwsbGRHUXVbt++LTuCYbFQS3Dr1i3ZEVTLz88Py5cvh5WVFQ9yGtKuXTvl0KFDcHd3z9C/t27dujh79iyGDx+uWFpacpsgIjKIBg0aKGfPnsX333+foauTzZs3x9GjR8Hnb2hLvXr1lL/++gsWFhayo6jWo0ePZEcwLBZqCeLi4mRHUKW2bdti2bJlLNMaVa5cOeX48eOoX7/+O/9dOXPmxNSpU7Fz504UK1aM2wMRkQHZ2NgoX375pXL9+nWMHDnynVYoFUXByJEjsX79et4vrVF+fn7KvHnzsuQ2My16/Pix7AiGxUItQXx8vOwIqsMyrQ958uRRtm7dipEjR77139G0aVOcO3cOQ4YMUUwmE7cHIiKDy5MnjzJhwgQlJCQE3bp1S3ehyp49O1avXo0JEybwuKJx3bt3V3744QfZMVSJK9TyKEII2RkMJS0tTVhaWsqOoSodO3bE4sWLwUt69WXBggWiX79+SEpKeqM/nz9/fvz6669o164dtwMiInqpI0eOiBEjRuDAgQOv/bMlS5bEunXr4OnpyWOLjgwfPlxMnjxZdgxVyZkzJ6KioridS8BCncViY2NFjhw5ZMdQjU6dOmHx4sWwsLDgBKBDR48eFW3atHntgzJ69OiBKVOmIHfu3NwOiIjojRw4cEBMnjwZGzduhNls/s/vN2vWDEuWLEHOnDl5bNEZIYTo1KkTVqxYITuKatja2iIhIYHbugS85DuLJSYmyo6gGl26dGGZ1jkfHx/l+PHjqFq16gt/v3DhwggICMCCBQsUlmkiIkqPmjVrKuvXr1eCg4PRt29f2NnZAfj7fumvv/4aGzZsYJnWKUVRlPnz57/0/MKI+MA2ebhCncXi4uKEg4OD7BjSNW7cGJs2bWKZNoikpCTxySefYN68eQD+Ptnp168fJk6ciOzZs3MbICKidxYfHy8OHDiA7Nmzo3r16jy2GMDVq1eFh4fHC69QMJocOXIgOjqa270EvJk3i2XLlk2xtLQUqampsqNIdeTIEVy7dg0lSpSQHYWygI2NjTJ37lxUqFBBzJw5E7///jvq1KnDSZ+IiDKMvb290qhRI9kxKAsdPnyYZfofXKGWhyvUEjg5OYnIyEjZMaQrU6YMjhw5AgcHBxYrAxFCCIXvvCAiIqJ38ODBA1G2bFncv39fdhRVyJs3L+7fv8/zKwl4D7UEOXPmlB1BFS5cuIAPP/wQgp/qGArLNBEREb2r/v37s0w/I1u2bLIjGBYLtQR8yvf/W7NmDSZMmCA7BhERERFpxLx588SaNWtkx1AVZ2dn2REMi4VaAldXV9kRVGX06NEICAjgKjURERERvdLly5fF0KFDZcdQHRZqeVioJShdurTsCKpiNpvRpUsXXL16laWaiIiIiF4oMTFRtG/fHrGxsbKjqA4LtTws1BJ4enrKjqA6jx8/Rps2bRAXF8dSTURERET/MXToUJw+fVp2DFUqUKCA7AiGxUItAVeoX+zs2bP4+OOPZccgIiIiIpVZvXq1+PPPP2XHUK1ixYrJjmBYLNQSeHp6gg86frFly5Zh8uTJXKUmIiIiIgBAeHi46Nu3r+wYqubl5SU7gmHxPdSSlCxZUoSGhsqOoUqWlpbYtm0b3n//fX7qQERERGRgKSkpombNmjh69KjsKKqVPXt2REVFwWQy8dxZAq5QS1K7dm3ZEVQrNTUVHTt2RFhYGD/tISIiIjKwr776imX6NSpUqMAyLRELtSR16tSRHUHVHjx4AD8/PyQkJLBUExERERnQhg0bxKRJk2THUL3KlSvLjmBoLNSSfPDBB7C2tpYdQ9VOnDiBPn36yI5BRERERFksLCxM9OrVC7w99fVatGghO4KhsVBL4ujoqNSqVUt2DNVbsmQJfv31V86kRERERAaRmJgo2rRpg0ePHsmOonpOTk6oUaOG7BiGxkItUadOnWRH0IRhw4bhwIEDLNVEREREBjBw4ECcPHlSdgxNaNWqFSwtLXn/tER8yrdET548EQULFkRsbKzsKKqXP39+nDhxAoUKFeKEQURERKRTCxYsED179pQdQzN27NiB+vXr8/xYIq5QS+Tg4KB07dpVdgxNuHfvHvz8/JCUlMRPgIiIiIh06MyZM+KTTz6RHUMzqlevzjKtAlyhluzq1auiZMmSSEtLkx1FEz766CPMnj2bEwcRERGRjkRHR4sqVarg8uXLsqNogqIo2L9/P2rUqMHzYsm4Qi1ZsWLFlI4dO8qOoRlz5szBrFmz+CkQERERkU4IIUSvXr1YptPhww8/ZJlWCa5Qq8CtW7dEyZIlER8fLzuKJlhZWWHXrl2oWbMmJxEiIiIijZs0aZL4/PPPZcfQjDx58iA4OBh58+blubAKcIVaBVxcXJRhw4bJjqEZKSkp6NixI+7evctPg4iIiIg0LDAwUHz55ZeyY2jKL7/8wjKtIlyhVonExERRoUIFhISEyI6iGb6+vtizZw+srKw4oRARERFpzN27d4WXlxdu374tO4pmtG7dGmvXruW5r4pwhVolbG1tlfnz58Nk4o/kTR08eBCffvqp7BhERERElE6pqamiY8eOLNPpkDdvXvz++++yY9C/sL2pSLVq1ZR+/frJjqEpv/32GxYsWMDLLIiIiIg0ZNiwYdi3b5/sGJoya9Ys5M+fn6vTKsNLvlUmLi5OeHl58dLvdLC1tcX+/ftRpUoVTjBEREREKrd06VLRpUsX2TE05cMPP8T8+fN5rqtCLNQqdOLECVGtWjWkpKTIjqIZrq6uCAoKQr58+TjREBEREanU2bNnRbVq1fh2m3QoVKgQzp07h1y5cvE8V4V4ybcKeXl5KaNHj5YdQ1Nu3ryJNm3aICUlhZ8QEREREanQ48ePRZs2bVim00FRFMydO5dlWsVYqFVq9OjRqFWrluwYmnLw4EGMHDlSdgwiIiIi+hez2Sy6du2Kq1evyo6iKYMGDUKjRo1YplWMl3yr2LVr10SFChUQGxsrO4qmLFmyBF26dOHEQ0RERKQS33zzjRg/frzsGJpStmxZHDt2DHZ2djyvVTEWapWbN2+e6N27t+wYmmJra4vAwEB4eXlx8iEiIiKSbOPGjaJVq1Ywm82yo2iGra0tjh49inLlyvF8VuVYqDWgQ4cOYuXKlbJjaEqRIkUQFBQEJycnTkJElCmio6PFjRs3EB4ejrt37yI6OhrR0dFISUlBXFwckpOTn/7Z5ORkxMXFPff/VxQFjo6OL/13KysrODg4wM7ODra2tsiRIwcsLS3h6OgIa2trZMuWDfb29rCxsUGOHDmQLVs2rmIQkepcvnxZeHt7IyoqSnYUTZk1axY+/vhjzukawEKtAZGRkaJ8+fKIiIiQHUVTGjRogICAAFhYWHAyIqK3Fh4eLkJCQhAcHIxLly7h0qVLCA4Oxt27d2VH+w8rKyvkyJEDOXPmRM6cOZEjR47/DEdHR+TMmRNOTk7Imzcv8uTJ83TY2NhwviSiDPPkyRNRrVo1nD9/XnYUTWnfvj1WrFjB+VgjWKg14siRI6JWrVp8lVY6jRgxAhMnTuSERESvlJycLEJDQ3Hp0iWEhITg4sWLCAkJQUhICJ48eSI7XpZxcHD4T9EuUKAAXFxcULBgQRQqVAiFChWCs7MzyzcRvVbHjh3FihUrZMfQlKJFi+LkyZPImTMn51iNYKHWkB9//FF8+eWXsmNoiqIoWL58Odq3b89JiYgQExMjLl68+LQwBwcHIzg4GDdu3EBqaqrseJqSL18+ODs7w8XFBcWLF0epUqVQqlQpeHp6In/+/JxziQxuypQpYtiwYbJjaIqVlRUCAwPh7e3NOVRDWKg1xGw2i6ZNm2Lr1q2yo2hKtmzZcOjQIT7UgchA0tLSREhICM6fP48zZ87g/PnzOHfuHG7cuAEe9zJfrly5UKpUKZQtWxbVq1dH9erV4eHhwTmYyCD27NkjGjZsyA8q0+nnn3/G8OHDOVdqDAu1xjx69EhUrFgR4eHhsqNoCh9SRqRv0dHR4vjx4wgMDMSJEydw8OBBPH78WHYsekbOnDlRpUoV+Pr6okaNGqhRowZsbW05JxPpzM2bN4WXlxcePHggO4qmNG7cGFu2bIGiKJwXNYaFWoN4P/XbqVevHrZu3QpLS0tOVEQad/XqVbF3717s2bMHhw4dwvXr12VHonSys7NDlSpVUKNGDdSrVw++vr68L5tI4xITE0WtWrVw/Phx2VE0JX/+/Dh9+jQKFCjAOVCDWKg1ivdTv51hw4Zh0qRJnKyINObOnTsiMDAQO3fuxI4dO1igdcjOzg6+vr6oX78+6tevj0qVKnGlhkhjevXqJebPny87hqaYTCbs2LED77//Puc7jWKh1ighhGjVqhX8/f1lR9GcefPmoWfPnpy0iFQsOTlZ7N+/HwEBAdi8eTNCQkJkR6IsVqBAAdSvXx8NGjRAgwYN4OzszHmbSMV+++03MXDgQNkxNOfbb7/F6NGjOb9pGAu1hj169EhUqlQJYWFhsqNoiq2tLQ4cOIDKlStz8iJSkVu3bomAgABs2bIFO3fuNNTrqujVFEWBl5cXWrZsiRYtWvAhk0Qqc/jwYVGnTh0kJyfLjqIpTZs2hb+/P0wmE+c0DWOh1jjeT/12ChcujOPHjyNfvnycwIgkun79uvD398eqVatw6NAhPoGb3kiRIkXQqFEjNGvWDI0aNYK1tTXnciJJ7t69KypXroyIiAjZUTSlSJEiOHHiBPLkycP5S+NYqHVg8uTJYvjw4bJjaE6dOnWwfft2WFlZcSIjykJnzpwRa9euxdq1a3H+/HnZcUjjcufOjQ8++ACtWrVC06ZN+eRwoiyUnJws6tati0OHDsmOoil2dnY4ePAgKlasyPlKB1iodaJjx45ixYoVsmNozuDBgzFt2jROZkSZLCQkRCxduhTLli3D5cuXZcchncqRIwdatWqFjh07okGDBnyrA1Em69evn/jzzz9lx9CcuXPnolevXpyfdIKFWifi4uJE1apVudrzFubMmYPevXtzUiPKYLdv3xarVq3i5dwkRa5cudCsWTO0a9cOH3zwASwsLDjPE2WgxYsXi+7du8uOoTl9+vTBn3/+yflIR1iodeTKlSuiSpUqiIqKkh1FU2xtbbFv3z54e3tzciN6R3FxcWL16tVYvHgx9u7di7S0NNmRiODq6ooOHTqgW7dufKAZUQY4deqU8PX1RUJCguwomlKhQgUcOnQIdnZ2nId0hIVaZ7Zv3y4++OADnsSmk7OzM4KCglCwYEFOcERv4cSJE2LRokVYsmQJHj16JDsO0UuVLl0a3bt3x0cffcSHARG9hfv37wsvLy/cunVLdhRNyZ07N4KCguDu7s55R2dYqHVo7NixYty4cbJjaE61atWwZ88e2NjYcKIjegOPHz8Wq1atwsyZM3HmzBnZcYjSxdbWFs2bN0efPn1Qr149KIrCuZ/oNVJTU0WDBg2wd+9e2VE0xWQyYdOmTWjSpAnnGR1iodYhIYTw8/PDunXrZEfRnH79+uH333/nZEf0Cnv37hUzZ87E+vXr+co+0oUSJUqgZ8+e6NGjB69UInqFoUOHimnTpsmOoTnjxo3DmDFjOLfoFAu1TkVFRYkqVargypUrsqNozqxZs/Dxxx9z0iN6RmxsrFi2bBlmzJiBc+fOyY5DlClMJhM++OADDBkyBPXr1+dxgOgZf/31l+jatavsGJrzwQcfYOPGjTCZTJxTdIqFWscuXbokfHx8EBMTIzuKplhZWWHnzp2oVasWJz4yvHPnzomZM2fir7/+QmxsrOw4RFnGy8sLgwcPRocOHXgrEBnemTNnRPXq1REfHy87iqa4ubkhKCiIz2vQORZqnVu3bp3w8/Pj62rSKX/+/AgKCoKLiwsnQDIcIYTYtWsXpk2bhs2bN3P+IEPLly8fevbsiQEDBsDV1ZXHBDKcR48eiSpVquDatWuyo2iKnZ0dAgMDUalSJc4bOsdCbQCff/65mDRpkuwYmlO1alXs3buXKxNkGAkJCWLx4sX45ZdfcOnSJdlxiFTFysoKbdu2xfDhw3mCTIaRlpYmPvjgA2zfvl12FM1ZsmQJunTpwrnCAFioDcBsNotmzZohICBAdhTN6d69OxYuXMjJkHTt7t274rfffsMff/yBhw8fyo5DpHoNGzbEF198gTp16vD4QLo2cuRI8dNPP8mOoTlDhw7FL7/8wvnBIFioDeLRo0fC29sbV69elR1Fc2bMmIEBAwZwUiTdCQsLE1OmTMHs2bORkJAgOw6R5lSsWBFDhw5Fly5dYGFhweME6cr69etFmzZteNtPOlWvXh179uyBtbU15wSDYKE2kLNnz4rq1asjLi5OdhRNsbKywvbt27kSQbpx9epV8dNPP2HevHlITU2VHYdI88qUKYMRI0agU6dOsLKy4rGCNI8Ptn07BQoUwIkTJ/j6PYNhoTaYtWvXirZt2/LTxnTKkycPjh8/Dnd3d06QpFlBQUHihx9+wIYNG2A2m2XHIdIdNzc3fPHFF+jZsyeLNWlWbGys8PHxQXBwsOwommJlZYVdu3ahZs2a3PcNxiQ7AGWtNm3aKJ9//rnsGJoTGRmJNm3aID4+np9EkOYEBQWJpk2biipVqmDdunUs00SZ5MaNG+jbty88PT2xePFiYTabecwgTTGbzaJz584s029h2rRpLNMGxUJtQD/88AMaNmwoO4bmnD59Gv369ZMdg+iNnT9/XrRv3154e3tjy5YtsuMQGcbVq1fRvXt3lC1bFosWLWKxJs0YP348Nm3aJDuG5nz44Yfo378/y7RB8ZJvg3r8+LHw9vbGlStXZEfRnKlTp2LIkCGcNEm1Ll68KCZMmIC//vqLq9FEKlC2bFmMGTMGbdu2haIoPH6QKvn7+4vWrVvzuJFOFSpUwMGDB2Fvb89926BYqA0sODhYVK1alQ+cSCdLS0vs2LGDDykj1bl27ZoYPXo0VqxYwRMiIhWqXr06JkyYwMtCSXVCQkKEj48PoqOjZUfRlNy5cyMoKIjP2DE4XvJtYJ6ensqCBQvAD8vTJzU1FR06dMCtW7f4aRSpwqNHj8SoUaNE6dKlsWzZMpZpIpU6dOgQatWqhebNm4urV6/yGEKqEBsbK9q0acMynU4mkwl//fUXyzSxUBtd69atlZEjR8qOoTn3799HixYtkJCQwBMikiY+Pl5MnDhRFCtWDBMnTkRSUpLsSET0BjZt2gRPT08MGTJEREVF8ThC0vzvIWQXL16UHUVzvv/+ezRu3JhlmnjJN/09mTZv3pwPLXoL3bp1w6JFiziZUpYym81iwYIFGDNmDCIiImTHIaJ34OTkhHHjxqFPnz6wtLTk8YSy1Ndffy2+++472TE0p2XLlli3bh2fiUAAWKjpH3xI2dv7448/0LdvX06olCUCAwPFkCFDcPLkSdlRiCgDlS5dGpMmTUKTJk14PKEssWHDBtG6dWuwC6RPyZIlcfToUeTMmZP7KgFgoaZnXLp0Sfj4+PAhZelkZWWFXbt28SEzlKkiIiLEF198gSVLlvDkh0jHmjVrhl9//RVubm48plCm4Tnf23FwcMDRo0dRunRp7p/0FO+hpqdKlSqlLFy4kA8pS6eUlBS0b98eERERbDmU4RISEsTEiROFp6cnFi9ezDJNpHObNm1C6dKlMXbsWJGUlMQdnjJcTEyMaNOmDct0OimKgnnz5rFM03+wUNNzWrVqpXzxxReyY2jO3bt30a5dOyQnJ/PkhzLMhg0bhKenJ0aNGoXY2FjZcYgoiyQkJGDcuHHw8vLC/v37eVyhDPO/h5AFBwfLjqI5o0aNQrt27Vim6T9YqOk/vv32WzRt2lR2DM05fPgwPvvsM9kxSAdu374tunfvLlq1aoWwsDDZcYhIkgsXLqB27dpo3769uH//Pos1vbPRo0dj8+bNsmNoTr169fDtt9/KjkEqxXuo6YViYmJE1apV+QnmW5gzZw569+7NTzAp3VJTU8Wvv/6KMWPG4MmTJ7LjEJGK5M6dGxMnTkTv3r35ZGF6K+vWrRN+fn68dSidChcujBMnTsDJyYn7Hb0QCzW91IULF0S1atV4qWk6lS5dGhcuXOCkS+ly6tQp0bdvXxw/flx2FCJSsZo1a2LevHkoXrw4jzOULpUrVxYnTpyQHUNTbG1tERgYCC8vL+5v9FK85JteqkyZMsrixYv5kLJ0qlChguwIpCEJCQli+PDhokqVKizTRPRaBw4cQKVKlfDHH38IwVURSof33ntPdgTN+e2331im6bVYqOmVWrZsqXz11VeyY2hK+/btZUcgjThy5IioVKkSJk+ejLS0NNlxiEgjYmNj0b9/f9SqVQuXL19mqaY30qFDB9kRNKV///7o1asXyzS9Fi/5ptcym82iZcuW2LRpk+woqleiRAlcunQJJpOJEzC9VGJiohg7diwmTZrEIk1E78Te3h5jxozB559/zmMPvVb58uXF2bNnZcdQvapVq2Lv3r2wsbHhPkWvxRVqei2TyaQsXboUpUuXlh1F9T777DOe0NArHT58WFSoUAETJ05kmSaidxYfH49Ro0ahXr16CAsL4yoJvdKQIUNkR1C9/PnzY/Xq1SzT9Ma4Qk1v7OLFi6Jq1ap8SNlLODk5ISwsDPb29pyA6T/S0tLEpEmT8PXXXyMlJUV2HCLSoRw5cmDmzJno0qULj0P0QklJScLNzQ13796VHUW19uzZgzp16nAfojfGFWp6Y6VLl1a8vLxkx1Ct/v37s0zTC4WHh4u6deti1KhRLNNElGliYmLQtWtXdO/eXTx58oQrJvQfNjY2yqBBg2THULUHDx7IjkAawxVqemObN28WzZo1kx1DlXLlyoUrV64gd+7cLNT0nNWrV4s+ffrg8ePHsqMQkYG4ubnhr7/+QvXq1Xlcouc8efJElChRgqvUL1GmTBmcPXuWt/DRG+MKNb2R1NRUMXLkSNkxVGv06NEs0/ScuLg48eGHH4p27dqxTBNRlrtx4wbq1KmDn376SZjNZq6e0FMODg7K6NGjZcdQrQsXLmD9+vWyY5CGcIWa3sj06dMFH2TxYkWKFEFISAgfXkFPXb58WbRp0wbnz5+XHYWICPXq1cPixYvh7OzM4xQBAFJSUkSZMmVw+fJl2VFUqWzZsjhz5gxXqemNcIWaXuvx48di/PjxsmOo1nfffccyTU9t2rRJeHt7s0wTkWrs2rUL5cuXx65du7iKQgAAKysr5fvvv5cdQ7XOnz8Pf39/2TFII1io6bXGjRuHyMhI2TFUqVy5cujcubPsGKQCaWlpYuzYsaJly5aIioqSHYeI6DkPHjxA48aNMXHiRCF4eSIBaNu2LapVqyY7hmqNGzcO3FfoTfCSb3qlkJAQ8d577/HJxC+xdetWNGrUiKvTBhcZGSk6d+6M7du3y45CRPRaLVq0wMKFC+Ho6Mjjl8Ht27dP1KlTR3YM1dqwYQNatGjB/YReiSvU9ErDhw9nmX6JRo0asUwTTp48KSpXrswyTUSa4e/vD29vb5w7d46rKgZXu3Ztxc/PT3YM1eIqNb0JrlDTS+3cuVM0aNBAdgxVsrW1xYULF1C0aFEWagNbtGiR6NevHxISEmRHISJKNzs7O8yYMQO9evXisczAbt68KTw9PREXFyc7iipt3LgRzZo14z5CL8UVanohs9nM12S9whdffMEybWBJSUmiV69eokePHizTRKRZCQkJ6N27N4YNGybS0tK4wmJQrq6uytdffy07hmqNHTuWq9T0SlyhphdasmSJ6Natm+wYqlSsWDGcP38etra2LNQG9OjRI9G6dWvs379fdhQiogzTqFEjrFixAjlz5uSxzYCSk5NFhQoVEBwcLDuKKm3ZsgVNmjThvkEvxEJN/5GcnCw8PT1x7do12VFUadOmTWjatCknVQO6cuWKaNasGUJCQmRHISLKcB4eHti4cSM8PDx4jDOg/fv3izp16oDd4L98fHxw5MgR7hf0Qrzkm/7j119/ZZl+idatW7NMG9TBgwdF9erVWaaJSLdCQ0NRvXp17Nmzh43KgGrVqqV06NBBdgxVOnr0KLZv3879gl6IK9T0nKioKFG8eHG+d/oF7OzscOHCBbi7u7NQG8yKFSvEhx9+iMTERNlRiIgynaWlJaZNm4ZPPvmExzuDuXv3rihVqhSio6NlR1GdatWq4dChQ9wn6D+4Qk3PmThxIsv0S4wZM4Zl2mCEEGLMmDGiU6dOLNNEZBipqakYMGAAhg0bJsxmM1deDKRAgQLK2LFjZcdQpcOHD2PHjh3cH+g/uEJNT0VGRgp3d3fExsbKjqI6ZcqUwalTp2BlZcVCbRBJSUnio48+wpIlS2RHISKSplWrVli6dCns7Ox4/DOItLQ04e3tjZMnT8qOojrVq1fHwYMHuS/Qc1io6alRo0aJiRMnyo6hOoqiYPfu3ahTpw4nUIN4+PChaN26NQIDA2VHIY1TFAV58uRBnjx54OTk9Nz/ZsuWDba2trC1tYWdnR1sbGxgb28Pa2trZMuW7enfkZaWhpiYmP/83VFRUYiJiUFMTAyio6MRHR399J+joqLw6NEj3Llzh1dX0DurU6cO1q9fzyeAG0hQUJCoWrUq0tLSZEdRnV27duH999/nvkBPsVATAK5Ov8pHH32E2bNnc+I0iLCwMNGwYUOEhobKjkIqZzKZ4OzsDDc3N7i5uaFIkSJPR+HChZ8WZ5PJJHX+iIyMFHfu3EF4eDju3r2Lmzdv4vbt24iIiEBoaCiuX7+O1NRU2d9OUrly5cohICAABQsW5PHQIAYMGCBmzpwpO4bq+Pr6IjAwkPsBPcVCTQCAL774QkyYMEF2DNXJkycPLl26BCcnJ06cBhASEiIaNGiAmzdvyo5CKmJnZ4fSpUujTJkyKFOmDMqWLYuSJUvC1dUV1tbWmp8bkpOTxbVr13Dp0iWEhIQgNDT06T/zmRr0rCJFimDr1q0oVaqU5rd7er2YmBjh6emJ27dvy46iOnv37kXt2rW5HxAAFmoCV6dfZdGiRejWrRsnTAM4deqUaNy4Me7fvy87Cknk4uICHx8fVKpU6Wl5dnd3l77KLEtERIQ4efIkTp06hVOnTuHkyZMIDw+XHYskypMnDzZu3Ihq1aoZcp8wmmXLlonOnTvLjqE6devWxe7du7kPEAAWagLw5Zdfih9//FF2DNWpW7cudu3aBUVROGHq3MGDB0WzZs0QFRUlOwploezZs6Ny5crw8fGBj48PvL29eTnrG4iMjBQnT57EkSNHcOjQIRw6dOiF93iTftnb22PlypVo2rQp9xcDaNSokdi+fbvsGKqzf/9+1KxZk/sAsVAb3aNHj4SbmxtXp//FysoKp0+fRunSpTlR6ty2bduEn58f4uLiZEehTJYnTx7UrVsX77//PmrWrAlPT09YWFhwH39HaWlp4vz58wgMDMShQ4cQGBjIVWwDsLKywtKlS9G2bVvuQzoXEhIiypUrh+TkZNlRVKVevXrYuXMnt39ioTa6sWPHinHjxsmOoTqffvoppkyZwklS5/z9/UWHDh34FGSdsre3R/Xq1VG/fn3Ur18fFStWNOyl21nt2rVrYufOnfjfePz4sexIlAksLCwwd+5c9OjRg/uVzn3++edi0qRJsmOozsGDB1G9enVu/wbHQm1g8fHxokiRInj48KHsKKqSL18+hISEwNHRkROkjs2fP198/PHHfCWIzpQuXRotW7ZEkyZN4OPjo4uHhmldamqqOHbsGLZv345t27bh2LFjMJvNsmNRBjGZTJg9ezZ69erFfU3HYmNjRcmSJXHnzh3ZUVSlZcuWWL9+Pbd9g2OhNrBp06aJoUOHyo6hOvPnz8eHH37IyVHHpk2bJj799FNw/tM+CwsLVKtWDS1btkTLli1RokQJ7rsqd+/ePeHv74/169dj165dSEpKkh2J3pGiKJgxYwY++eQT7n86tmDBAtGzZ0/ZMVRFURScOXMG7733Hrd9A2OhNqiUlBRRokQJhIWFyY6iKl5eXjh27BgvC9WxqVOnik8//VR2DHoHtra2aNiwIVq2bInmzZsjb9683F81KjY2VgQEBGD9+vXYvHkzH26mYYqiYNKkSfjss8+4P+qUEEJUq1YNR48elR1FVbp06YIlS5ZwuzcwFmqDWrRokejRo4fsGKpiMplw6NAh+Pj4cFLUqZkzZ4qBAwdyZVqDTCYTatasia5du6Jt27a8JUOHEhMTxaZNm7BkyRIEBATwAUga9f333+PLL7/k/qlTJ06cEN7e3rxt4xkWFhYIDg7mFVIGxkJtQEIIUa5cOZw/f152FFXp1asX5s6dy8lQpxYsWCB69+7NkwCN8fT0RPv27dG9e3cULVqU+6dBREVFCX9/fyxevBi7d+/mfqsxP/74I0aNGsX9Vad69uwpFixYIDuGqvTp0wd//vknt3mDYqE2oI0bN4oWLVrIjqEqDg4OCA0NhbOzMydDHVq8eLH48MMPeVKuEU5OTujWrRu6deuGihUrcp80uLCwMDF//nzMmTMHERERsuPQG/r1118xcOBA7r86dPv2beHh4cHXTT7DxsYG165dQ8GCBbnNG5BJdgDKej/99JPsCKozYsQIlmmdWrNmjejVqxfLtAZ4eXnhzz//RFhYGKZMmaKwTBMAFClSRBk7dqwSHh6OHTt2oF27drC0tJQdi15j8ODB+PPPP7lqo0MFCxZUhg0bJjuGqiQlJWHKlCmyY5AkXKE2mKCgIFGlShXZMVSlUKFCCAkJQbZs2XjyrjPr1q0THTp0QEpKiuwo9BIODg7o0qUL+vfvj/Lly3MfpDcSHh4u5syZgzlz5vA1PipmMpmwaNEidOnShfu2zjx58kR4eHhw/3tGtmzZcOPGDTg5OXF7NxiuUBvMpEmTZEdQnR9//JFlWoc2b94sOnbsyDKtUmXKlMFvv/2GiIgI/PHHHwrLNKVH4cKFlfHjxyvXr1/H/Pnz8d5778mORC9gNpvx4YcfYs2aNVy90RkHBwdl7NixsmOoSlxcHGbMmCE7BknAFWoDuXnzpihatChSU1NlR1GNSpUq4fjx43xNls5s375dtGzZEomJibKj0L/UrFkTI0aMQNOmTaEoCvc7yhBCCLFjxw5MnjwZO3bs4JP8Vcba2hpr165F06ZNuc/rSFpamihfvjwuXLggO4pq5MmTB+Hh4bC3t+e2biBcoTaQ6dOns0z/y08//cQyrTPHjh0Tbdq0YZlWEZPJhBYtWuDgwYPYv3+/0qxZM4VlmjKSoihKw4YNlW3btilnzpxBjx49eJ+1iiQnJ6Nt27Y4cOAAP+nQEQsLC4XP5XleZGQklixZIjsGZTGuUBvEkydPhKurK6KiomRHUY0WLVpgw4YNPKnXkatXrwpfX1/cu3dPdhQCYGVlhY4dO2LkyJEoU6YM9zXKUjdu3BA//vgj5s2bxw+TVSJnzpzYt28fn5egM/Xr1xe7du2SHUM1ypQpg3PnzvEqLAPhCrVBzJ8/n2X6GRYWFvjhhx9kx6AMdP/+fdGoUSOWaRWwtrZG//79ce3aNSxatEhhmSYZ3NzclD///FMJCQlBz549YWVlJTuS4UVHR6N58+a4desWV3N0ZOLEiWB3/H8XLlwAP2AwFhZqAzCbzWL69OmyY6hKt27duGKmI3FxcaJZs2a4evWq7CiGZmFhgR49euDSpUuYOXOm4uLiwn2MpCtatKgyb9485dKlS+jZsycsLCxkRzK0mzdvokmTJoiKimKp1gkvLy+ldevWsmOoyrRp02RHoCzES74NYMOGDaJVq1ayY6iGtbU1goODUbRoUZ7s60BaWprw8/PDhg0bZEcxLEVR0LRpU3z33Xe8lJNU79KlS2LMmDFYtWqV7CiGVqtWLWzbtg22tracM3QgJCRElC1blrdX/ENRFAQHB6NkyZLcvg2AK9QGwE/JntevXz+WaZ0QQog+ffqwTEtUv359HDt2DBs3buSrr0gTSpUqpaxcuVI5dOgQqlevLjuOYe3fvx8dOnRAWloaV3Z0oGTJkkqXLl1kx1ANIQRmzpwpOwZlEa5Q69zFixdF2bJl+QqRfzg4OODKlSvInz8/T/x1YOzYsWLcuHGyYxhS+fLlMXXqVNSpU4f7EmmWEEIsX74cX375JW7cuCE7jiENGjQI06dP5zyiA2FhYaJkyZJISkqSHUUVsmfPjps3byJnzpzcvnWOK9Q69+uvv7JMP2PYsGEs0zoxZ84clmkJcufOjalTp+LEiRMs06R5iqIonTp1UkJDQzF16lQ4ODjIjmQ4v/76K2bOnMkTFR0oUqSI8vHHH8uOoRqxsbFYsGCB7BiUBbhCrWPR0dHCxcUFT548kR1FFfLkyYNr164hR44cLAEat23bNtGsWTPeq5WFLC0t0b9/f4wdOxa5c+fmPkS6dP36dTFkyBBs3LhRdhRDsbS0REBAAOrXr8+5RePu3r0rihcvjri4ONlRVKFYsWIIDQ2FyWTitq1jXKHWsYULF7JMP2PYsGEs0zpw/fp10aVLF5bpLFS3bl2cPHkS06dPV1imSc/c3d0Vf39/xd/fH0WLFpUdxzBSU1PRvn17hIaGcpVH4woUKKAMGDBAdgzVuHr1KjZt2iQ7BmUyrlDrlBBCeHp6IiQkRHYUVciTJw+uX7+O7NmzswxoWGxsrKhWrRouXLggO4ohFCxYENOnT4efnx/3GzKchIQE8eOPP2LixIlITk6WHccQSpYsiSNHjsDR0ZFzjoY9fPhQuLu7c1HnH/Xq1cPOnTu5TesYV6h1aufOnSzTzxgxYgTLtMYJIUSvXr1YprOAoijo1q0bzp49yzJNhmVnZ6eMHz9eOXHiBKpUqSI7jiGEhISgffv2SE1N5WqPhjk5OSn9+vWTHUM1du/ejQsXLnCb1jEWap2aMWOG7Aiq4eTkhP79+8uOQe9o3LhxWL16tewYuleyZEns3bsXixYtUvLkycMyTYZXtmxZ5dChQ/jhhx9ga2srO47u7dixA5999pnsGPSORo4cyYf8/UMIgdmzZ8uOQZmIhVqHwsLCxObNm2XHUI2RI0dydVrj1q9fL8aPHy87hq4pioJBgwbh1KlTqFWrFvcXomdYWloqX3zxhXLy5ElUrVpVdhzd+/XXXzF79myu6GmYk5OT0qdPH9kxVGPhwoWIj4/nNq1TLNQ69McffyAtLU12DFXInz8/PvnkE9kx6B1cuHBBdO/ena9/y0QFCxbE1q1bMX36dMXOzo5lmuglPD09lcDAQPz888+wsbGRHUfXBg0ahKCgIE78GjZixAjY29vLjqEKUVFRvMpOx1iodSYlJUXwnXf/7/PPP4e9vT0LgkY9fvxYtGrVCrGxsbKj6Fa7du1w7tw5NGzYkPsJ0RuwsLBQhg8frhw+fBilSpWSHUe3kpKS0K5dOzx69IilWqPy58+v9O3bV3YM1Zg1a5bsCJRJWKh1ZuPGjbh7967sGKqQJ08e8KEY2mU2m0XXrl1x5coV2VF0ydbWFlOnTsXKlSv5Kiyit1CxYkXl5MmTGDx4sOwounXjxg106NABaWlpLNUa9fnnn/PZA/84ePAgH06mUyzUOsNPv/7f4MGDkS1bNhYFjRo7diy2bNkiO4YulSxZEkePHsWQIUO4fxC9Azs7O2XatGnK2rVrkSdPHtlxdGnnzp348ccfZcegt+Ts7Kz06NFDdgzV4MPJ9InvodaR8PBwUbRoUd4/DSBbtmwICwsDn1KsTXv27BENGjTgtpwJunbtit9//x0ODg7cN4gyUEREhOjSpQv27dsnO4ruWFhYICAgAA0aNOC8pUHXrl0TJUuWRGpqquwo0jk6OiIiIoK3I+oMV6h1ZPbs2Swg/xgwYADLtEY9ePBAdO3aldtyBrO0tMSECROwePFihWWaKOMVKlRI2bVrF7755huYTDy9ykhpaWno2LEjbty4wVUgDSpatKjStm1b2TFUISoqCmvWrJEdgzIYV6h1IjU1Vbi5uSEiIkJ2FOlsbGxw7do1FCxYkKVBY4QQolmzZrzUO4MVKFAAq1atQo0aNbhPEGWBtWvXip49eyImJkZ2FF2pVq0a9u3bBysrK85lGnPmzBlRsWJFvrEDQI0aNXDgwAFuwzrCj1B1YvPmzSzT/+jVqxfLtEZNnjyZZTqDeXl54ejRoyzTRFmoTZs2SlBQEN577z3ZUXTl8OHDGDdunOwY9BbKly+vNG7cWHYMVQgMDOTDyXSGhVon+JCDv1laWuLzzz+XHYPewvHjx8VXX30lO4au9OjRAwcPHkThwoVZpomyWIkSJZTDhw+jS5cusqPoyoQJE7B//36WEQ0aNWqU7AiqwfN2feEl3zoQEREhihQpwntOAXTo0AHLly9nedCYJ0+eCC8vL4SGhsqOoguKomDMmDH45ptvoCgK9wciyaZNmyY+++wzmM1m2VF0wcXFBWfOnAFf+ac9vr6+4tChQ7JjSJc7d25ERETA1taW27AOcIVaBxYtWsQy/Y9PP/1UdgR6C3379mWZziDW1tZYuHAhxo4dq7BME6nDkCFDlE2bNiFHjhyyo+jCrVu30KdPH9kx6C0MGzZMdgRVePToETZu3Cg7BmUQFmodWLRokewIqlC7dm34+PiwQGjMrFmzxNKlS2XH0IVcuXJh27Zt6NatG/cDIpVp0qSJEhgYCDc3N9lRdGHNmjVYsGABL7PUmFatWqFYsWKyY6jCkiVLZEegDMJCrXFHjhwRly5dkh1DFfipp/ZcuXJF8KqCjFGsWDEcPnwYderUYZkmUqn33ntPOXLkCKpVqyY7ii4MGjQIly9fZqnWEJPJpAwaNEh2DFUICAjAw4cPuf3qAAu1xi1cuFB2BFXw8PBA06ZNZcegdDCbzaJXr16Ij4+XHUXzqlWrhsOHD6NkyZIs00Qqlz9/fmX37t3o2LGj7Cia9+TJE3Tp0gWpqaksJRrSq1cvODo6yo4hXUpKClasWCE7BmUAFmoNS05OFqtWrZIdQxU+++wzmEwmlgkNmT59Og4cOCA7hub5+flh165dyJs3L7d/Io2wtbVVli5dihEjRsiOonnHjx/HhAkTZMegdMiePbvy8ccfy46hCrzsWx/4lG8NW7lypejQoYPsGNLlzZsXYWFhsLOzY6HQiCtXrojy5ctzdfodDR8+HD/99BOf5E2kYT///LMYOXIkeD729mxsbBAUFISyZctyLtSIiIgI4e7ujpSUFNlRpAsJCYGHhwe3XQ3jCrWG8XLvv/Xt25dlWkPMZrPo3bs3y/Q7GjlyJH7++Wc+yZtI4z7//HNl0aJFsLKykh1Fs5KSktC9e3ekpKTwUwmNKFSokOLn5yc7hirwwazax0KtUXfv3hXbt2+XHUM6S0tLvjpDY6ZPn479+/fLjqFZiqJgypQpmDBhAos0kU507dpVCQgI4Gu13sGpU6cwZcoU2TEoHYYOHSo7giosWbIEgpeoaBoLtUYtX74cqampsmNI16pVK7i6urJYaMSVK1fEV199JTuGZplMJsyaNQuffvopt3kinalXr56yY8cO5M6dW3YUzRo7diyCg4NZTDTCx8dHqVKliuwY0l29ehVHjhyRHYPeAQu1RvGpgH8bOHCg7Aj0hnip97uxsLDAvHnz8NFHH7FME+mUt7e3cuDAATg7O8uOokmJiYno2bMn0tLSWKo14pNPPpEdQRX4cDJt40PJNCgsLEy4u7sb/gEmZcuWxblz51guNGLq1Kl85/Rbsra2xrJly9CmTRtu70QGcOnSJVG/fn1ERETIjqJJkyZNwrBhwzhfakBiYqJwdXXFw4cPZUeRKk+ePLh9+zasra253WoQV6g1aMWKFYYv0wBXp7Xk+vXrvNT7Ldnb28Pf359lmshASpUqpezZsweurq6yo2jS119/jevXr/NESQNsbW2VXr16yY4hXWRkJPhsJO1iodYgXu4NODo6omvXrrJj0BsaMmQIL/V+C9myZcPGjRvRqFEjlmkigylRooQSGBiI4sWLy46iOQkJCbyUWEM++eQTWFhYyI4h3bJly2RHoLfEQq0xV65cESdPnpQdQ7ru3bsjW7ZsLBkasHHjRrFx40bZMTQnZ86c2L17N95//31u50QGVbhwYWXPnj0s1W9h69atWLduHVepNaBIkSLKBx98IDuGdP7+/oiLi+M2q0Es1BqzfPly2RFUga/K0oaEhATB12Kk3/8u8/b29maZJjI4FxcXZffu3XB3d5cdRXOGDBmCJ0+esKBowIABA2RHkO7JkyfgAoQ2sVBrzMqVK2VHkM7X1xdlypRh0dCAH374AdeuXZMdQ1Osra2xZs0a1KpVi9s4EQEAXF1dlb1796JIkSKyo2jKzZs38d1338mOQW+gQYMGKFq0qOwY0vGyb21iodaQS5cuiXPnzsmOIV3fvn1lR6A3cOXKFTFp0iTZMTTFysoKq1evRuPGjVmmieg5hQsXVnbs2MFXaqXT5MmTcfbsWa5Sq5zJZOLDyfD3rQqRkZHcXjWGhVpDli5dKjuCdI6OjvDz85Mdg97AkCFDkJiYKDuGZlhYWGDRokVo3rw5yzQRvVCJEiWU3bt3I3/+/LKjaEZqaioGDBgAwdejqF7v3r1hZWUlO4ZUycnJWLdunewYlE4s1BqyatUq2RGk69GjB+zt7Vk4VG7t2rViy5YtsmNohslkwty5c9GxY0du20T0SqVKlVICAgLg6OgoO4pmBAYGYvHixbJj0GsUKFBAadKkiewY0vGyb+1R+IGdNpw8eVJ4eXnJjiHduXPnULZsWZYOFYuPjxdlypTBjRs3ZEfRBEVRMGPGDHzyySfcronojR05ckTUq1ePryR8Q/nz58fly5eRPXt2zrUqtmnTJtG8eXPZMaQymUwIDw9HoUKFuK1qBFeoNYIPI/v7YWQs0+r37bffskynw08//cQyTUTpVrVqVWXJkiV8f+8bunfvHn7++WfZMeg1mjRpAhcXF9kxpDKbzbwqVWNYqDVACCFWrFghO4Z0H374oewI9BrXr18Xv/zyi+wYmvHNN99g+PDhLNNE9FZat26tzJgxQ3YMzZg8eTJu3brFSzNVzMLCQuH5Hi/71hoWag04duyY4Vf87O3t0b59e9kx6DW++uorJCUlyY6hCb1798bYsWNZpononfTr108ZM2aM7BiaEB8fjy+//FJ2DHqN3r17w2QydkU5fvw4rl69yg9/NMLYW6tGLF++XHYE6dq0aYMcOXKwfKjYmTNneCXFG2rUqBH++OMP2TGISCfGjRunDBgwQHYMTViyZAmOHz/OoqJibm5uSu3atWXHkEoIwfN/DWGhVjmz2Sx4H8XfT/cmdRs+fDjMZrPsGKr33nvvYeXKlbC0tOQHRESUYaZOnQo+Ifn1hBAYNmyY7Bj0Gt27d5cdQbq//vpLdgR6Q3zKt8rt27dP1KlTR3YMqQoVKoSwsDBYWFiwgKjUtm3bROPGjWXHUD1nZ2ccOXIEhQsX5rZMRBkuNjZW+Pr64ty5c7KjqN7q1avh5+fHuVil4uLiRIECBfDkyRPZUaQ6c+YMypUrx+1U5bhCrXK8hPbvh5GxTKuX2WwWo0aNkh1D9RwcHLBp0yaWaSLKNNmzZ1fWr18PJycn2VFUb+TIkUhJSeGqkkply5ZNad26tewY0vHhZNrAQq1iaWlpYu3atbJjSNe1a1fZEegV/vrrL5w+fVp2DFUzmUxYsmQJKlWqxDJNRJmqaNGiyrp162BjYyM7iqpdvXoVc+fOlR2DXoGXfQNLly6F4OXEqsdCrWJ79uzBvXv3ZMeQytvbG6VKlWIJUank5GQxduxY2TFUb+rUqWjZsiW3YyLKEjVq1FD+/PNP2TFU79tvv0VCQgLLikq9//77cHV1lR1DqvDwcBw8eFB2DHoNFmoV49P9gE6dOsmOQK8wY8YMXLt2TXYMVRs6dCgGDRrEMk1EWapHjx4KH771ardv3wY/eFAvk8mk8CpFYP78+bIj0GvwoWQqlZCQIJydnREdHS07ijQWFha4efMmnJ2dWUZUKCoqShQrVgyPHj2SHUW1mjVrhg0bNsBkMnEbJqIsl5aWJho2bIjdu3fLjqJa+fPnx9WrV5EtWzbO0yoUHBwsSpcuLTuGVNmzZ8edO3e4jaoYV6hVat26dYYu0wBQt25dlmkVmzZtGsv0K3h4eGDx4sUs00QkjYWFhbJs2TK4uLjIjqJa9+7dw6+//io7Br2Ep6enUqFCBdkxpIqNjcWaNWtkx6BXYKFWqYULF8qOIB0v91avJ0+eiBkzZsiOoVoODg5Yu3YtHB0dWaaJSKp8+fIpq1evhrW1tewoqjVx4kQ8fvyYl2yqVIcOHWRHkG7BggWyI9ArsFCr0K1bt8SuXbtkx5DKxsYGbdq0kR2DXuLXX3/Fw4cPZcdQJUVRMG/ePJQpU4ZlmohUwcfHR5k0aZLsGKoVFRWFadOmyY5BL9GxY0coirEPqXv37sW1a9f4oY9KsVCr0Ny5c5GWliY7hlRNmjTh6p5KxcfHi6lTp8qOoVpffPEF2rVrx22XiFRl0KBBCq/8erlffvkFjx49YmFRITc3N8XHx0d2DKmEEPjtt99kx6CXYKFWmaSkJPH777/LjiFdx44dZUegl/jzzz9x//592TFUqXbt2hg/frzsGERELzR79myUKlVKdgxViomJAW9lUi+eF/694BYTE8MPfVSIT/lWgZSUFHHq1CkcPnwYy5cvx5EjR2RHksrW1hYPHjyAg4MDV/lUJikpSRQrVgwRERGyo6hO3rx5cerUKRQqVIjbLRGp1rlz54S3tzcSExNlR1Gd3LlzIywsjOcfKnTnzh3h6upq+Cs4y5cvj/bt26N69erw8vJC9uzZua2qgKXsAEZz+/ZtceLECVy8eBEXLlzAxYsXcfHiRSQkJMiOphqNGjXiwUyl5syZwzL9AoqiYO7cuSzTRKR67733nvLtt9+Kzz//XHYU1Xn06BHmzp2LIUOGyI5C/+Ls7KzUqlVL7NmzR3YUqc6cOYMzZ848/XdnZ2dRpkwZlC5dGv/73woVKvA8OotxhToTREZGisuXL+Py5csIDQ3FlStXEBoaiuDgYBbnN7Bw4UJ0796dE4HKJCcnixIlSiA8PFx2FNUZNWoUfvzxR26zRKQJZrNZNG7cGDt27JAdRXVcXV1x5coVWFtbc05XmT/++EP0799fdgzVUxQFbm5uKFmyJIoXL47ixYujRIkSKF68ONzd3WFlZcVtO4OxUL+lhw8fiuvXr+PKlStPi/Ply5dx5coVvpv3HVhbW+Pu3bvIlSsXd3aVmTNnjvj4449lx1CdSpUq4ciRIzxAEZGm3Lt3T5QvXx737t2THUV15s2bh549e3JOV5m7d++KQoUKwWw2y46iWZaWlihSpMjTov2/sl20aFG4u7vD1taW2/1bYKF+ieTkZHHr1i1cu3btP+Pq1auIioqSHVGXGjdujICAAO7MKpOWliY8PT1x+fJl2VFUxdbWFkFBQXxFFhFpUkBAgGjatCl4Lvi8kiVL4uLFizCZTJzbVaZmzZoiMDBQdgzdypUrF4oWLfrCUaRIEVhYWHCfeAHD3kNtNptFREQEbty4gevXrz83rl27hoiICB5gJOC7p9Vp7dq1LNMv8PPPP7NME5FmNWnSROnVq5eYO3eu7CiqEhISgnXr1sHPz092FPqXNm3agIU68zx+/BgnTpzAiRMn/vN71tbWKFy4sPjfarabm9tzo0CBAoY9H9L1CvXdu3fF/wrzv/83PDwcycnJsiPSMywsLHDnzh3kzZvXsDukWvET4f9q1KgRAgICoCgKt1ci0qzo6GhRpkwZPnDyXypXrozjx49zfleZGzduiKJFi3LRS4Xs7Oz+U7KfHfny5dPt/qTpQh0ZGflcYf53aeYDwLSlZs2a2L9/v253Nq06deqUqFSpkuwYqpI9e3ZcuHABrq6u3F6JSPO2bNkimjZtKjuG6uzfvx81a9bkPK8ylStXFi9aQSV1y5YtGzw8PODh4YGSJUuiVKlST/9d66//UvUl32lpaSIsLAyhoaEIDQ3FtWvXnivPMTExsiNSBmrWrJnsCPQCU6dOlR1BdX788UeWaSLSjQ8++EDp1q2bWLx4sewoqvLrr7+iZs2asmPQv7Ru3Ros1NoTFxeHU6dO4dSpU//5vUKFComSJUs+LdjlypVDpUqVNPOQYlWsUMfFxYnz588jODgYoaGhCAkJefrU7KSkJNnxKItcvHgRnp6emthxjOLBgweicOHCSExMlB1FNXx8fHDo0CE+rIaIdCUqKkqULVuWl34/w9LSEteuXeMHqCoTHBwsSpcuLTsGZYGiRYvCy8vruaHGki2lUMfExIjVq1fj8OHDOH78OC5cuIDU1FTZ3wuSqHjx4rh8+bLqdhCj+/bbb8WYMWNkx1ANa2trnDp1CqVLl+a2SkS6s3btWsEHcT3vyy+/xPfff885X2U8PDwEH5ZqTO7u7vD29kbt2rVRt25dlCpVSvr+maWF+tq1a2L69OmYN28eYmNjZX/tpCKffvoppkyZIn2HoP+XkpIi3N3duVrxDJ5YEZHetWjRQmzcuFF2DNVwcnJCeHg47OzsOPeryKeffip4SxoBgLOzM5o0aYLmzZujYcOGsLe3z/J9NUsK9d27d8VXX32FhQsXIi0tLau/RtKA3bt3o27dujxYqchff/0lunbtKjuGari4uCA4OBgODg7cTolIt8LDw0Xp0qURFxcnO4pqzJs3Dz179uTcryK7du0S9evXlx2DVMbOzg5NmjRB9+7d0aRJE1hbW2fJfpuphTopKUlMnToV33//PVek6aUcHR1x//59WFlZ8WClIlWrVhVHjx6VHUM1li9fjg4dOnAbJSLdGz9+vPjmm29kx1CNChUq4NSpU5z/VSQ5OVnkzZuXDyiml3JyckKvXr0waNAguLi4ZOr+a8qsv/jo0aOiXLlyGDVqFMs0vVKjRo1YplUmKCiIZfoZNWrUQPv27WXHICLKEiNHjoSHh4fsGKpx+vRpHDhwQP5TfOkpa2trpWHDhrJjkIo9fPgQP/30E4oWLYru3buLa9euZdo+nOGFOiUlRXz99deiRo0aCA0NzdzvFOkCJ0T1mT59uuwIqmFpaYmZM2dCURR+6ENEhmBjY6Pw/tTn/f7777Ij0L/w3en0JlJSUrB48WJ4enpiyJAhIioqKsOLdYZe8n358mXRsWNHnDx5Mku/UaRtN2/ezPRLMejNRUdHi4IFCyI+Pl52FFUYNGgQpk+fzu2TiAyndevWYv369bJjqIKtrS0iIiKQO3duHg9U4v79+8LZ2Rlms1l2FNKQggULYubMmWjZsmWG7csZtkK9efNm4e3tzTJN6VK6dGmWaZVZsWIFy/Q/smfPjtGjR8uOQUQkxZQpU2BjYyM7hiokJiZi6dKlsmPQM/Lly6dUrlxZdgzSmNu3b6NVq1bo06ePSExMzJCV5Xcu1EII8d1334kWLVogKipK9veINKZRo0ayI9C/zJ8/X3YE1RjI608mAACAAElEQVQ1ahTy5cvHD3yIyJDc3d2Vfv36yY6hGrNnz5Ydgf6F55H0tmbPno0aNWrg1q1b71yq3+mS78TERNGtWzesXr1a9veENCogIACNGzdmYVGJkJAQUapUKdkxVKFgwYIIDQ1FtmzZuH0SkWE9fvxYFC9eHI8ePZIdRRWCgoLg5eXF44JKHDhwQNSqVUt2DNIwV1dXbNu2DZ6enm+9X7/1CnV0dLRo0qQJyzS9NVtbW3ASVJe5c+fKjqAa48aNY5kmIsPLlSuXMmLECNkxVIPHSXWpWrUqsmfPLjsGadjNmzdRs2ZNnD59+q1Xmd9qhfru3buiSZMmOH36tOzvAWlY/fr1sWPHDhYWlUhNTRWFCxfGnTt3ZEeRrmTJkjh//jwsLS25fRKR4SUmJoqSJUsiPDxcdhTpcubMidu3b8Pe3p7HB5Vo0aKF2Lhxo+wYpHF58+bF3r17Ubp06XTv2+leob5586aoUaMGyzS9s/fff192BHpGQEAAy/Q/vv/+e5ZpIqJ/2NraKt9++63sGKoQHR2NNWvWyI5Bz+DrVykjPHjwAA0bNnyre6rTVajv378vGjVqhKtXr8r+mkkH6tSpIzsCPYMPI/tbuXLl0KZNG9kxiIhUpWvXrvD09JQdQxXmzZsnOwI9o0GDBrIjkE5ERESgcePGiI6OTlepfuNCHRkZKerXr4/g4GDZXyvpgIODA/iqA/WIjIwUmzdvlh1DFcaMGQNFUbg6TUT0DJPJpPA1gn/bt28fwsLCMuR1O/TuSpYsqRQuXFh2DNKJCxcuoHv37hDpuC/6jQp1XFycaNy4Mc6dOyf7aySdqF69OqysrFhaVGLhwoVITk6WHUO6MmXKoHXr1rJjEBGpUocOHcA3QQBCCD6UV2Xq1asnOwLpiL+/PyZOnPjGf/61hVoIIXr16oWgoCDZXxvpSN26dWVHoGcsXbpUdgRV+Oabb2AymfhBDxHRC1hYWHCV+h/Lli2THYGeUbt2bdkRSGdGjx6NHTt2vNEq9Wuf8j127Fgxbtw42V8T6czhw4dRtWpVFhcVuHbtmihWrJjsGNKVLVsWZ86cYaEmInqFtLQ0UaZMGYSEhMiOIl1ISAg8PDx4zFCBGzduCHd3d9kxSGfy58+PEydOoFChQq/cz1+5Qr1+/Xoxfvx42V8L6YyDgwO8vLxkx6B/rFq1SnYEVRg1ahTLNBHRa1hYWChfffWV7BiqsHz5ctkR6B9ubm5KkSJFZMcgnbl37x46d+6M1NTUV65Am17xF4iPPvoIb/OeaqJXqVatGu+fVhG+/gNwdXVF+/btZccgItKEzp07g6uBvOxbbWrVqiU7AunQ/v37MWXKlFf+mZcW6gEDBiAyMlL210A6VL16ddkR6B83btwQfD4CMHToUH7IQ0T0hiwsLJQhQ4bIjiHdpUuXcPr0aa48qQTvo6bMMnbsWFy5cuWl+/oLC/WKFSsEV60os1SrVk12BPrHqlWrDH8VSo4cOdC7d2/ZMYiINKVXr15wdHSUHUM6rlKrBws1ZZaEhAQMHTr0pb//n0IdHR0t+KkjZRaTyQQfHx/ZMegf/OAM6Nu3L3LmzMnVaSKidMiePbvSp08f2TGkW7lypewI9I/ixYsrhQoVkh2DdGrz5s3Yv3//C1eh/lOov/nmG9y7d092ZtKp0qVLw9HRkeVFBcLDw8WxY8dkx5DKysoKgwcPlh2DiEiTBg0aBCsrK9kxpLpx4wYv+1YR3lZImellD2R8rlBfuHBBzJw5U3ZW0jFOdOrBy72BNm3awMXFhR/wEBG9BRcXF4UPdAT8/f1lR6B/VK1aVXYE0rHAwEAEBQX95+T5aaEWQoiBAwciJSVFdlbSMd4/rR683Bvo37+/7AhERJr2qvsKjWLDhg2yI9A/WKgps71o8Vn53wrVkiVLRLdu3WRnJJ27dOkSSpYsyRVByW7evCmKFCli6BXqMmXK4Pz589wWiYjeUZUqVQz9xghFURAWFgZXV1ceUyRLTEwUOXPmRHJysuwopFP29va4f/8+smXL9nR/NwFAbGysGDlypOx8pHN58+aFh4eH7BgEYOPGjYYu0wDwySefyI5ARKQLRn84mRCCl32rhK2trVKhQgXZMUjH4uPjsXXr1ud+zQQAY8aMwe3bt2XnI52rUaMGFEXhp7cq8O+JwGgcHBzQtWtX2TGIiHShU6dOyJEjh+wYUvGyb/XgZd+U2datW/fcv5vOnz8vZsyYITsXGQAfSKYOSUlJYs+ePbJjSNW1a1fkyJGDH+4QEWUABwcHpXPnzrJjSLVv3z5ER0cb+9IvlWChpsy2detWiGcu9TQNHDgQqampsnORAdSoUUN2BAJw4MABPHnyRHYMqXr16iU7AhGRrvTr1092BKmSk5MREBAgOwaBhZoyX2RkJIKDg5/+u2nfvn2yM5EB2NnZoVKlSrJjEIBt27bJjiBV6dKlUaVKFa5OExFloPLlyyve3t6yY0i1adMm2REIgLu7u1KwYEHZMUjnAgMDn/6z6R3+HqI35uPjA2tra5YYFTD6J+g9evSQHYGISJeM/raYnTt3PncZKMnj4+MjOwLp3OHDh5/+Mws1ZYmaNWvKjkAAbt26JS5cuCA7hjQmkwlGv8+PiCizdOjQAVZWVrJjSHPv3j2cPXtWdgwCUK1aNdkRSOfOnz//9J9ZqClL+Pr6yo5AALZs2SI7glSNGjWCi4sLr5QgIsoEefPmVRo2bCg7hlQ7duyQHYHAB+FS5rt48SLMZrMAWKgpC5hMJj4gQiWM/rqs7t27y45ARKRrXbp0kR1BKhZqdfDy8oK1tbXsGKRj8fHxCAsLA8BCTVngvffeQ86cObkqKFlKSorYvXu37BjS2Nvbo3nz5rJjEBHpWsuWLZE9e3bZMaTZv38/EhISeB+1ZLa2tkrFihVlxyCdu3TpEgAWasoC77//vuwIBODgwYOIjo6WHUOapk2bIlu2bPxgh4goE9nb2yutWrWSHUOaxMREHDx4UHYMAu+jpswXHh4OgIWaskCDBg1kRyAAu3btkh1BqrZt28qOQERkCJ06dZIdQart27fLjkBgoabMd/PmTQAs1JTJbGxsUKtWLdkxCMCBAwdkR5DG3t4eTZs2lR2DiMgQ3n//feTIkUN2DGl27twpOwLh7+3QZGLVoczDFWrKErVq1eJltiqQnJwsjh07JjuGNLzcm4go69jY2ChNmjSRHUOa06dP4+HDh7yPWjInJyfFy8tLdgzSMa5QU5bw8/OTHYEAnDhxAgkJCbJjSNOuXTvZEYiIDKVly5ayI0gjhMChQ4dkxyAAjRs3lh2BdOzevXsAWKgpE1lYWKB169ayYxCMfbm3lZUVjP5eVCKirPbBBx8Y+rVFfDCZOnTs2FF2BNKxhw8fAmChpkzUpEkT5MuXj5fZqoCRC3Xt2rX52jYioiyWM2dOpW7durJjSBMYGCg7AgEoXbq0UqFCBdkxSKcePXoEs9ksWKgp04wYMUJ2BAJgNpuFkS8948PIiIjkMPJl3//casX7qFXg008/lR2BdCotLQ2PHz/mCjVljqZNm6JmzZpcFVSBCxcu4NGjR7JjSNOsWTPZEYiIDOmDDz6QHUGapKQkBAUFyY5BALp06QKuUlNmiYyMZKGmjOfh4YG5c+fKjkH/MPLl3p6enihevDg/2CEikqBIkSKKh4eH7BjS8LJvdbCwsFDWrFmDQoUKyY5COhQdHc1CTRnD1tYWFSpUwDfffIPjx48jf/78LDEqYeQHoxj5tS1ERGpg5IdCGvn4qzZFixZVzp07h9GjR6NixYqws7OTHYl0Ij4+HgoA3t9BbyRv3rwoXLgwChcujCJFiqBEiRIoUaIEPDw8ULhwYSiKwhKtQoULFxb/e0+e0QQEBKBx48bcLomIJPH39xdGvZfa0dHx78tBTSYeh1RGCCFu3ryJ0NBQhIaG4sqVKwgLC0N4eDjCwsLw4MED2RFJIzZv3sxCTX+ztrZGwYIF4eLiAjc3t+eKc+HCheHm5gZ7e3seEDQmPDxcFClSRHYMKaysrPDo0SM4ODhwuyUikiQ2NlbkyZMHKSkpsqNIcf78eZQpU4bHIY1JSEgQN27ceFqy/1e0b9y4gYiICERERCA5OVl2TFKBVatWwVJ2CMp8VlZWcHJyQsGCBVG0aFE4Ozv/55+LFCkCCwsLTvg6c+LECdkRpPHx8WGZJiKSLHv27ErVqlWFUZ/ncfLkSZQpU0Z2DEonOzs7xdPTE56eni/9M48fPxa3b9/GnTt3cO3aNfz7n8PCwhAXFyf7S6FMFh8fz0KtdSzL9CpnzpyRHUGaevXqyY5ARET4+z5qoxbqM2fOoFu3brJjUCbIlSuXkitXrld+YMLSrX9xcXEs1GrGskzv6tSpU7IjSMNCTUSkDrVq1ZIdQZrTp0/LjkASsXTrHx9KJpGDgwNcXV1RsGBBFCpUCC4uLnB2dkbhwoXh7OwMFxcXFChQgA/6onfi5uYmwsLCZMfIcvb29nj8+DGsra25/xARSZaQkCAcHR0Nec+pk5MTHjx4wGMRvTUhhLh79y4iIiJw+/Zt3Lx5E3fu3MGtW7ee+7XY2FjZUQ1p3LhxXKHODLly5XrhavK//peTK2WqJ0+eiPDwcNkxpPD29maZJiJSCTs7O6VSpUriyJEjsqNkuYcPH+L+/fsiX758PCbRW1EURXF2doazs/Mr/1xiYqK4ffv20xXuF616h4eHIzU1VfaXpCsJCQks1OlhY2OD3Llzv7QoFy1aFK6urrCysuKkSdJduXIFQhjzApRq1arJjkBERM/w9fWFEQs18PfxOF++fLJjkM7Z2toqRYsWRdGiRV/55x4/fiyeLdn/Lt4RERGIjo6W/eVoBu+hfsazq8ovKsr/+2SIl2CTVly+fFl2BGlYqImI1MXX1xeTJ0+WHUOKy5cvo3r16rJjEAH4+75uLy8veHl5vfTPJCQkiJetcv/vf8PCwpCWlib7y5HOkE/5bt68OerWrfv0PuVChQqhYMGCsLGxYVEmXTFqoVYUBVWrVpUdg4iInlGzZk0oimLIK6euXLkiOwJRutjZ2b12tTspKUncuXMHERERuHXrFu7cuYN9+/Zh/fr1suNnKUOuUHfs2BGdO3dmeSbdM+oBvFixYsibNy/3cSIiFXFyclKKFy8ujPhhb2hoqOwIRBnOxsZGcXNzg5ub29Nfc3FxEUYs1CbZIYgoc1y/fl12BCl4uTcRkTpVrlxZdgQpbty4ITsCUZYw4iXgqampLNREenXz5k3ZEaQw6gkbEZHaVapUSXYEKYx6PCbjMZvNsiNkORZqIp0SQoiIiAjZMaSoUKGC7AhERPQCRi3U9+7dQ3JysvFuHifD4Qo1EenGgwcPkJiYKDtGllMUBeXKlZMdg4iIXqBSpUow4stSzGYz7ty5IzsGUaYz4gp1WloaCzWRHt26dUt2BCnc3d3h6OhovLM1IiINcHR0VNzd3WXHkIKXfZMRcIWaiHTDqJd7ly9fXnYEIiJ6hYoVK8qOIIVRj8tkLFyhJiLduHfvnuwIUvD+aSIidTPyfdREescVaiLSDaMeuMuUKSM7AhERvUKpUqVkR5Diwf+xd9/hVVRrF8DXnHRSSKihE0iooRN6EYII0nsTEOmCBcsFlWq76EUFVCR0kI40AemdUEPvvQRCTSEkQNrZ3x8qn4WSQJJ3yvo9z34uV73XlZMpZ83eM3P7tnQEogzHGWoiMg2rnrit+kWNiMgoihUrJh1BxK1bt6QjEGU4zlATkWlYsVDbbDYULVpUOgYRET1FQEAAbDbrff1koSYrsOIMNQs1kUlZ8cTt5+cHV1dXPuGbiEjHXFxctAIFCkjHyHRWPC+T9VhxhppLvolM6s6dO9IRMp1VlxESERlNQECAdIRMZ8WVY2Q9nKEmItO4e/eudIRMx/uniYiMwYoXQGNjY6UjEGU4zlATkWncu3dPOkKm4/3TRETGwEJNZE6coSYi07DiibtQoULSEYiIKBX8/f2lI2S6Bw8eIDk5WUnnIMpIVizUnKEmMqGEhASVmJgoHSPTFSxYUDoCERGlghVnqAEgLi5OOgJRhrLikm/OUBOZkBWXewMs1ERERuHn5wcnJyfpGJnOiqvHyFqsOEPNQk1kQlYs1F5eXvD29uYrs4iIDMDR0VHLnTu3dIxMZ8XzM1mLFQs1ABZqIrOx4hVw3j9NRGQsLNRE5mPFJd9KKRZqIrOx4gk7f/780hGIiCgNfH19pSNkOite8CZrseIMNQs1kQlZsVBbcaaDiMjIrHjctuL5mayFM9REZApWvAKeK1cu6QhERJQGVpyhZqEms7PiDDXAe6iJTMeKJ+ycOXNKRyAiojTgDDWR+XCGmohMwYonbBZqIiJjYaEmMh8rzlCzUBOZUFxcnHSETMdCTURkLCzUROZjxUINcMk3kekkJSVJR8h0LNRERMZixUJtxfMzWQuXfBORKSQnJ0tHyHSenp7SEYiIKA2sWKiteH4ma7HiDDULNZEJWfGE7eXlJR2BiIjSwIrHbSuen8larDhDDXDJN5HpWHFJGWeoiYiMxdHRUXN0dJSOkalYqMnsOENNRKZgtRO2pmlwd3eXjkFERGnk5uYmHSFTWfGCN1mLFWeoWaiJTMhqhdrd3R02m02TzkFERGljtUJttfMzWQ9nqInIFKx2wuZybyIiY8qSJYt0hEzFGWoyOyvOUAO8h5rIdKxWqF1cXKQjEBHRc+AMNZG5cIaaiEzBalfArfZQGyIis2ChJjIXK85Qs1ATmZDVTtgs1ERExsRCTWQuVpyhBrjkm8h0rHbCdnJyko5ARETPwWqF2moryMh6rFioOUNNZEJWK9ScoSYiMiYWaiJz4ZJvIjIFFmoiIjICpZR0hExltfMzWY8VZ6gBLvkmIiIiIgGcsSUyF85QE5EpWG3Gllf8iYiMyWqFms/8ILOz4ncyTdNYqInMxmqF2mpfyIiIzMJqX76tdn4m67HaPg2wUBOZktVO2FY8eBMRmYHVLohyhprMzqrfyVioiUyGhZqIiIzAaoXaaudnsh4r3kPNGWoiE7LaFXCrfSEjIjILq10QZaEms7PaPv0nFmoik7HaCTshIUE6AhERPQerffm22vmZrMdq+zTAGWoiU7LaCfvevXvSEYiI6DlYbYWR1VaQkfVYcck3wBlqItOxWqG+f/8+UlJSlHQOIiJKm8TEROkImcpq52eyHs5QE5EpWO2ErZRCfHy8dAwiIkqjyMhI6QiZijPUZHZWLNQAZ6iJTMeKJ2wu+yYiMpbk5GRltWO31S54k/VYsVBzhprIhKx4wrbalzIiIqOLioqCUta6W8eK52eyFiveQ81CTWRCVjxh3717VzoCERGlQVRUlHSETGfF8zNZixVnqAEu+SYyHSsu+b59+7Z0BCIiSgOr3T8NWPP8TNZixULNGWoiE/Lw8JCOkOlu3bolHYGIiNLgzp070hEynaenp3QEogxlxSXfAGeoiUzHiidsFmoiImOx4pJvK56fyVo4Q01EpmDFEzaXfBMRGYsVl3xb8fxM1mLFQg1whprIdLy8vKQjZDrOUBMRGQsLNZH5WLFQc4aayIRYqImISO+seNxmoSazs+I91CzURCZkxYeSXb16VToCERGlwcWLF6UjZDorXvAma7HiDDXAJd9EpmPFE/bly5elIxARURpYsVBzhprMjjPURGQKVjxhx8fHIzIyUknnICKiZ0tOTlZWXFlkxQveZB0pKSlKKet9FWOhJjIhq56wr1y5Ih2BiIhS4erVq5ZcGmrFC95kHVbcpwHAwcGBhZrIbJydnTVnZ2fpGJmOhZqIyBisuNwbsOYzTsg6WKiJyFSsOEt96dIl6QhERJQKVjxeu7m5wdHRUZPOQZRRrHj/NMBCTWRaVlxWdv78eekIRESUClYs1Fa80E3WwhlqIjKVrFmzSkfIdKdOnZKOQEREqcBCTWQ+LNREZCo5c+aUjpDpTp8+LR2BiIhSwYr3UFvxvEzWYtUl346OjizURGaUK1cu6QiZLjw8HPfv37fe+xqIiAzmxIkT0hEyXe7cuaUjEGUozlATkalY8Uq4UgpnzpyRjkFERE8RHh6uIiMjpWNkOite6CZrYaEmIlOxYqEGuOybiEjvjhw5Ih1BBAs1mR0LNRGZilVP3MePH5eOQERET3H48GHpCCKseqGbrMOq91CzUBOZlFXv1Tp48KB0BCIieoqjR49KRxBh1QvdZB2coSYiU8mfP790BBGHDh2SjkBERE9h1eO0Vc/LZB1WLdR8yjeRSVn1xH316lXcuXOHT/omItKhBw8eqLNnz0rHEFGgQAHpCEQZiku+ichUcuTIATc3N+kYIqw6+0FEpHfHjh2z5Jdum82GPHnySMcgylBWnaFmoSYyKU3TtHz58knHEMFCTUSkT1Z9wrevry+cnJw06RxEGYmFmohMx6rLy/bv3y8dgYiIHuPAgQPSEURY9TYsshYrrj4BWKiJTK1w4cLSEUTs2rVLOgIRET3G9u3bpSOI8PPzk45AlOGsOkPt6uoKR+kQmW3VqlVITk5W+fPnR548eVCwYEG4u7tzGQ6Zjr+/v3QEEZcvX8a1a9dUvnz5uF8TEelETEyMOn78uHQMEQEBAdIRiNKNUkrduHEDV69exdWrVxEeHo7w8HDL3nLn5uZmvUI9d+5czJ07929/zdXVVeXNmxd58uRB3rx5UaRIkUd//vM/CxUqBAcHB35BJ8Ow8gl89+7daNOmjXQMIiL6Q2hoKOx2u3QMEVa9wE3GFB0drSIiInD9+nVcuHAB//zz5cuXER8fLx1TN7JkyWK9Qv04Dx8+xIULF3DhwoWn/nM+Pj7qcWX7z79WoEABeHl5sXSTLli5UO/atYuFmohIR3bs2CEdQYyVz8ekLyzL6c+SM9QvIjo6+pkPPPpztvtpxdvX1xc2m43FmzKUv78/NE2DUtZ7LfPOnTulIxAR0V9Y9f5pgDPUlDmeVZavXLmCuLg46ZimkyVLFmgArPdtW5irqyvy5s2LfPny4c97uQsUKPCvv+bs7MzSTS+kcOHC6vLly9IxMp2Liwuio6Ph5ubGfYiISNjDhw+Vt7c3EhISpKNkuhw5cuD27ds8F9ELuX37trp27dqj+5X/vH/5ypUruHbtGq5evYqHDx9Kx7Sk//znP5yhlpCaJeaapsHX11flz58f+fLlQ8GCBfHXP+fLlw/58uVj6aanKl++PKxYqBMSErBz504EBwdLRyEisrx9+/ZZskwDv5+HiZ7m4cOH6sqVK7hy5QouX76MK1eu4NKlS4/Kcnh4OMuyjnHJt44ppXD9+nVcv34d+/bte+I/5+Pjox73MLU//1yoUCF4eHiwdFtU+fLlsXz5cukYIjZt2sRCTUSkA1Ze7s1CTQ8ePFB/Lr3+c/x1OfalS5cs+8A+M+BDyUwgOjoa0dHROHHixBP/GZZu67LyiXzjxo344osvpGMQEVmelQt1uXLlpCNQBouOjlaPK8oXLlzA+fPnERMTIx2RMpCbmxvvoabf5c6d+9H924ULF0bBggVRsGBBFCpUCAULFoSvry8LtwFduXJFFSpUSDqGCEdHR9y5cwdZs2bltktEJOT+/fsqR44cePDggXQUEceOHUPp0qV5HjKovy7H/nNJ9p/Lsa9cuYKrV68iMTFROiYJmjx5Mmeo6Xc3b97EzZs3ceDAgcf+fVdXV/Vnuf6zaAcEBCAgIADFihWDp6cnTxY6VLBgQS1//vzq6tWr0lEyXXJyMrZt24ZmzZpJRyEisqyNGzdatkx7e3ujZMmS0jHoKVJSUtS1a9dw4cIFXLx48V//eePGDemIpHNc8k2p9vDhQ5w+fRqnT59+7N/PkyePKlGiBBo3box+/fqxYOtIzZo1sWDBAukYItavX89CTUQk6LfffpOOIKZ69ep8TapOxMTEqGPHjuHYsWM4cuQIzp8/j4sXL+Ly5cucYaYXwoeSUbr58wFqmzdvxsSJE7F582ZVsGBBnkR0oEaNGpYt1CtXrsT48eOlYxARWdbq1aulI4ipVauWdAQCsH79etWwYUPpGGRSHh4esEmHIPO5cOEC2rRpA7vdzvvzdcDKJ/SLFy/ixIkT3A6JiAQcPnxYWfHVjX+qWbOmdAQCsHDhQukIZGLZsmVjoaaMERYWhnnz5knHIPz+hFFPT0/pGGJWrlwpHYGIyJJWrVolHUGMk5MTgoKCpGMQgHXr1klHIBPLkSMHCzVlnDFjxkhHIAAODg5a1apVpWOIsfIXOiIiSVY+/lasWBFZsmThrW/CLly4oK5cuSIdg0zMx8eHhZoyzqFDh3Ds2DEut9UBKy87Cw0NRWRkJLdDIqJMFBUVpfbs2SMdQ4yVb7fSk82bN0tHIBNzcnKCp6cnCzVlLN63og9WLtQpKSlYs2aNdAwiIkv57bffkJKSIh1DTI0aNaQjEICtW7dKRyATy5EjBzRN01ioKUNZ+emeelKtWjU4Olr3of6LFi2SjkBEZClWv6DOQq0P27dvl45AJpYvXz4A4Aw1ZawDBw7g1q1bXG4rzNPTU7Pyw1HWrl2L2NhYbodERJkgMjJSrV27VjqGmOLFi8PX15f3TwuLiIhQly5dko5BJpY/f34ALNSUwex2O+9f0YmXX35ZOoKYhw8fYsWKFdIxiIgsYdGiRUhMTJSOIcbK51s92blzp3QEMrm8efMCYKGmTMADmj5Y/QTPZd9ERJnD6q/NDA4Olo5AAHbt2iUdgUyOM9SUaXhA04dq1arBy8tLOoaYNWvW4O7du1z2TUSUgcLDw9WOHTukY4hxcHBA3bp1pWMQfn/LB1FGKlasGAAWasoEhw4dwv3791lkhDk6OmovvfSSdAwxCQkJWL58uXQMIiJTmz9/Pux2u3QMMUFBQfDx8eH908IePHigDh48KB2DTK5EiRIAWKgpEyQlJSEsLEw6BgFo0KCBdARRP//8s3QEIiJTmzt3rnQEUVa/vUovwsLCLH0fP2U8R0dH+Pv7A2ChpkzC+6j1weon+k2bNuHKlStcLUFElAFOnTqlDh06JB1DlNUvXOvF7t27pSOQyfn7+8PFxUUDWKgpk/A+an0oUaKEVqBAAekYYux2O2epiYgyyJw5c6QjiHJ3d0e1atWkYxB4/zRlvOrVqz/6Mws1ZYqdO3dCKcWZQR2w+iz1zJkzuS0SEaWzpKQkNW3aNOkYourUqQNnZ2feP60De/bskY5AJle1atVHf7bVqlVLOg9ZwJ07d3Du3DnpGASgadOm0hFEnT17lrcgEBGls+XLlyMiIkI6hiirX7DWi/Pnz6sbN25IxyCT+9sM9fjx4+Hg4CCdiSyA97PoQ8OGDeHm5iYdQ9T06dOlIxARmcrEiROlI4hr1qyZdAQCl3tTxsubNy/KlCnz6L/bKlSooPXq1Us6F1kAl9/og7u7uxYcHCwdQ9TcuXMRFRXFZd9EROng1KlTatOmTdIxRJUuXRr+/v5c7q0DfG4PZbTmzZtD07RH+7sNAD7//HP4+PhIZyOT4wy1fjRv3lw6gqgHDx5g1qxZ0jGIiExh4sSJsPqjKax+XtUTFmrKaC1btvzbf9f+PAB+//336u2335bORybm5OSEmJgYZMmShVdwhd28eVPlzZsXdrtdOooYf39/nDlz5m9XGImIKG0ePHig8ufPj6ioKOkoonbu3Inq1avzfCIsNjZWZcuWDSkpKdJRyKTy58+PS5cuwcHB4e8z1ADw5ptvoly5ctIZycSSkpKwf/9+6RgEIHfu3FqVKlWkY4g6d+4crL5EkYjoRc2bN8/yZTpXrlx/e+Ivydm5cyfLNGWonj17/q1MA38p1A4ODtoPP/wATtZQRuKyb/1o0aKFdARxP/30k3QEIiJD43H09+XeNpuNX6B1gA8ko4zk6uqKPn36/Ouv/+091LVq1dLatWsnnZVMjA8m0w/e7/X7a16uXLli7Rv/iIie0549e1RYWJh0DHFWfx2lnrBQU0YaMGAA8ubN+6+LZ9o/HyIRHh6uSpQogfv370tnJhPKkycPIiIieBVXJ4oVK6bOnj0rHUPUoEGD8O2333KbJCJKo9atW6ulS5dKxxDl5uaGO3fu8PkwOpCcnKy8vb0RHx8vHYVMKGvWrDhz5gxy5cr1r33d9s+/UKBAAW3UqFHSmcmkrl+/jnPnznFGUCc6dOggHUHclClTEBMTw22SiCgNTp48qZYvXy4dQ1yDBg1YpnXi4MGDLNOUYUaNGvXYMg08plADv8/YVK5cWTo3mdSWLVukI9AfunTpIh1B3L179xASEiIdg4jIUL766itLvyniT7wwrR87d+6UjkAmVa5cOQwYMOCJf/+xhdrBwUGbNm0anJycpPOTCW3btk06Av2hRIkSWpkyZaRjiBs/fjwSExM5S01ElArh4eFq3rx50jHEubq6olmzZtIx6A87duyQjkAm5OrqilmzZsHR0fGJK1FsT/obZcqU0YYPHy79M5AJcYZaXzp16iQdQVxERAT45ZCIKHXGjBmDxMRE6RjimjVrBi8vLy731gnOUFNGGDNmDMqWLfvU/fxfDyX7K7vdrpo2bYrVq1dL/yxkMhcvXkThwoV5EtKBixcvqqJFi+JpxwIrKFmyJI4dO8ZXnxARPUVkZKQqXLgw4uLipKOIW7x4MVq3bs1zhg6cPn1alShRQjoGmUzjxo2xatUqaM94r7TtqX/TZtPmzJkDPz8/6Z+HTGbr1q3SEegPfn5+WpUqVaRjiDt58iQWLVokHYOISNfGjh3LMg3A09MTjRs3lo5Bf9i8ebN0BDKZXLlyYfr06c8s08AzCjUA+Pj4aAsXLkSWLFmkfy4yES771hcu+/7dZ599Brvdbu2peiKiJ7h375768ccfpWPoQsuWLeHm5sbZaZ1goab05OjoiPnz5yN37typ2sefWagBoHLlytrChQvh6Ogo/fORSWzYsEE6Av1Fhw4d4ODgIB1D3PHjx7F48WLpGEREuvTtt98iOjpaOoYu8EK0fiilFFc+Unr69ttvUa9evVRfMNPSct/k9OnTVc+ePS1/ryWlj5MnT6JEiRK8uqsTDRo0UBs3bpSOIa5MmTI4dOgQ76UmIvqL27dvK39/f8TGxkpHEZc9e3Zcv34dTk5OPE/owPHjx1VgYKB0DDKJPn36ICQkJE37dqpmqP/Uo0cP7b///a/0z0kmsX79eukI9BdvvPGGdARdOHr0KJYsWSIdg4hIV7744guW6T+0bduWZVpHuNyb0kurVq0wYcKENP/v0lSoAWDw4MHamDFjkIr7s4meioVaX1q3bg0fHx/pGLowdOhQJCcncykOERGAS5cuqYkTJ0rH0I0ePXpIR6C/YKGm9NCwYUPMnTsXDg4OaS65aS7UAPD+++9rEyZMgM32XP9zIgC/P5gsKSmJpUUnXF1dtc6dO0vH0IXTp09j+vTp0jGIiHRh6NChSEhIkI6hC4GBgahatSpnlXTCbrfz/ml6Ya1atcKvv/4KV1fX59q3n7sR9+vXT5s1axZcXFykPwMyqHv37mH37t3SMegv+vTpIx1BN0aMGIH4+Hhe8CEiSzt69KiaN2+edAzd6Nmzp3QE+ouDBw8iMjJSOgYZWP/+/bFw4UK4uLg894WyF5pi7tKli7Z582bkyZNH+rMgg+Kyb30pW7asVqFCBekYunD9+nWMGzdOOgYRkajBgwfDbrdLx9AFZ2dndOnSRToG/cXatWulI5BBOTs7IyQkBBMmTNAcHR1faNXJC6/Zrl69urZv3z4EBQVJfy5kQOvWrZOOQP/Ah5P9v9GjR+PWrVucpSYiS9q2bZtavXq1dAzdaNWqFXLmzMnl3jqyZs0a6QhkQGXLlsWePXvQp0+fdNmf0+Um6Hz58mnbtm3D22+/zYeVUZrs27ePhUVnunTpAldXV+kYunDv3j18+eWX0jGIiDKd3W5X77//vnQMXeFyb32JjY1VvHWQ0iJLliwYOXIk9u3bh/Lly6dbaU23p4q5urpq48aN09avX4+CBQvKfEpkOHa7Hbz6rS8+Pj5a69atpWPoxoQJE3DixAle9CEiS5k8eTLCwsKkY+hG4cKFERwcLB2D/mLjxo1ISkqSjkEGYLPZ0KVLF5w6dQojRozQnJ2d03UGON0f0x0cHKwdOXIEffv2hYODQ+Z9UmRYK1eulI5A/9C/f3/pCLqRlJSEt956SzoGEVGmiYqKUkOHDpWOoStvvPEGbDYbl2HqCO+fpmdxdnbGG2+8gePHj2P27NlagQIFMmQf1pTKuImXo0ePqvfff58PnqKn8vLywu3bt5HeV4voxVSsWFEdPHhQOoZu/PLLL2jTpg23USIyvd69e6spU6ZIx9ANR0dHXLx4Efnz5+c5QEf8/PzUpUuXpGOQDvn5+eGNN97AG2+8gbx582b4fpuhL5IuU6aMtm7dOm316tWoX79+Rv8sZFCxsbHYvn27dAz6B87K/t2gQYNw//59Lv0mIlPbt2+fmjZtmnQMXWndujXLtM6cOnWKZZr+xtfXF3379sXGjRtx7tw5DB06VMuMMg1kcKH+U6NGjbSNGzdqhw8fRs+ePeHl5ZUZ/1oyEC771p/OnTsjV65c0jF0Izw8HP/73/+kYxARZRi73a4GDhzI12T9wzvvvCMdgf6Bz98hm82GSpUqYciQIdi+fTuuXbuGiRMnavXr19cy+/aMDF3y/SRJSUkqNDQUoaGh2Lt3L/bt24fr169neg7Sj4CAAJw5c4ZXf3Xmk08+UXzK9f9zcXHBoUOHUKJECW6rRGQ6P/74oxo4cKB0DF2pWLEi9u/fz2O+ztSrV09t2bJFOgZloixZsqBChQoICgpCjRo1UL9+fWTPnl0X+6ZIoX6cO3fuqKNHj+L48eM4duwYjh07huPHjyMmJkY6GmWSEydOoGTJkrrYMeh3ERERqnDhwnyK5l/UrVsXmzdvhsZ3BBKRiURGRqrixYsjMjJSOoqu/Pzzz3jttdd4vNeR6OholStXLiQnJ0tHoQzi6OiI0qVLIygoCFWqVEFQUBACAwPh6Oioy33RUTrAn3LkyKHVq1cP9erV+9tfDw8PVydOnMDx48dx9uzZRyM8PBx6uRhA6WPp0qUoWbKkdAz6i7x582otW7ZUixYtko6iG1u3bsW0adP4PlIiMpV3332XZfoffH190b59e+kY9A+//fYby7RJODg4oHDhwihRogRKliyJ4sWLo1SpUihfvjyyZMmiy/L8OLqZoU6rhw8fqrNnz+LcuXN/K9pnz55FRESEdDx6DpUqVUJYWJhhdh6r2L59u6pTp450DF3JmjUrjh8/jnz58nF7JSLD+/XXX1WLFi2kY+jOqFGjMHz4cB7ndaZDhw5q4cKF0jEoDTw9PREQEPCoMBcvXhwlSpRAsWLF4OLiYvh9zLCF+mni4+PVxYsXcfHiRVy6dAmXLl3625+jo6OlI9JjaJqGixcvolChQobfscymcuXKav/+/dIxdKVFixZYtmwZt1UiMrTIyEgVGBiIGzduSEfRFRcXF1y+fBm5c+fmcV5HEhMTVa5cuXD37l3pKPQXbm5u8PPzQ+HChVG4cOF//Vkv9zpnFN0s+U5P7u7uWmBgIAIDAx/79+/evav+LNd/lu2LFy/i8uXLuHTpEndSIUopLFmyBIMGDZKOQv8wZMgQtGvXTjqGrixfvhxTp05VPXv2NPVJgojMbcCAASzTj9GxY0eWaR3aunUrv6cL8PT0RMGCBVGoUCEUKFAAhQoV+ltp9vX1tfS+YsoZ6hf14MEDdf36dVy4cOFfIyIigk8kz0C1a9fGtm3bLL1T6pHdbleBgYE4efKkdBRdcXd3x8GDBxEQEMBtlogMZ9myZapVq1bSMXRH0zQcPnwYZcqU4bFdZ9566y31ww8/SMcwHR8fHxQpUgRFihRBnjx5kDdv3n/+d+4LT8FC/Rzu3r2r/pzNPn/+PM6dO4dz587h/PnzuHz5Mh+U8AJsNhuuXbtm+StdejR16lTVq1cv6Ri6U716dWzfvh0ODg7cZonIMG7fvq0CAwNx69Yt6Si606pVKyxZsoTHdJ1RSqnChQvjypUr0lEM5c/Z5cKFC6NAgQIoUKDAo9nmggULIm/evHBycuL2/gJYqNNZUlKSunTp0qOC/deHpl24cAEpKSnSEXVv4sSJ6Nu3L3dsnUlMTFRFixbF1atXpaPozsiRIzFixAhus0RkGK1bt1ZLly6VjqFL+/btQ+XKlXlM15k9e/aoatWqScfQHTc3NxQtWhRFixZFkSJFULRoURQqVOjR8mxvb29uyxmMhToTJSQkqJMnT+LEiRM4duzYo/+8ePEi7Ha7dDzdCA4OxoYNG7jz69C3336r3n//fekYumOz2bBmzRq8/PLL3G6JSPdmz56tunbtKh1Dl1555RWsWbOGx3Id+uCDD9Q333wjHUOMi4sLKlasiKCgIJQvXx4BAQEoUqQIl2PrAAu1Dty/f1/t378fu3btwoIFC3DgwAHpSKIcHBxw9epVLvvWobi4OFW4cGG+q/QxfH19cfDgQW63RKRrly5dUhUrVuQbT55g27ZtqF27No/jOqOUUn5+frh8+bJ0FDEjRozAyJEjuW3qkE06AAFZsmTRateurf3nP//RduzYgRw5ckhHEpWSkgK+X1CfPDw8tAEDBkjH0KUbN26gU6dOSElJ4VVKItKlpKQk1blzZ5bpJ6hTpw7LtE7t2bPH0mUaAFq3bi0dgZ6AhVpn3NzctL59+0rHEDd//nzpCPQEb7/9Njw9PaVj6NKWLVvw2WefSccgInqs//znP9i1a5d0DN365JNPpCPQE/zyyy/SEUQVKVIEZcuW5cUenWKh1qHevXvDZrP2r2b37t24dOkSZ/p0KHv27No777wjHUO3Pv30UyxevJjbLhHpysqVK9W4ceOkY+hWxYoV8fLLL0vHoMdQSimrF+o2bdpIR6CnsHZr06lChQppdevWlY4hSimFBQsWSMegJ3j//ffh4+MjHUOXlFLo2bMnTp06xVJNRLpw6dIl1a1bN/C5OU82atQoaJrGGUAd2rt3r+WXe/N98frGQq1Tr7/+unQEcVz2rV/e3t7ae++9Jx1Dt+7evYsWLVrg7t27/PZKRKJ43/Sz1axZE02bNmWZ1imrP1cnT548qFq1qnQMegoWap1q06YNPDw8pGOIOnToEE6ePMlColPvvvsucubMKR1Dt86cOYNu3brBbrdzGyYiMbxv+tm+/PJL6Qj0BCkpKcrqEywtWrSAzWbjBR8dY6HWKXd3d433SwCzZ8+WjkBP4OHhoQ0ePFg6hq79+uuvfMgNEYlZunQp75t+hsaNG6NOnTosKzq1adMmRERESMcQxad76x/fQ61ja9asUY0bN5aOISpfvny4fPkyHBwceLLToYcPH6qAgABcvXpVOoquhYSEoE+fPtyGiSjTnDhxQtWoUQN3796VjqJbmqZh//79qFChAo/POtW9e3c1a9Ys6RhivL29cfPmTTg7O3Mb1THOUOtYcHAwsmfPLh1D1LVr17BlyxbpGPQErq6u2pAhQ6Rj6N7AgQOxadMmXr0kokxx584d1bx5c5bpZ+jUqRPLtI7dv39fLV26VDqGqObNm7NMGwALtY45OTlx2TcAK1+ZNILevXvDz89POoauJSUloV27djhz5gxLNRFlqISEBNWyZUucP39eOoquOTk5YdSoUdIx6CmWLVuGe/fuSccQ1bFjR+kIlAos1DrXoUMH6QjiFi9ejLi4OBYRnXJ2dtZGjx4tHUP3oqKi0LRpU9y+fZvbMhFlmD59+iA0NFQ6hu717NkT/v7+nPnTMas/R8fHxwfBwcHSMSgVWKh17qWXXkLevHmlY4iKj4/HkiVLpGPQU7Rr1w41atSQjqF7Z8+eRbNmzRAfH89STUTp7quvvrL0/aap5eHhgWHDhknHoKe4deuWWr9+vXQMUa1bt+Zyb4NgodY5m82m8el+wMyZM6Uj0FNomqZ999130DQe959lz549aN++PZKTk1mqiSjdrF69WvGtAqnzySefIG/evDxh6djcuXORnJwsHUNU+/btpSNQKvEp3wawY8cOVbt2bekYomw2Gy5cuIBChQrxBKhjnTt3VvPmzZOOYQg9e/bE5MmTofEqBBG9oMOHD6tatWohLi5OOoruFS1aFMePH4eLiwuPvTpWpkwZdezYMekYYnLkyIHr16/D0dGR26kBcIbaAGrWrIlChQpJxxBlt9sxbdo06Rj0DP/973/h5uYmHcMQpk6diuHDh0vHICKDu3TpkmrSpAnLdCp9++23LNM6t3v3bkuXaQBo06YNy7SBsFAbgKZpfNo3gGnTpiElJYVLKnSsUKFC2qBBg6RjGMbnn3+O0aNHc5smoudy+/Zt1ahRI1y7dk06iiE0aNAAzZs3Z0nRualTp0pHEMeHEhsLl3wbxN69e1XVqlWlY4hbuXIlmjRpwpOhjsXFxalixYrh+vXr0lEMY8yYMXj//fe5XRNRqsXGxqp69erhwIED0lEMwcnJCUeOHEGJEiV4rNWx+Ph4lSdPHku/Lit37ty4du0aHBwcuK0aBGeoDaJKlSqav7+/dAxxkydPlo5Az+Dh4aF99tln0jEM5cMPP8TUqVN5dZOIUuXBgweqefPmLNNp8Pbbb7NMG8D8+fMtXaYBoG3btizTBsNCbSBt27aVjiBu1apViIiIYPHQuTfeeIOv0UoDpRT69OmDOXPmcNsmoqdKSUlRXbt2xdatW6WjGEauXLn4miyD4HJvoGPHjtIRKI1YqA2E91MAycnJmDFjhnQMegZN07QJEybA0dFROoph2O12vP7661iyZAlLNRE9llJK9ezZE4sXL5aOYihff/01smbNyhk/nTt16pTatWuXdAxRhQoVQs2aNaVjUBqxUBtI+fLltRIlSkjHEDd16lTY7XaWDp0rV66c9tZbb0nHMJTk5GR06tQJq1at4vZNRP/ywQcfYObMmdIxDKVBgwbo1q2bdAxKhYkTJ0pHENelSxe+TtOAWKgNhrPUwIULF7B+/XrpGJQKo0aNQr58+aRjGEpiYiJat26N1atXs1QT0SNDhw5V3377rXQMQ3Fzc8PEiRNZUAwgPj5e8WLR74WajIeF2mB4X8XvfvzxR+kIlAqenp7aN998Ix3DcBITE9G2bVts3bqVpZrI4pRSatCgQeqLL76QjmI4o0aNQtGiRVmmDWD27NmIiYmRjiGqYsWKKFWqFLdXA2KhNpgSJUpoZcuWlY4hbtWqVbh48SLLhgF06NBBa9iwoXQMw7l//z6aN2+OHTt2cDsnsiillHrrrbcwduxY6SiGU6FCBQwaNEg6BqXShAkTpCOI4+y0cbFQGxCXff/+AKeQkBDpGJRKP/zwA1xdXaVjGE5sbCxeeeUVrFu3jqWayGLsdrvq378/V2Q9B0dHR0yePBmOjo6c7TOA7du3qyNHjkjHEGWz2fj93sBYqA2oY8eO4O1Avz+c7OHDhywaBhAQEKANHz5cOoYh3b9/H82aNcMvv/zCbZ3IIux2u+rduzcvHD+nd999F5UqVeIXJYPgRSOgfv36yJcvH7dZg2KhNqAiRYpolSpVko4h7s6dO1iwYIF0DEqlDz/8EEFBQdIxDCkxMREdO3bE9OnTWaqJTC4lJUW98cYbmDZtmnQUQypUqBBGjBghHYNS6fr162rp0qXSMcRxubexsVAbFJeF/G78+PHSESiVHB0dtalTp8LZ2Vk6iiGlpKSgV69e+Omnn1iqiUwqMTFRdenSha/Gek42mw3Tp0+Hh4cHZ/oMYtKkSUhMTJSOIcrV1RWtWrWSjkEvgIXaoDp27Aibjb++AwcOYO/evSwYBlGmTBlt6NCh0jEMy263480338Snn37KbZ7IZO7du6eaN2/OlVcvYNCgQahXrx7LtEEkJiaqSZMmSccQ17JlS2TNmpXbrYGxkRlU/vz5teDgYOkYujBu3DjpCJQGH330EXjLwosZMWIEhgwZwlJNZBLXr19XderUwdq1a6WjGFapUqXw+eefS8egNJg7dy4iIiKkY4h7/fXXpSPQC9KU4ncyo5ozZ4567bXXpGOIc3R0xIULF1CgQAFe3TOII0eOqKCgIMsv83pR/fv3xw8//ACbzcZtn8igjh8/rl599VVcuXJFOophubi4YM+ePShXrhyPhQZSvnx5dfjwYekYovLly4fLly/DwcGB266BcYbawFq3bg1vb2/pGOKSk5P5hEiDKVu2rDZkyBDpGIb3008/oUePHkhMTOSVUSID2rJli6pVqxbL9AsaNWoUy7TBrF271vJlGgC6du3KMm0CnKE2uF69eqmpU6dKxxDn7e2N8PBwPojEQBITE1W1atVw8OBB6SiGV69ePSxevBg+Pj7c/okMYsGCBap79+5ISEiQjmJotWvXxpYtW7hSx2AaNmyo1q9fLx1D3IkTJ1CyZEluuwbHGWqD6969u3QEXYiJicGMGTOkY1AaODs7a3PnzkWWLFmkoxje5s2bUaNGDZw/f55XSIkMYMyYMapz584s0y/Iy8sLM2fOZJk2mGPHjqkNGzZIxxBXrVo1lmmTYKE2uFq1aqFo0aLSMXTh22+/RUpKCguFgZQoUUL79ttvpWOYwqlTp1C9enXs3LmT+wCRTj148EB169ZNffjhh7Db7dJxDG/8+PHw8/NjITGYMWPGgCtkOSlmJizUBqdpmtatWzfpGLpw8eJFrFy5UjoGpVHfvn21du3aSccwhdu3b6N+/fqYM2cOv6kQ6czVq1dV3bp18fPPP0tHMYVOnTqhe/fuLNMGExERoebNmycdQ5yrqys6dOggHYPSCQu1CXTr1o3vpP7DN998Ix2BnkNISAgKFiwoHcMUEhIS0LVrV4wcOVIpTgEQ6cK2bdtU5cqVsW/fPukoplCsWDGEhIRIx6DnMHbsWL7hA0CLFi343BMTYQszgcKFC/Od1H/Yvn07QkNDWSIMxsfHR5s1axYcHByko5iCUgqjRo3CG2+8wSeAEwmbNGmSatCgAW7evCkdxRTc3d2xZMkSeHp6sowYTFRUlJo4caJ0DF3gcm9zYaE2id69e0tH0I3Ro0dLR6DnULduXe29996TjmEqM2bMQKNGjRAdHc1STZTJ7t+/rzp37qz69u2LpKQk6Tim8eOPP6J06dIs0wY0fvx43Lt3TzqGuPz586Nhw4bSMSgd8bVZJpGUlKQKFSqE69evS0cRp2kaDhw4gPLly/OEazCJiYmqZs2aCAsLk45iKkWLFsWSJUtQtmxZ7hNEmeDcuXOqbdu24Ht209cbb7yBqVOn8jhmQPHx8apw4cK4c+eOdBRxI0aMwMiRI7kdmwhnqE3CycmJDyf7g1KK91IblLOzs7Z48WLkyJFDOoqpnD9/HlWrVsWMGTN4BZUog82aNUtVqFCBZTqdBQYG4vvvv5eOQc9pwoQJLNMAbDYbevToIR2D0hlnqE3kwoULyt/fn68iAODg4IDTp0+jaNGivAJoQBs2bFCNGjVCSkqKdBTT6dOnD3744Qc4OTlx3yBKR7GxserNN9/EnDlzpKOYjru7O/bt28d39hpUQkKCKlKkCCIiIqSjiGvcuDF+++03bscmwxlqEylSpIhWr1496Ri6kJKSgu+++046Bj2nBg0aaJ988ol0DFOaNGkSGjRogIiICF55I0onoaGhqly5cizTGUDTNEyfPp1l2sCmTp3KMv0HPvPInDhDbTILFixQHTt2lI6hC25ubrh48SJy587Nk7AB2e121aRJE6xZs0Y6iinlyJEDM2bMQJMmTbh/ED2nlJQUNWbMGAwbNowPHssgw4cPx6hRo3icMqikpCRVrFgxXLp0STqKOF9fX1y5coUrxEyIM9Qm06pVK+TKlUs6hi48ePAAY8aMkY5Bz8lms2lz5syBn5+fdBRTunPnDpo1a4Z33nlH8dVaRGl35coVVa9ePQwZMoRlOoO0aNECI0aMkI5BL2DGjBks0394/fXXWaZNijPUJvThhx8qFsnfubu748KFC8iVKxcPYAa1Z88eVadOHSQmJkpHMa1q1aph9uzZfOYAUSoopdSkSZMwePBg3L17VzqOaQUGBmLnzp1837SBJSYmqmLFiuHy5cvSUcRpmoYzZ87A39+f27MJcYbahPr16webjb9aAIiPj+cTvw2uatWq2tixY6VjmNru3btRvnx5hISEKMWrrERPdObMGfXSSy+hX79+LNMZKHv27Fi+fDnLtMFNmTKFZfoP9erVY5k2MbYuEypatKjWqFEj6Ri6MWHCBNy+fZslwcD69++v9e/fXzqGqcXFxaFfv35o1KgRrl27xv2F6C+Sk5PVuHHjVMWKFbFt2zbpOKbm6OiIhQsXokiRIiwfBvbw4UP13//+VzqGbvBhZObGQm1SAwYMkI6gG3Fxcfj222+lY9ALGjduHIKDg6VjmN66detQrlw5/PzzzyzVRADCwsJU5cqV8e677yI+Pl46jul99913qF+/Psu0wYWEhODq1avSMXTB19cXrVu3lo5BGYj3UJuUUkqVKFECZ86ckY6iC+7u7rh48SJy5szJk7SBRUVFqWrVquHs2bPSUSzh5Zdfxk8//cR7q8mS7t+/r4YPH46xY8ciJSVFOo4l9O/fHxMmTODxxuAePnyoihYtyldl/WHYsGH49NNPuV2bGGeoTUrTNK1Pnz7SMXQjPj6e76U2gWzZsmm//vorvL29paNYwvr161GmTBmMHj1aJSUl8eorWcbSpUtVYGAgvvnmG5bpTNKsWTN8//330jEoHfzwww8s039wcHBAz549pWNQBuMMtYlFR0er/Pnz4/79+9JRdMHDwwPnz5/nE79NYP369erVV19FcnKydBTLKFasGD7//HO0a9eO+w+Z1smTJ9V7772HNWvWSEexlMqVK2PLli1wd3fn8cXg4uLiVJEiRXD79m3pKLrQokULLFu2jNu1yXGG2sR8fHy0zp07S8fQjbi4OPABGebw8ssva3x6e+Y6c+YM2rdvj+DgYHXo0CFeiSVTiYyMVO+8844qU6YMy3Qm8/Pzw8qVK1mmTWLMmDEs03/BZxpZA2eoTe7w4cOqfPny0jF0w8XFBWfOnEHBggV54jaBAQMGqAkTJkjHsBwHBwf06NEDn332GXx9fbkvkWElJiaq8ePH4/PPP+drsATkyJEDoaGhKFasGI8jJnD79m3l7++P2NhY6Si64O/vj9OnT8Nms3H7NjnOUJtcuXLltJo1a0rH0I2EhAR8+umn0jEonYwfPx6tWrWSjmE5KSkpmDJlCooVK4YRI0aou3fv8sosGc7y5ctVYGAgPvzwQ5ZpAW5ubli+fDnLtIl89tlnLNN/0b9/f5Zpi+AMtQX88ssvql27dtIxdMPBwQFHjx5FyZIleZAzgYcPH6qGDRti+/bt0lEsy9PTE2+++SY++ugjZM2alfsV6dqOHTvU8OHDsXnzZukolmWz2bBo0SK0bt2axwuTuHjxoipZsiQSEhKko+iCm5sbrl69imzZsnEbtwDOUFtAq1atULhwYekYupGSkoJRo0ZJx6B04urqqi1fvhylS5eWjmJZ9+7dw1dffYWAgAB888036sGDB7xSS7qzadMmVadOHVW7dm2WaWHjx49nmTaZoUOHskz/RZcuXVimLYQz1Bbx3Xffqffee086hm5omob9+/ejQoUKPNiZRHh4uKpRowauXr0qHcXy8ubNiw8++AC9e/eGh4cH9zEStWXLFjVixAhs27ZNOgoB+OKLL/Dxxx/zuGAihw8fVhUrVoTdbpeOohuHDx9G2bJluZ1bBAu1RcTGxqoCBQrw3pa/aNSoEVavXs2DnYmcOHFC1apVC9HR0dJRCICXlxdef/11DBkyBHny5OG+RpkqNDRUjRw5Ehs2bJCOQn9499138d133/FYYDKvvPKKWrdunXQM3WjYsCHWrl3L7dxCuOTbIry8vLQ33nhDOoaurFmzBuvWreMVJRMpVaqUtmzZMri6ukpHIQCxsbEYP348ihYtioEDB6qLFy9yf6MMZbfb1apVq1T9+vVVrVq1WKZ1ZMCAASzTJrRhwwaW6X949913pSNQJuMMtYVcunRJBQQEIDk5WTqKbpQtWxYHDhyAg4MDT/ImsnLlStWmTRskJiZKR6G/cHR0ROvWrTFw4EDUrl2b+xylm/j4eDVz5kyMGzcOZ86ckY5D/9C9e3dMnz4dmqZxvzeRlJQUVbFiRRw5ckQ6im4UL14cJ06c4NO9LYYz1BZSuHBhrUWLFtIxdOXIkSOYOXOmdAxKZ02bNtXmz58PR0dH6Sj0F8nJyVi4cCHq1KmDkiVLqnHjxqm4uDhe1aXnduPGDTVy5EhVqFAhDBgwgGVah1q2bIkpU6awTJvQ1KlTWab/4b333mOZtiDOUFtMaGioqlWrlnQMXcmbNy/OnDkDd3d3HgBNZs6cOapbt258UIqOeXt74/XXX8ebb76JgIAA7oOUKnv37lXfffcdFi9ejKSkJOk49ASNGzfGsmXL4OzszH3bZO7du6eKFSuGGzduSEfRjWzZsuHKlSv8PmlBnKG2mJo1a2pVq1aVjqErERER+Pbbb6VjUAbo0qWLNmnSJHBiRL9iYmIwduxYFC9eHHXr1lUzZszgrDU91t27d1VISIiqVq2aqlq1KubPn88yrWP169fH4sWLWaZN6osvvmCZ/od+/fqxTFsUZ6gtaOnSpap169bSMXTFw8MDZ8+eha+vLw+EJvTjjz+qt956CzzeGYOrqyuaNWuGPn36IDg4mEtFLcxut6udO3fi559/xpw5cxAfHy8diVKhbt26WLVqFcuFSV24cEGVKlWK753+CxcXF1y8eJFvtLAoFmoLstvtqnTp0jh16pR0FF3p1asXJk+ezAOhSY0ZM0Z9+OGH0jEojYoUKYIuXbqgffv2CAwM5P5pEefOnVMzZ87EzJkzER4eLh2H0qBRo0ZYunQpXF1dub+aVNu2bdXixYulY+hK3759MXHiRG7zFsVCbVHTpk1TPXv2lI6hKzabDbt370ZQUBAPiCY1evRo9dFHH0nHoOdUsmRJtG/fHu3atUPp0qW5n5rMnTt31PLlyzFz5kzs2LGDK0oMqEmTJli8eDFcXFy4f5pUaGioql27NvfPv3BwcMCpU6fg7+/P7d6iWKgtKjExURUpUgTXrl2TjqIrNWvWxPbt27nE1MTGjh2r3nvvPX4ZMLjSpUujXbt2aN68OSpUqMD91aDCw8PVsmXLsHTpUmzbtg0pKSnSkeg5NW/eHIsWLeI90yZmt9tVUFAQDhw4IB1FVzp37ow5c+Zwu7cwFmoL++abb9QHH3wgHUN3fv75Z7z22ms8MJrY5MmTVb9+/fj0b5PIlSsXXnnlFTRr1gyNGjWCp6cn918du3DhglqxYgUWLVqEnTt38uKWCTRt2hS//PILZ6ZNLiQkRPXr1086hq5omobDhw+jTJky3PYtjIXawuLj41WhQoUQGRkpHUVXfH19cfr0aXh5efHgaGIzZ85UPXv25IyYybi5uaFevXp49dVXERwcjBIlSnA/FpaYmKh2796NtWvXYtmyZThx4oR0JEpH7dq1w5w5c+Dk5MR9zcSioqJU8eLFcefOHekoutK8eXMsX76c277FsVBb3NChQ9UXX3whHUN3PvroI3z55Zc8QJrcggULVNeuXfnqHRPLmzcvgoODUb9+fdSvXx8FCxbkfp3BUlJS1IEDB7Bp0yZs2rQJO3bswP3796VjUQbo1q0bpk6dCkdHR+5XJtevXz8VEhIiHUN3QkNDUaNGDW7/FsdCbXG3bt1SRYoU4atI/sHFxQXHjh3jAyYsYPny5apDhw58/YdF+Pv7o06dOqhRowaqVq2KUqVKwWazcT9/AUopdfz48UcFeuvWrYiJiZGORRls0KBB+Oabb/jMEQvYv3+/qlKlCm+T+ofg4GBs2LCB2z+xUBPwwQcfqG+++UY6hu68+uqrWLVqFQ+UFrB27VrVtm1bxMXFSUehTObl5YWqVauiWrVqqFatGipXroxcuXJxv3+K8PBwFRYWhj/H/v37eeuQhWiahs8//xwff/wx9xMLUEqpGjVqYPfu3dJRdGfHjh2oWbMm9wNioabfX1Xi5+fHMvEYv/zyC9q0acODpQWEhYWpJk2a4NatW9JRSJiPjw9KlSqFSpUqoVKlSihdujQCAwMt+cCl69evqz9L8/79+xEWFoYbN25IxyIhDg4O+PHHH9G3b1/L7QtWxdesPl7Dhg2xdu1a7gcEgIWa/vD++++rb7/9VjqG7uTJkwcnT55E1qxZedC0gHPnzqlGjRrh/Pnz0lFIZ1xcXFCsWDEEBAT87T+LFStm+Bnte/fuqbNnz+LPcebMmUd/5swz/cnFxQWzZ89G27ZtDb29U+rFxsaqEiVK4Pr169JRdGf79u2oVasW9wUCwEJNf7h586YqUqQIHxzzGG+//TbGjRvHg6ZF3Lx5UzVp0gT79++XjkIGkTVrVhQsWBAFCxZE/vz5kS9fvr/9OWfOnMiePbvIMeT+/fvq5s2buH79Om7fvo2IiAjcunUL4eHhj8ozZ5zpWTw9PbF06VIEBwfzXGghb7/9tvr++++lY+jOK6+8gjVr1nBfoEdYqOmR9957T3333XfSMXTHZrNh586dqFq1Kg+eFhEXF6fatGmDdevWSUchk9A0DdmzZ380smXLhuzZs8PFxQXe3t5wdHSEl5cXnJ2d4e7u/sz/P7vdjrt37yIxMRHx8fGIj49HYmIiIiMjcfPmTdy6dQsRERG8lYdemK+vL1asWIHKlSvzHGgh+/fvV1WrVuWrJR9j9+7d/E5If8NCTY/cuHFDFS1alLPUj1GpUiXs2bMHDg4OPIBaRHJysurfvz+mTJkiHYWISESpUqWwatUqFC5cmOc+C7Hb7apGjRrYs2ePdBTd4QNr6XFs0gFIP3x9fbV+/fpJx9Cl/fv3Y8KECdIxKBM5OjpqkyZNwieffAK+FYaIrKZ+/foIDQ1lmbag77//nmX6CUaOHCkdgXSIM9T0N9HR0crf3x9RUVHSUXTHy8sLJ0+eRN68efnlwmIWLlyoevTowdUbRGQJ3bt3x6RJk+Ds7MzzncVcv35dlSxZEnfv3pWOojtNmzbFihUruE/Qv3CGmv7Gx8dH+/DDD6Vj6FJsbCz+85//SMcgAe3bt9d27NiBAgUKSEchIsowmqZhxIgRmD59Osu0RQ0YMIBl+gmGDx8uHYF0ijPU9C8PHz5UxYoVQ3h4uHQUXdq4cSPq16/PLxoWFBERoVq0aIGwsDDpKERE6crZ2RlTpkxB165deX6zqN9++001adJEOoYuNW/eHMuXL+e+QY/FQk2PNW3aNNWzZ0/pGLpUqlQpHDp0CE5OTjywWtD9+/dV9+7d8csvv0hHISJKF7lz58Yvv/zC9+pa2P3791Xp0qVx6dIl6Si6o2ka9uzZg6CgIO4f9Fhc8k2P1b17dwQGBkrH0KUTJ06ArxezrixZsmgLFy7E8OHD+bAyIjK8ypUrY9++fSzTFjds2DCW6Sdo0aIFyzQ9FWeo6Ym49OfJPDw8cOLECRQoUIAHWAtbsWKF6t69O6Kjo6WjEBGlWadOnTBlyhRkyZKF5zILCwsLU9WrV0dycrJ0FN3RNA0HDhxA+fLluY/QE3GGmp7o1Vdf1V555RXpGLoUFxeHQYMGSccgYc2aNdMOHjyIoKAg6ShERKnm4OCA0aNHY+7cuRrLtLUlJyerPn36sEw/QevWrVmm6Zk4Q01PdezYMVWhQgUeaJ9g06ZNqFevHg+0Fvfw4UP11ltvYcqUKdJRiIieKlu2bJg/fz5efvllnrsIn3/+uRo2bJh0DF2y2Ww4ePAgypYty32Fnooz1PRUgYGBWu/evaVj6NZ7770Hu93Oq1IW5+rqqk2ePFmbNGkSXF1dpeMQET1W2bJlsXfvXpZpAgCcOnVKffHFF9IxdKtNmzYs05QqnKGmZ4qKilIBAQGIioqSjqJL8+bNQ8eOHXnAJQDAwYMHVdu2bXHhwgXpKEREj3Tt2hUTJ07k/dIEALDb7apOnToIDQ2VjqJLnJ2mtOAMNT1TtmzZtI8//lg6hm59/PHHSEhI4JUpAgBUqFBB27dvH1q1aiUdhYgI7u7u+PnnnzFr1izeL02PjB8/nmX6Kdq1a8cyTanGGWpKlcTERFWmTBmcOXNGOooufffdd3j33Xd54KW/mTVrlhowYADi4uKkoxCRBZUoUQKLFi1CYGAgz0/0yOXLl1VgYCDPTU9gs9lw6NAhlClThvsNpQpnqClVnJ2dta+++ko6hm59+umniIqK4tUp+ptu3bppYWFhqFixonQUIrKYrl27IiwsjGWa/qVPnz4s00/RoUMHlmlKExZqSrWWLVtqtWrVko6hS9HR0Rg/frx0DNKh4sWLa7t27cIHH3wAm42HXCLKWO7u7pg2bRpmzZqlubu7sxTQ30yfPl2tW7dOOoZuOTg4YPjw4dIxyGC45JtS7fTp06pq1aq4e/eudBRdypEjB65cuQI3Nzd+gaHH2rRpk+rWrRuuXbsmHYWITCgoKAg///wzihcvzvMQ/UtERIQKDAxEdHS0dBTd8vb2xpEjR1CgQAHuQ5RqnC6hVLl3755q3bo1y/RT3LlzBzNnzpSOQTpWv3597dChQ2jbtq10FCIyEUdHR4wYMQI7d+5kmaYnGjhwIMv0M8TExKBFixa4f/8+Zxwp1ThDTc+klFLt2rXD4sWLpaPoXkBAAE6dOgWbzcYvNPRUK1asUP369UNERIR0FCIyMD8/P8yaNQu1atXieYeeaN68eapz587SMQyjS5cumD17NvcpShXOUNMzjRo1imU6lc6ePYuVK1dKxyADaNasmXbs2DH06dNHOgoRGVTXrl1x5MgRlml6qtu3b6t33nlHOoahzJkzB99++y1nHSlVWKjpqZYvX64+/fRT6RiGsnDhQukIZBA+Pj5aSEiItnjxYuTOnVs6DhEZRJ48ebBixQrMmjVL8/DwYJmmpzpw4ADu3LkjHcNwBg8ejA0bNrBU0zOxUNMTnTx5UnXr1g28LSBtDh8+LB2BDKZ169baqVOnOFtNRM/Url07HD16FE2bNmWRplR55ZVXtCFDhkjHMJzk5GR06NABFy5c4BdheioWanqse/fuqbZt2yI2NlY6iuEMHDhQOgIZkLe3txYSEqL9+uuvKFSokHQcItKZIkWKYP369Vi4cKGWPXt2lmlKk88//xxNmzaVjmE4UVFRaNq0KWJjY1mq6YlYqOlf7Ha76ty5M06cOCEdxXC6d++Ovn378osOPbdmzZppJ0+exIgRI+Di4iIdh4iE2Ww29OnTB4cPH0aDBg14fqHnYrPZtLlz56JUqVLSUQzn5MmT6N69OxSXbNITsFDTv4wYMYIP1noO1apVQ0hIiHQMMgE3Nzdt5MiR2tGjR/Hyyy9LxyEiIaVLl0ZoaChCQkJ4rzS9ME9PT23p0qXw9vaWjmI4y5YtwxdffCEdg3SKr82iv1m+fLlq1aoV75tOI19fX4SFhSFfvnz8wkPpSimlZs+ejQ8//BA3b96UjkNEmSBLliz45JNP8MEHH8DZ2ZnnFUpXa9euVU2aNEFKSop0FEPRNA2LFi1CmzZtuE/S37BQ0yOnTp1S1apVw927d6WjGIqTkxM2btyI2rVr8wBLGSYmJkaNGDECP/74I78EEZlY06ZN8f3336Nw4cI8p1CG+e9//6s+/vhj6RiG4+npiV27dqF06dLcP+kRFmoCAMTGxqpq1arh5MmT0lEMJyQkBH369OGBlTLFiRMn1AcffIDVq1dLRyGidBQQEIBx48ahcePGPJ9QhlNKqc6dO2P+/PnSUQynWLFi2LNnD7y9vbmvEgDeQ034/4eQsUynXffu3VmmKVOVKlVK++2337T169ejdOnS0nGI6AVlyZIFI0aMwNGjR1mmKdNomqZNmzYNlSpVko5iOGfOnEGHDh2QkpLCWUkCwEJNAIYNG4ZVq1ZJxzAcPoSMJDVo0EA7ePAgxo4di2zZsknHIaI00jQNXbp0wZkzZzBy5EjNxcWFZZoylZubm7Z48WLkzJlTOorhrFu3DsOGDZOOQTrBJd8Wt2zZMtW6dWs+hCyN+BAy0pPo6Gj11VdfYezYsUhISJCOQ0TPUKNGDfzvf/9DjRo1eA4hcTt27FDBwcFITEyUjmIomqZh7ty56NixI/dji2OhtrBTp06pqlWrIjY2VjqKofAhZKRXZ8+eVUOHDsWiRYt4kYxIh0qXLo2vv/4ar776Ks8fpCs//PCDeuutt6RjGI6bmxu2b9+OSpUqcZ+2MC75tqjo6GjVrFkzlunn8MMPP7BMky4FBARoCxYs0I4ePYp27dpB07iZEulB3rx5ERISgkOHDrFMky4NHDhQ6927t3QMw3nw4AHatGmD27dv8yq2hXGG2oLsdrtq1qwZfvvtN+kohtOvXz/89NNP/DJEhrB37141bNgwrFu3TjoKkSX5+Pjgvffew6BBg+Du7s5zB+laUlKSCg4Oxvbt26WjGE6tWrWwceNGvjfeolioLeijjz5So0ePlo5hONWrV8fmzZvBB8eQ0ezcuVMNGzYMmzZtko5CZAmenp548803MWTIEL5ahwzlxo0bKigoCFevXpWOYjhvv/02xo0bx/3dglioLWbp0qWqTZs2vL8yjfgQMjKDdevWqU8//RShoaHSUYhMycfHB++++y7eeecdZM2alecLMqQDBw6oWrVq4cGDB9JRDGfKlCno2bMn932LYaG2kJMnT6pq1arxvuk0cnJywqZNm1CrVi0eIMkUduzYob766iusWrWKF9eI0gFnpMlsfv75Z9WtWzfpGIbj6uqKLVu2oGrVqjwOWAgLtUVER0erKlWq4Ny5c9JRDGfSpEno3bs3D4xkOocPH1ajR4/GokWLkJKSIh2HyHB8fX3x9ttv48033+SMNJnOu+++q8aNGycdw3Dy5MmDffv2cVWjhbBQW4DdbldNmzbF6tWrpaMYTv/+/TFhwgQeEMnULl68qMaOHYvJkydziR9RKvj7+2PgwIHo06cP3NzceI4gU0pJSVFNmzbFmjVrpKMYDp+7Yy0s1BYwePBg9fXXX0vHMJzq1atjy5YtfGIjWcb169fV999/j8mTJ+POnTvScYh0p06dOvjggw/QtGlTaHwvHVlAVFSUqlKlCs6fPy8dxXC6d++OGTNm8DhhASzUJrdo0SLVoUMH3ieZRvny5UNYWBh8fX15ICTLefjwoZo7dy6+//57HDp0SDoOkSgHBwe0atUKH374IapUqcJzAlnOkSNHVI0aNRAfHy8dxXAmTJiA/v3787hhcizUJnbq1ClVtWpVPoQsjfgQMqL/t3//fjVu3DjMnz8fSUlJ0nGIMo2vry+6d++O/v37o1ChQjwfkKXxLTHPx8nJCRs2bECdOnV4DDExFmqTunfvnqpatSpOnjwpHcVwJk+ejF69evHAR/QX169fVyEhIZgwYQJu374tHYcow1SqVAlvv/02OnXqBCcnJ54LiP4wbNgw9fnnn0vHMJzcuXNj//79fEiZibFQm5BSSrVt2xZLliyRjmI4b775Jn788Uce8IieICEhQf3666+YNWsWVq9ezaeDkyl4eXmhY8eOGDhwIMqUKcNzANFj2O121bJlS6xYsUI6iuFUq1YNW7Zs4UPKTIqF2oRGjRqlRo4cKR3DcGrUqIHNmzfzIWREqXTp0iU1ffp0zJgxA1euXJGOQ5QmNpsN9erVQ/fu3dGmTRtkyZKFx36iZ7h3756qXr06jh8/Lh3FcPr27YuJEyfyOGNCLNQms27dOvXqq69y1iiN8uTJg7CwMOTNm5cHOqI0stvtatOmTZg1axZ++eUXvnqLdK1gwYLo1KkT+vTpgyJFivCYT5RGZ86cUVWrVkVMTIx0FMOZNGkSevfuzeOOybBQm8ilS5dU5cqVERkZKR3FUFxcXLBt2zY+vZUoHdy5c0fNmzcP8+fPx65du/gAG9IFb29vtG/fHt27d0eNGjV4rCd6QevXr1eNGzfmBE4a8cG35sRCbRLx8fGqWrVqOHbsmHQUw+FDyIgyxuXLl9WCBQswb948vn6LMp2npyeaNWuGdu3aoVGjRnB1deVxnigdffXVV2rIkCHSMQzH19cX+/fv56pIE2GhNomOHTuqBQsWSMcwnAEDBuCHH37gAY0og126dEktWLAAM2bMwKlTp6TjkEllyZIF9evXR7t27dCmTRu4u7vz+E6UQZRSqkuXLpg3b550FMOpXr06tmzZwuf2mAQLtQmMGTNGffjhh9IxDIcPISOSceDAAbVkyRL8+uuvOHr0qHQcMrisWbOiSZMmnIkmEvDgwQNVp04dhIWFSUcxHE7qmAcLtcHt2LFD1atXD8nJydJRDCV//vwICwtD7ty5eSAjEnTp0iW1bt06rFixAmvXrkVSUpJ0JDKAIkWKoEGDBmjatCleeeUVXhglEnT58mUVFBSE27dvS0cxnBkzZqB79+48fhkcC7WBRUVFqYoVK+Ly5cvSUQzF1dUVW7du5UPIiHQmKipKbdy4EStWrMDy5csRGxsrHYl0wsHBAdWqVUOzZs3QoEEDVKpUicdvIh0JDQ1V9evXR2JionQUQ3F1dcWuXbtQvnx5HtMMjIXaoOx2u2rSpAnWrFkjHcVwpkyZgp49e/LARaRjCQkJaseOHdiwYQPWr1+PgwcPwm63S8eiTFS0aFEEBwcjODgYDRs2hLe3N4/bRDo2YcIENWDAAOkYhhMQEICwsDB4eXnxGGdQLNQG9eWXX6pPPvlEOobhvPXWWxg/fjwPWEQGExkZqTZt2oQNGzZg3bp1uHTpknQkSmc5c+bESy+9hAYNGuDll1+Gn58fj9VEBtO3b181adIk6RiG0759eyxYsIDHPINioTagbdu2qeDgYN43nUY1a9bEpk2beK8dkQmcOXNGrV+/Htu2bcOOHTsQEREhHYnSKGfOnKhRowZeeuklBAcHIzAwEJqm8fhMZGBJSUmqQYMG2LZtm3QUw5kwYQL69+/PY6ABsVAbzK1bt1SFChX45TGNChQogH379vEhZEQmFRERoUJDQ7Fjxw6EhoZyibgOFSlSBDVr1kSlSpVQq1YtVKxYkQWayIRu3LihKleujGvXrklHMRQXFxeEhobyGREGxEJtIHa7Xb366qtYu3atdBRDcXV1xbZt2xAUFMQDFJFFREdHq9DQUISGhmLfvn04ePAgoqKipGNZhre3N8qXL4+goCDUrFkTNWrUQM6cOXkMJrKIgwcPqpo1a+LBgwfSUQylUKFC2L9/P7Jnz87jpYGwUBvI559/roYNGyYdw3CmT5+O119/nQcmIosLDw9Xhw4dwpEjR3DmzBmcPXsWZ8+exZ07d6SjGVb27Nnh7++PgIAAFC9eHGXKlEG5cuVQuHBhHnOJLG7GjBmqR48e0jEMp0WLFli6dClX8BgIC7VBbNmyRTVo0AApKSnSUQxl4MCB+P7773lAIqIniomJUefOnUN4eDjCw8Nx9epVXL16FeHh4bh+/Tpu3ryJuLg46ZiZzt3dHblz50aePHlQoEAB5MuXDwUKFHg0ihYtimzZsvH4SkRP9M4776jx48dLxzCcMWPG4P333+fx1SBYqA3g1q1bqnz58rh+/bp0FEOpVasWNm3aBCcnJx6QiOiFPHjwQN25cwc3b97ErVu3EB0djXv37uHu3buIjY1FXFwc7t27h7i4OERHRyMuLu7RX4uNjcXdu3cz9Z5uTdPg7e0NLy8veHh4wMPDA56envD29oanp+ejv5Y1a1Z4eXnB09MTPj4+yJkzJ3x9fZEzZ064ubnx2ElELyQ5OVk1bNgQmzdvlo5iKM7Ozti9ezcqVKjA47ABsFAbQIsWLdSvv/4qHcNQ8uTJg7CwMOTNm5cHIiLSjXv37qm/vqEhNjb2byuPYmJi8NfzcnR0NLy9vfHnyr8/i/KfbDYbsmbN+ui/Ozo6wtPTk8c9ItKNyMhIVaVKFVy4cEE6iqGULFkS+/fv58VNA2Ch1rkJEyaoAQMGSMcwFCcnJ2zatAm1atXiAYiIiIhI2OHDh1XNmjURHx8vHcVQ3n33XXz33Xf8PqtzLNQ6dvLkSVW5cmXcv39fOoqhTJo0Cb179+bBh4iIiEgnFi9erNq1awd2j9TTNA2//fYbGjVqxO+1OmaTDkCPl5CQoLp06cIynUZ9+/ZlmSYiIiLSmTZt2mgffPCBdAxDUUqhV69eiIqK4lUIHWOh1qmhQ4fi4MGD0jEMpVq1ahg3bpx0DCIiIiJ6jNGjR6Nx48bSMQzl2rVr6NOnj3QMegou+dahjRs3qoYNG2bqE2GNztfXF2FhYciXLx9np4mIiIh0KioqSlWpUgXnz5+XjmIo8+bNQ8eOHfk9V4dYqHUmOjpalS9fHleuXJGOYhhOTk7YsGED6tSpw4MMERERkc6dPHlSVatWDbGxsdJRDCN79uw4efIkcubMye+7OsMl3zrTr18/luk0+u6771imiYiIiAyiZMmS2rRp0x69EpCeLTIyEoMHD5aOQY/BGWodWbFihWrevLl0DEN5/fXXMX36dB6NiYiIiAxm6NCh6osvvpCOYRiapmHz5s2oW7cuv/vqCAu1TsTHx6vAwEBcunRJOophVKhQAaGhoXzhPREREZEB2e121aJFC6xcuVI6imGUKlUKhw8fhqOjI7//6gSXfOvExx9/zDKdBtmzZ8fixYtZpomIiIgMymazaXPnzkWpUqWkoxjGiRMnMG3aNOkY9BecodaBvXv3qho1aiAlJUU6iiE4Ojpi3bp1qFevHss0ERERkcGdOnVKVa1alQ8pS6VcuXLh7Nmz8PLy4ndhHeAMtTCllOrbty/LdBp8/fXXLNNEREREJlGiRAlt9uzZsNlYTVLj1q1bGDdunHQM+gNnqIXxQWRp07lzZ8yZM4dlmoiIiMhkPvvsMzV8+HDpGIbg7e2Nixcvwtvbm9+LhfEykLBvvvlGOoJhlC9fHpMnT5aOQUREREQZYOjQoWjdurV0DEOIiYnBhAkTpGMQOEMt6uzZs6p48eLg7+DZsmXLhn379qFIkSK8CkdERERkUnFxcap69eo4duyYdBTdy5MnDy5fvgwnJyd+PxbEGWpBM2bMYJlOBZvNhtmzZ7NMExEREZmch4eHtmLFCuTIkUM6iu5dv34dy5Ytk45heSzUghYuXCgdwRC+/PJLNG7cmGWaiIiIyAIKFy6szZ49Gw4ODtJRdG/KlCnSESyPS76FHD9+XAUGBkrH0L1WrVph8eLF0DSNhZqIiIjIQr7++ms1ePBg6Ri65uDggGvXriF37tz8riyEM9RCVq9eLR1B9wIDAzFr1iyWaSIiIiIL+vDDD9GxY0fpGLqWkpKCpUuXSsewNBZqIVu3bpWOoGs+Pj5YunQpPDw8WKaJiIiILEjTNG3atGmoVKmSdBRdW7t2rXQES+OSbwFKKZUjRw5ERUVJR9Elm82GFStW4NVXX2WZJiIiIrK4S5cuqaCgINy5c0c6ii55e3vjzp07cHBw4HdnAZyhFnDlyhWW6acYOXIkyzQRERERAfj9IWULFiyAo6OjdBRdiomJ4WvGBLFQCzh58qR0BN1q3rw5hg4dKh2DiIiIiHSkfv362pgxY6Rj6NahQ4ekI1gWC7WAU6dOSUfQpRIlSuDnn3/mQ8iIiIiI6F/eeecdrXv37tIxdOnIkSPSESyLhVoAC/W/eXp6YvHixfDy8mKZJiIiIqLHmjhxIqpUqSIdQ3cuXLggHcGyWKgFcMn332mahunTp6NUqVIs00RERET0RK6urtqyZcuQN29e6Si6cvnyZekIlsVCLeDatWvSEXRl6NChaNOmDcs0ERERET1Tnjx5tAULFsDZ2Vk6im7cuHFDOoJlsVALiI2NlY6gGw0bNsSIESOkYxARERGRgdSqVUsbN26cdAzduH//vnQEy+J7qAW4urqqhIQE6RjiAgICsHfvXnh7e3N2moiIiIjSrG/fvmrSpEnSMcQ5OjoiKSmJ36kFsFBnsoSEBOXq6iodQ5yHhwd27dqFwMBA7vhERERE9FySkpJUgwYNsG3bNuko4hISEuDs7Mzv1pmMS74z2b1796Qj6EL9+vVRunRp6RiUiU6ePKm2bt2qEhMTeRWPiIjSXUpKigoNDVXHjh3jecZCoqKicOfOHekYusBl3zJYqDMZN/Tf/frrr3jrrbeguETCEiZMmKDKlSuHl156CTly5MA777yjLl68yN89ERG9sBs3bqihQ4cqX19f1KpVC+XLl8f//vc/xe8Y5nfr1i0VHByMEydOSEfRhQcPHkhHsCQu+c5kt27dUrlz55aOoRu9e/dGSEgINE3j8hQTSkhIUAMHDsSUKVP+9fdsNhteffVVfPTRR6hRowZ//0RElCZnz55VP/zwAyZPnvzYItGiRQvMmjULXl5ePMeY0O3bt1VwcDCOHj0qHUU3bt68iVy5cnF7z2Qs1JksPj5eeXh4SMfQlYEDB2L8+PEs1SZz7do11aZNG+zZs+eZ/2z9+vXx1VdfoXLlytwGiIjoqU6dOqU+/vhjLFu2DM/6HlumTBksXboURYsW5fnFRFimHy86OpoP+xXAJd+ZLEuWLGBv/LsffvgBffv25fJvEwkNDVVBQUGpKtMAsGnTJlSpUgXt27dX58+f53ZARET/cvv2bfXOO++oP0tyar42HD16FBUrVsSyZct4bjGJ6Oho1ahRI5bpx+B7uWWwUGcyTdM0Nzc36Ri6M3nyZLz99tss1Sbw008/qfr16+P69etp+t8ppbBo0SKUKlUKgwYNUpGRkdwWiIgIsbGxatiwYcrPzw/jx49HcnJyWv/3aNOmDb744gveV21wkZGRql69ejhw4IB0FN2x2Wzgm4RkcMm3gFy5cqnbt29Lx9AlLv82roSEBDVgwABMnTo1Xf7/vL298dFHH2HQoEFwcnLi9kBEZDEpKSkqJCQEI0eORHp9b2rVqhVmzpwJT09PnlcMJjIyUjVo0ACHDh2SjqJLWbNmRUxMDLdrAZyhFpA/f37pCLrF5d/GFBERoV566aV0K9MAEBMTg8GDB6N06dJYt24dtwciIgvZv3+/qlGjBgYMGJBuZRoAli5disqVK+P48eM8rxhITEyMatSoEcv0U2TLlk06gmWxUAsICAiQjqBrXP5tLKGhoapSpUrYvXt3hvz/nz17Fq+88gq6dOmirl+/zm2CiMjEIiMjVe/evVWVKlWwd+/eDPl3nDlzBjVq1MDy5ct5TjGA6OhoFRwcjLCwMOkousZCLYeFWoC/v790BN374YcfWKoNYOLEiap+/fq4ceNGhv+75s6di5IlS2L8+PEqJSWF2wURkYnY7XY1efJkVbx4cUyZMgV2uz1D/32xsbFo1aoVhg8frux2O88pOhUdHa1efvll3jOdCoUKFZKOYFks1AJYqFOHpVq/Hj58qHr27Kn69++PxMTETPv33r17F++88w4qV66MXbt2cbsgIjKBAwcOqBo1aqBPnz6IjIzMtH+vUgqfffYZWrRogbt37/KcojMxMTGqYcOG2L9/v3QUQ/Dz85OOYFks1AJYqFOPpVp/wsPDVZ06dTBt2jSxDIcOHUKtWrXQp08fFRUVxW2DiMiAYmNj1dtvv62qVKmS6tcsZoSVK1eiatWqOHXqFM8nOvFnmeYy79QrWrSodATLYqEWEBgYCJuNH31qsVTrx5YtW1TlypWxb98+6Siw2+2YPHkySpYsiVmzZvFVKEREBrJw4UJVsmRJfP/990hJSZGOg9OnT6Nq1apYsWIFzyXC7t69qxo1aqSL7xpGUqlSJekIlsVWJ8DHx0crV66cdAxD4dO/5U2aNEk1bNgQt27dko7yN7du3UL37t3x0ksv8amtREQ6d+HCBfXqq6+qDh06ICIiQjrO38TGxqJFixYYMmQI76sWEhsbqxo1aiS6YsGIXFxcwG4hh4VaSL169aQjGA6f/i3j/v37qkuXLqpv375ISkqSjvNE27ZtQ8WKFTFs2DD14MEDbiNERDqSmJiovvjiCxUYGIjVq1dLx3kipRS++uortG3bFvfu3eO5JBP9WaYz6q0hZla5cmW4uLjwHdRCWKiFvPTSS9IRDInLvzPXhQsXVI0aNTB37lzpKKmSmJiIzz//HIGBgVi6dCm3ESIiHVi9erUqW7Yshg4digcPHkjHSZWlS5eievXqOHfuHM8lmeDevXuqcePG2LVrl3QUQ2revLl0BEvT2Etk3L17V2XPnl0X9w0ZUZ8+fTBx4kRomsarcRlkzZo1qkuXLoiKipKO8tzq1auHcePGoUyZMtxOiIgy2blz59THH3+MRYsWSUd5bl5eXpg1axZatGjB80gGiY+PV02aNMHWrVuloxjWuXPnULRoUW6jQjhDLSRr1qxatWrVpGMY1qRJkzhTnUGUUurLL79UTZs2NXSZBoDNmzejUqVKGDRokIqJieG2QkSUCeLi4tSQIUNUYGCgocs08Pt91W3atMHo0aP58MsMEBcXpxo1asQy/QIqVqzIMi2MhVpQhw4dpCMY2g8//IB+/fqxVKejuLg41b59e3zyySemWT2RlJSEsWPHomjRohg3bpxKSUnh9kJElAGUUmrRokWqdOnS+Oqrr5CQkCAdKV2kpKTgo48+QseOHREfH89zSDq5f/++at68OXbs2CEdxdAGDhwoHcHyuORb0I0bN1SBAgWQnJwsHcXQBg4ciPHjx3P59ws6ffq0atWqFU6ePCkdJUNVqFABY8aMQf369bm9EBGlkx07dqgPPvjA9E9nLlu2LJYtWwY/Pz+eQ14Al3mnj5w5c+LKlStwdXXl9iiIM9SCfH19tZYtW0rHMDw+qOzFLV++XFWpUsX0ZRoADh48iODgYDRt2lSdOHGC2wwR0Qs4c+aMatOmjapdu7bpyzQAHDlyBEFBQdiwYQPPH8/p/v37qmnTpizT6eDNN99kmdYBFmphXKaRPrj8+/kopdRXX32lWrdujdjYWOk4mWrVqlUoU6YMunXrpq5fv87thogoDaKiotSQIUNU2bJlsWTJEuk4mSoyMhKNGjXCV199xXNHGt2/f181a9YMW7ZskY5ieDlz5sR7770nHYOA39+3xyE7XnrpJQWAIx1Gnz59lN1uV9K/UyOMu3fvqpYtW4r/zvQw3N3d1eDBg1VsbCy3HQ4ODo6njISEBDV27Fjl7e0tfuzWw+jYsaOKj49X0r8XI4z79++r4OBg8d+ZWcYPP/zA7U4ng/dQ68C+fftU9erVTfMQKGm8p/rZjh49qlq3bo1z585JR9GVPHny4JNPPkHv3r3h7OzM7YeI6A/Jyclq+vTp+PTTT3H16lXpOLpSsWJFLF26FAULFuR54wkePHigmjdvjg0bNkhHMYXixYvj6NGjcHJy4janA1zyrQNBQUEal2ykHy7/froFCxao6tWrs0w/xvXr1zFw4EAEBARg0qRJfCI4EVmeUv//5O4+ffqwTD/GgQMHULFiRWzcuJHnjMdISEhQ7dq1Y5lOJ5qm4ccff2SZ1hPpKXKO38fDhw9V5cqVxZePmGlw+fffR3Jysho8eLDSNE38d2OUUbJkSbVw4UJuRxwcHJYc69evVxUrVhQ/FhtlODo6qj/eVy3+u9PLSEhIUE2aNBH/3Zhp9O/fn9uYzgaXfOvIpUuXVMWKFREdHS0dxTS4/Pt3d+7cUR07dsTGjRuloxhSlSpV8Pnnn+Pll1+29HZERNawbds29cknn/D9wM/p9ddfx08//WT5py8/fPhQtWrVCmvWrJGOYhoFChTAsWPH4OXlZeltS2+45FtHChcurM2aNQsW737piq/UAg4cOKAqV67MMv0C9u7di4YNG6JWrVpq/fr1lt2WiMjctm7dqurXr6/q1q3LMv0CZsyYgbp16+LatWuWPV8kJCSo1q1bs0ynI5vNhhkzZrBM65H0FDnHv8dHH30kvpzEbOPNN9+05LLdmTNnKldXV/HP32yjRo0aas2aNZbbnjg4OMw5Nm3apOrWrSt+bDXb8PX1VTt27FDSv9/MHg8fPlSvvvqq+OdvtjFixAjLbUtGGeIBOP49kpOT1csvvyy+45pt9O3b1zKlOjExUb311lvin7nZR7Vq1dRvv/1miW2Kg4PDfGPDhg2qdu3a4sdSMw9nZ2f1008/KenfdWYN3jOdMaNevXoqOTnZMtuR0QbvodapmJgYVb16dZw6dUo6iqn06tULISEhsNlspl0uc/PmTdW+fXts27ZNOoplVKlSBZ988gmaNWtm+fv1iUjflFJqzZo1+OKLLxAaGiodxzLeeOMNTJgwAS4uLqY9RyQmJqq2bdtixYoV0lFMJXfu3Dh48CDy5Mlj2m3H6FiodezixYuqatWquH37tnQUU+ncuTNmzZoFBwcH0x2YDhw4oFq3bo3Lly9LR7Ekf39/fPjhh+jRowdfZ0FEumK329WqVavw2WefYd++fdJxLKlChQpYsmQJChcubLrzQ1JSkmrXrh2WL18uHcVUnJycsH79etStW9d024ypSE+Rczx9bN++Xbm4uIgvNTHb6Nixo0pKSjLV0pmff/5Zubm5iX+2HFCFChVSY8eOVfHx8abaxjg4OIw3EhIS1MyZM1Xx4sXFj40cUDly5FAbNmxQ0ttFeo7ExETVsmVL8c/WjCMkJMRU24pZh3gAjmePadOmie/QZhyvvfaaKe5HSUhIUP379xf/PDn+PXLmzKk+++wzFRUVZfjtjIODw1jj7t27avTo0crX11f8WMjx9+Ho6KjGjRunpLeR9BiJiYmqVatW4p+pGceAAQNMsY1YYYgH4Ejd+M9//iO+Y5txdOrUydAz1REREapmzZrinyPH04e7u7saOHCgOnv2rGG3NQ4ODmOMixcvqkGDBikvLy/xYx/H00fXrl3V/fv3lfQ287wjMTFRtW7dWvxzNOOoV6+eSkxMNOy2YbUhHoAjdcNut6uuXbuK7+BmHG3btjXkQSssLEwVLFhQ/PPjSP2w2WyqQYMG6tdffzXc9sbBwaHvERYWprp27aocHR3Fj3UcqR/ly5dXFy5cUNLbT1pHcnKy6tSpk/jnZ8ZRsmRJFRkZabhtwspDPABH6kdCQgJfp5VBo02bNoYq1SEhIcrZ2Vn8c+N4/lG+fHkVEhKiHjx4YJjtjoODQ18jJSVF/frrr1ypZPCRPXt2tW7dOiW9PaV2JCcnq86dO4t/bmYcOXPm5Go2Aw4+5dtg7t69q2rXro2jR49KRzGdVq1aYf78+XB2dtbtkxQTEhLUwIEDMWXKFOkolE7y5cuH/v37o1evXsidO7dutz0i0o87d+6oqVOn4qeffuJbHUzCwcEBo0ePxvvvv6/r1y8mJyerLl26YOHChdJRTMfDwwNbtmxBpUqVdPv7p8djoTaga9euqerVqyM8PFw6iuk0bdoUixYtgqurq+4OZlevXlXt2rXD7t27paNQBnB2dkbbtm0xcOBAVK9eXXfbHxHJ27dvn/rxxx+xYMECPHz4UDoOZYAOHTpg6tSpcHd31915ICUlRb322muYP3++dBTTcXR0xPLly/Hqq6/q7vdOqSA9Rc7xfOPYsWPKx8dHfGmKGUeDBg1UXFycrpbbbNiwQeXKlUv8s+HInFGhQgU1ZcoUQz+shoODI33Gw4cP1axZs1SVKlXEj00cmTPKli2rzp07p6S3vb8O3jOdcUPTNDV58mRd/b450jbEA3A8/9i6datydXUVPxCYcdSqVUvdvXtX/OBmt9vVF198oRwcHMQ/E47MH9myZVPvvfeeOnnypPi2yMHBkbnj7NmzasiQISpnzpzixyKOzB8+Pj5q9erVujj2/7HMW/wzMev48ssvdfF75nj+IR6A48XG4sWLWbYyaAQFBYk+ZTEqKko1a9ZM/HPg0MeoXbu2mjlzJmetOThMPB4+fKjmzp2r6tevrzRNEz/ucMgOm82mvvjiC2W328WO+8nJyeq1114T/yzMOgYNGiT2u+VIvyEegOPFx6xZs5TNZhM/KJhxlCpVSl27di3TD3YHDx5URYsWFf/5OfQ3vLy8VJ8+fdT+/ft5EubgMMk4efKkGjx4MGejOR47mjZtqmJiYjL9mJ+SkqK6desm/vObdbz22msqJSUl03+vHOk/xANwpM/47rvvxA8MZh0lSpRQV69ezbQD3rRp05Sbm5v4z82h/1G5cmU1YcIEFRUVxRMyB4fBRkxMjJo8ebKqXr26+LGEQ/+jVKlS6vTp05l2rE9JSVHdu3cX/7nNOpo2baqSkpIy7ffJkbFDPABH+o0RI0aIHyDMOooUKaIuXryYoQe+Bw8eqF69eon/rBzGGy4uLqpt27ZqxYoVPEFzcOh4JCcnq9WrV6tOnTrxwilHmkfWrFnVr7/+muHH+JSUFNWjRw/xn9eso06dOrx9y2RDPABH+o4PPvhA/EBh1pEnTx517NixDDkAXr58mU9w5UiXkS1bNtWnTx+1fft2nqw5OHQyTpw4oUaMGKEKFSokfozgMPbQNE0NHjw4w5YK2+121a9fP/Gf06yjatWqKjY2ludnkw2+h9pklFKqZ8+emD59unQUU/L19cW6detQpkyZdHtP4KpVq1TXrl0RHR0t/eORyZQtWxadO3dGx44dUahQIb7bkigThYeHq4ULF2Lu3Lk4cOCAdBwymWbNmuHnn39G1qxZ0+3YbrfbVd++fTFlyhTpH8+UKlSogE2bNsHb25vnY7ORbvQc6T+Sk5NV+/btxa/CmXV4e3urbdu2vfDVxaSkJDVixAg+UI4jU0apUqXU6NGjVUREBK+Mc3Bk0IiMjFQzZ85UDRo04LGdI8OHv7+/Onr0aLoc0+12u3rzzTfFfyazjuLFi6sbN27w/GvSIR6AI2NGQkKCaty4sfgBxKzDxcVF/fLLL899YLx8+bKqWbOm+M/BYb1hs9lUzZo11dixY9XNmzd5cufgeMERHR2tZs6cqZo2baqcnJzE93EOaw0PDw+1aNGiFzqWs0xn7AgICODFbJMP8QAcGTfi4+NV7dq1xQ8kZh0ODg5q8uTJaT5ALl26VPn4+Ijn5+BwcHB4VK4lXg/HwWHUcefOnUcl2sXFRXxf5rD2+PO+6uTk5DQfx+12uxowYID4z2DWUbBgQXXp0iWeX00+xANwZOyIiYlRFStWFD+gmHVomqZGjBiRqgPlw4cP1dtvvy2emYPjccNms6lKlSqpESNGqDNnzvDkz8HxjxEeHq5CQkI4E82h2/HKK6+oyMjIVB+/7Xa7GjhwoHhus478+fOr8+fP83xqgcGHklnAzZs3VZ06dXDmzBnpKKb1wQcf4Ouvv4amaY990MTp06dVx44dcejQIemoRM+kaRoqVaqEVq1aoUmTJihXrhwfoEKWdOzYMbVy5UosW7YMe/fuBb8zkd4VLVoUS5YsQdmyZZ963FZKqbfeegs//vijdGRTypMnD7Zu3YqAgACePy2AhdoiLl++rGrXro3w8HDpKKbVtWtXTJ48GS4uLn87eE6fPl29/fbbiIuLk45I9FwKFCiAJk2aoEmTJggODoabmxu/IJApPXz4UG3evBkrV67EqlWrcPnyZelIRGnm7u6OKVOmoGPHjo89Viul1DvvvIPvv/9eOqop5cyZE5s3b0bp0qV5rrQIFmoLOX36tKpTpw5u3bolHcW0atasiSVLliBXrlzajRs3VJ8+fbBixQrpWETpxs3NDfXr10fTpk3RqFEjFC5cmF8YyNCuXLmi1qxZg1WrVmHDhg24f/++dCSidGZcquUAACaiSURBVPH+++9j9OjRcHR0fHScVkqpQYMGYdy4cdLxTMnHxwebNm1C+fLleW60EBZqizl48KCqV68e7t69Kx3FtHx9fdG+fXvMmjULMTEx0nGIMlRAQAAaNmyIl19+GfXq1YOXlxe/RJCuxcXFqc2bN2P9+vVYv349Tp06JR2JKMMEBwdj/vz5yJEjhwYAgwYNUmPHjpWOZUpeXl5Yv349qlSpwvOgxbBQW9COHTvUK6+8wqvwRJSuHB0dUbVq1UcFOygo6G8zI0QSkpOT1f79+x8V6F27diEpKUk6FlGmKVSoEJYsWYI5c+bg22+/lY5jSu7u7lizZg1q1arFc54FsVBb1Lp161SLFi3w8OFD6ShEZFLu7u6oWbMm6tSpg7p166JKlSpwdnbmlw3KUElJSWrfvn3Ytm0btm7ditDQUNy7d086FpEoBwcHpKSkSMcwJTc3N6xYsQLBwcE8v1kUC7WFrV69WrVq1QoJCQnSUYjIAtzc3FCtWjXUrVsXderUQVBQEDw8PPgFhF5IfHy8CgsLw7Zt27Bt2zbs2rUL8fHx0rGIyAJcXV2xfPlyNGzYkOcyC2Ohtrg1a9aoli1bslQTUaZzcHBA8eLFUalSJVSqVAm1atVChQoVYLPZ+MWEnigiIkKFhoZix44d2L9/P/bt24fExETpWERkMc7Ozli8eDGaNm3Kc5bFsVATli5dqjp06MB7yohInI+PD6pWrYpq1aqhevXqqFatGh90ZmFxcXFq79692LlzJ3bv3o3du3cjMjJSOhYRWZyLiwuWLl2Kxo0b8/xELNT0u8WLF6uOHTsiOTlZOgoR0d8UKVIENWvWRK1atVCzZk2ULFmSs9gmxdlnItI7Z2dnLFq0CM2bN+d5iACwUNNfzJ07V3Xr1o0PrSAiXcuePTtq1aqFV155BY0aNYKfnx+/1BjU5cuX1dq1a7F27Vps374dt2/flo5ERPREXOZNj8NCTX8za9Ys1aNHD9jtdukoRESpUqZMGXTp0gWvvfYa8uXLxy85Onfjxg01Z84czJ49G4cOHZKOQ0SUKpyZpidhoaZ/mTZtmurduzdLNREZirOzM3r16oVPP/0U2bNn5xcenYmJiVEjR45ESEgIX9lIRIbi7OyMhQsXokWLFjy30L+wUNNjhYSEqP79+4PbBxEZTZEiRbBhwwYuBdeRq1evqgYNGuD06dPSUYiI0sTJyQkLFy5Ey5YteU6hx7JJByB96tu3r/b9999D03jsICJjuXDhAl5//XXpGPQXvXr1YpkmIsNxcnLC/PnzWabpqThDTU81duxYNWjQIOkYRERpdvz4cZQqVYpfgoRdvnxZ+fn5ccUTERmKo6Mj5s+fjzZt2vA8Qk/FGWp6qnfffVf79ttvpWMQEaXZnj17pCMQfv89sEwTkZE4ODhg5syZLNOUKizU9EyDBg3SxowZIx2DiChNzpw5Ix2BAJw6dUo6AhFRqv1Zpjt37swyTanCQk2p8v7772sjR46UjkFElGos1PrAe6eJyCgcHBwwY8YMdOnShWWaUo2FmlJtxIgR2tChQ6VjEBGlCgu1PnCGmoiM4M8y/dprr7FMU5rwoWSUZoMHD1Zff/21dAwioqdydXVFfHw8bDYbvxwJUUopLy8vxMXFSUchInqiP5d5c2aangdnqCnNvvrqK+2DDz6QjkFE9FQPHz7E9evXpWNY2q1bt1imiUjXuMybXhQLNT2X//3vf9rw4cOlYxARPdWVK1ekI1japUuXpCMQET2Rg4MDpk+fzmXe9EJYqOm5jRo1iqWaXoiXlxdef/11uLm5SUchk2Khk8XPnzKKn58fvvvuOxQrVkw6ChmUo6Mjfv75Z3Tt2pVlml4ICzW9kFGjRmmjR4+WjkEGVKxYMezatQvTp0/XLl++jMGDByNLlizSschkOEMti4Wa0lvhwoUxduxYnDx5Eu+++64WFhaGFi1aSMcig/lzmXenTp1YpumFsVDTCxs8eLD2v//9TzoGGUjz5s2xd+9elCpVSgOAnDlzaqNHj9YuXbqEESNGwMvLSzoimcTly5elI1gaP39KL4ULF0ZISAjOnj2Ld955R3NxcdEAwNPTU1u6dClGjx4NTWM3omfjA8go3SmlODjSZXzzzTdK0zQFgIPjscPBwUGNGDFC2e129bRt6fbt22rEiBHKy8tLPDOHscerr76qpI+NVh6NGzcW3wY4jD38/PxUSEiISkpKeua+vHDhQuXu7i6emUO/w8HBQc2ZM4fnBY50HeIBOMw1fvrpJ5ZqjseO7Nmzq3Xr1qm0bE9/FuusWbOK5+cw5ihdunSatjmO9B0lS5YU3wY4jDmKFCmS6iL913H48GHl5+cnnp9Df8PJyUktXryY5wSOdB98DzWlu8mTJ6t+/frBbrdLRyGdqFChAhYvXgw/P7/nWl4VGRmpvv/+e4wdOxZ3796V/nHIQDw8PHDv3j0u6xOglFIeHh64f/++dBQykJIlS2LIkCHo3LkzHB0dn/uc0bFjR2zYsEH6xyGdcHJywoIFC9CqVSueDyj9STd6DnOOKVOmKJvNJn41kkN+vPbaayo+Pl6lx3Z1584dNWLECOXt7S3+c3EYZ0RGRqbL9seRtnHjxg3x3z2HcUapUqXUzJkzVXJycrrsr8nJyWrw4MHiPxeH/HB2dlZLly7leYAjw4Z4AA7zjmnTprFUW3g4OzuriRMnqozYtiIjI9WwYcO4FJwjVePAgQMZsh1yPH3s2bNH/HfPof8RGBioFixYoFJSUjJkP50xY4ZydXUV/zk5ZIazs7Navnw5zwEcGTr4lG/KMD169NDmzJkDR0dH6SiUyfLly4ctW7agb9++GbK0Klu2bNqnn36qhYeHY/To0fDx8ZH+kUnH+OosGXzCNz1NYGAgZs6ciUOHDqF9+/aazWbLkPNF9+7dtZ07d6JgwYLSPzJlMmdnZyxcuBDNmzfnMm/KUCzUlKE6duyozZkzB05OTtJRKJPUrl0bYWFhqF69eoafwDw9PbXBgwdrly9fxujRo5EtWzbpH5906OrVq9IRLImfOz3On0X68OHD6Natm+bg4JDh54oKFSpoYWFheOmll6R/fMokzs7OWLRoEVq0aMEyTRmOhZoyXPv27bW5c+eyVFtAnz59sHHjRvj6+mbqCeyvxXrs2LHInTu39EdBOsJiJ+PatWvSEUhHypQpg4ULF+LIkSPo1q1bhs1IP0nOnDm19evX46233pL+KCiDOTs745dffuHMNGUaFmrKFG3bttUWLlwIZ2dn6SiUAdzd3TF37lyEhIRoTk5OYicwDw8P7Z133tHOnj2L//73v8iVK5f0R0M6EB4eLh3BkiIiIqQjkA5UqlQJy5cvx+HDh9GuXTtN0zSxc4Sjo6M2fvx4bcKECbzIb1Kurq5Yvnw5mjVrxjJNmYaFmjJNy5YttcWLF8PFxUU6CqUjf39/7Nq1C506ddLNycvT01MbMmSIdunSJXz//fcoVKiQdCQSxEItgysDrK1GjRpYsWIF9u3bh+bNm4sW6X/q37+/tnHjRl50NRk3NzcsX74cjRo10s22RtbAQk2ZqmnTptqyZcvg6uoqHYXSQZMmTbBv3z6UKVNGlycvNzc3beDAgdrZs2cxffp0lChRQjoSCWCxk8HP3ZoaNmyIzZs3IzQ0VGvatKmuivRf1a5dWwsLC0OlSpWko1A6yJIlC5YvX46GDRvqcnsjc9OUUtIZyII2btyoWrZsibi4OOko9BxsNhuGDRuG4cOHI7Pvg3sRdrtdLVmyBP/9739x4MAB6TiUSVxcXPDgwQPo9Yu9GSmllJubGxISEqSjUCaw2Wxo1aoVPvroI1SqVMlQ+9mDBw9U7969MWfOHOko9Jw8PT2xYsUK1K1b11DbHpkHCzWJ2bNnj3r11VcRFRUlHYXSwNvbG7Nnz0aTJk0MfeJas2aN+u9//4tt27ZJR6FMcOPGDeTOndvQ26yR3Lp1S/HhgObn5OSELl26YPDgwShRooSh969vvvlGDR48GCkpKdJRKA28vb2xevVqVKtWzdDbHxkbl3yTmKpVq2pbtmxBnjx5pKNQKpUpUwb79u0zfJkGgEaNGmlbt27VduzYgTZt2sDBwUE6EmUgLj/OXPy8zc3HxweDBw/GxYsXMX36dM3oZRoA3n//fW316tV8/aKBZM+eHRs3bmSZJnEs1CSqTJkyWmhoKPz9/aWj0DN07NgRu3btgr+/v6lOXDVr1tR++eUX7cqVKxgxYgSyZ88uHYkyAB9MlrlYqM3Jz88Po0ePxsWLFzF69GgtX758pjofvPzyy9revXtRpkwZ6Sj0DLly5cKmTZtQsWJFU22DZEws1CTOz89P2759O09gOuXo6IjRo0dj3rx5mru7u2lPXHnz5tVGjhypXb16FTNnzkRgYKB0JEpHLHiZi5+3uVSqVAkzZ87EmTNnMHjwYC1r1qymPRcULVpU27lzJ9q2bSsdhZ7A19cXmzZtQtmyZU27HZKxsFCTLvj6+mqbNm1C5cqVpaPQX+TOnRsbNmzA4MGDLXPScnV11bp166YdOXIEa9asQePGjcFnWRkfZ6gzF99BbXwuLi7o0qULdu/ejbCwMK1bt26ao6OjJQ6GHh4e2sKFC/Hpp5/CZuNXZT0pXLgwQkNDUbp0aUtsi2QMPEqQbuTIkUPbvHkzGjRoIB2F8PuMxJ49eyz71ExN07RXXnlF++2337Q/ZmXg7e0tHYueE2dMMxcvYBhXnjx5MHjwYJw/fx6zZ8/WqlatatlzwLBhw7SVK1fCx8dHOg7h91sONm3ahCJFilhymyT9YqEmXfHw8NB+/fVXNGnSRDqKpfXv3x+hoaEoVKgQT1oA/P39tdGjR2uXLl3CN998g4CAAOlIlEYseJnr2rVr0hEoDTRNQ3BwMBYvXozw8HBT3h/9vBo3bqzt2bMHpUuXlo5iaaVKlUJoaCj8/Py4XZLu8LVZpEtJSUmqe/fumDdvnnQUS8mSJQsmTpyIrl278oT1FEoptXnzZkyaNAlLly5FYmKidCR6Bj8/P1y4cIHbdSYpWbKkOnXqlHQMegZvb2907doV/fv3R8mSJbl/PMW9e/dUjx49sHjxYukollO+fHmsW7cOOXPm5DZKusRCTbqllFKDBg3CuHHjpKNYgr+/PxYvXsyHfKRRdHS0WrRoEcaPH4/jx49Lx6EncHZ2xoMHD2Cz2bh9ZwJPT08VFxcnHYOeoFKlSujTpw+6dOkCMz9sMr0ppdTXX3+NTz75hO+rziSVKlXC2rVrkT17dm6npFss1KR7I0eOVKNGjZKOYWpNmzbFrFmz4OPjwxPWC9i/f7+aNGkSfv75Zzx48EA6Dv3D9evX4evry208g8XExCjec6o/Pj4+aNeuHQYOHIgyZcpwP3gBa9euVZ07d0ZUVJR0FFOrWbMmfvvtN3h5eXF7JV1joSZDGD16tPr444/B7TV9OTg44LPPPsOQIUOg8VHW6eb27dtqxowZmDx5Ms6ePSsdh/6wb98+VK5cmdt5Bjt+/Ljia+f0wWazoUGDBujVqxdatGgBZ2dnbv/p5Pz586pVq1Y4evSodBRTatiwIZYsWcIVFGQIfCgZGcKQIUO0CRMm8PUV6ShnzpxYu3YtPvroI41lOn3lzJlT+/DDD7XTp09j48aN6Ny5M7JkySIdy/L4YLLMwSeqyytZsiT++9//4vLly1i7dq3Wrl07jWU6fRUtWlTbtWsXOnToIB3FdDp06IAVK1awTJNhsJ2QYfTr10+bPXs2nJycpKMYXrVq1XDgwAEEBwfzZJWBNE3T6tevr82ZM0e7ceMGZs6ciZdffhkODg7S0SyJRS9z8AnfMrJnz46BAwdiz549OHHihDZkyBAtf/78PMZnIHd3d23evHn4+uuv4ejoKB3HFPr374+5c+dyNQUZCgs1GUqnTp205cuXw8PDQzqKYQ0YMABbt24Fv2hlLk9PT61bt27aunXrtCtXrmDMmDEoV66cdCxL4Qx15uCFi8zj7OyMli1bYsmSJYiIiMD333+vValShcf2TKRpmvbhhx9qGzZsQJ48eaTjGNrw4cMxYcIEjQ+PJKNhoSbDady4sbZ582bkzp1bOoqheHh4YPbs2fjhhx+49E9Y3rx5tffff187dOiQduTIEfznP/9B/vz5pWOZHote5uDnnLFsNhvq1q2LiRMnIiIiAkuXLtVatWrF47qwunXragcPHkT9+vWloxiOzWbD+PHjMWrUKG7DZEh8KBkZ1vnz51Xjxo350KdUqFChAubPn49ixYrxZKVTdrtdbdmyBXPmzMGSJUsQExMjHcl0atWqhe3bt3MfyGBNmjRRv/32m3QM06lcuTI6deqEDh06IF++fNyOdSolJUWNHDkSX375Jex2u3Qc3XN1dcWsWbPQrl07btNkWCzUZGhRUVGqefPmCA0NlY6iW127dkVISAjc3Nx4sjKIhIQEtW7dOixatAhLly4F3+ebPgoXLoyLFy9yP8hgZcuWVXzycfooXLgwOnTogB49eqB48eLcdg1k06ZNqnPnzrh586Z0FN3y8fHBsmXLUKdOHW7bZGgs1GR48fHxqmPHjli5cqV0FF3Jnj07pk2bhubNm/NEZWD37t1Ty5cvx7x587B+/XokJSVJRzIsJycnPHz4ELw/L2PlyJFDRUZGSscwLH9/f7Rt2xbt27dHhQoVuK0aWHh4uOrYsSN27twpHUV3ihQpgt9++40XisgUWKjJFJKTk9Wbb76JyZMnS0fRhdq1a2POnDkoUKAAT1QmEhkZqRYtWoR58+Zhx44dXE74HCIiIpAnTx7uFxnkwYMHiq+IS7vixYujbdu2aNu2LcqXL8/t00SSkpLUkCFD8N1334HfuX8XFBSEFStWIHfu3NzWyRRYqMlU/ve//6khQ4ZYtmg4ODjg448/xvDhw+Ho6MgTlYldvXpVLViwAPPmzcP+/ful4xjG3r17ERQUxH0jg5w9e1YVK1ZMOoYhlCpV6lGJLlOmDLdJk1uxYoXq1asXbt26JR1FVIcOHTBt2jRkyZKF2zyZBgs1mc7y5ctVly5dEB8fLx0lU+XNmxezZ89GvXr1eJKymDNnzqh58+Zh3rx5OH36tHQcXVu8eDFat27NfSSDbNmyRdWrV086hm6VK1cOrVq1Qtu2bVG6dGluhxZz69Yt1bt3b/z666/SUTKdzWbD559/jiFDhkDTNG77ZCp8bRaZTosWLbQdO3ZY6jVETZo0waFDh1imLapYsWLaiBEjtFOnTmn79+/H+++/z/ehPgFf6ZSx+Pn+nYODA2rXro1vvvkGFy5cwKFDh7QRI0ZoLNPWlCtXLm358uXa5MmT4eHhIR0n03h5eWHZsmX46KOPNJZpMiMWajKl8uXLa3v27EFQUJB0lAzl6emJSZMmYcWKFciZMydPUoSKFStqY8aM0a5cuYKVK1eiTZs2cHFxkY6lG+Hh4dIRTO3atWvSEcS5uLigSZMmmDx5MiIiIrBt2zbtvffe0/z8/HiMJgBAr169tMOHD6NGjRrSUTJc6dKlsXv3bjRr1ozbP5kWCzWZVt68ebUtW7agU6dO0lEyRJ06dXD48GH07t2bV3zpXxwdHbUmTZpov/zyi3bt2jWMHz8eZcqUkY4ljjOoGcuqn2/WrFnRsWNHLFiwALdv38bKlSu1Xr16ably5eKxmR6rSJEi2rZt2/DFF1/AyclJOk6G6NGjB/bu3YuSJUtyPyBTY6EmU8uSJYs2d+5c7ccffzTNLJ2rqyvGjBmDzZs3gzMelBrZs2fX3nrrLe3IkSPa+vXrUadOHelIYjiDmrGs+vl+8803mDdvnta+fXvN09OTx2VKFQcHB+3jjz/WwsLCUK1aNek46cbDwwOzZs3CtGnTND58jKyAhZos4c0339S2b9+OQoUKSUd5IRUrVkRYWBjef/99je/SpefRoEEDbfbs2bDqogarFr7MYtXP19/fXzoCGVjZsmW10NBQTJgwAd7e3tJxXshLL72EgwcPomvXrtY8yZAlsVCTZQQFBWkHDhxA06ZNpaOkmaOjI4YPH47du3fzybD0wgoUKKAFBARIxxAREREBxddbZBgWaqLnY7PZtP79+2unT59Gnz594ODgIB0pTby8vDBx4kRs2rQJ/v7+/J5ClsJCTZaSLVs2bcWKFdq0adPg4+MjHSdVqlSpgn379mHUqFGak5MTT1KULqpXry4dQcTDhw8RGRkpHcOUkpOT1Y0bN6RjZLosWbIgb9680jHIJHLlyqWFhIRoBw8eRKNGjaTjPJPNZkPXrl1x4sQJ9O3bl890IUtioSZL6tGjh3bu3Dn85z//0W2xzpYtG3788Ufs2rUL5cuX5wmK0lW5cuWkI4ix6ixqRrt58yZSUlKkY2S6IkWK8L26lO7KlCmjrV69Wtu5c6dui/XLL7+M/fv3Y9asWVq+fPm4D5BlsVCTZWXLlk376quvtKtXr2Lq1KmoX7++LpZY5cqVC5988gnOnz+PN998k/dKU4YoXbq0dAQxLNQZw6qfK5d7U0aqXr26tnr1au3QoUPo3bs3smTJIprHyckJHTt2xK5du7Bu3TqNF/yJAEfpAETSsmTJor3xxht44403cPPmTbV+/Xps3boVW7Zswblz5zIlQ758+dC6dWu0bt0atWvXhoODA09QlKFYqCm9WfVzZaGmzFCuXDlt0qRJ+Prrr9XSpUuxYMECbNy4EcnJyRn+79Y0DUFBQWjTpg1ee+015M2bl99RiP6ChZroL3Lnzq299tpreO211wAAV69eVTt27MCJEydw5swZnD59GmfOnMH9+/df5N+BMmXKoFKlSqhQoQIqVqwIf39/LhmkTJUvXz7N29tbxcTESEfJdFYtfhnNqu+gZqGmzOTt7a316NEDPXr0wN27d9XWrVuxceNG7N+/H0eOHMG9e/de+N/h6uqKUqVKoWrVqqhatSrq16+PAgUK8DsK0ROwUBM9Rf78+bWOHTv+7a8ppVRERASioqIQFRWF6OjoR39OSUmBu7s7nJ2dAfz+sI5cuXIhd+7cyJcvH3LlygVnZ2eelEgXSpcujdDQUOkYmY6FOmNY9XMtWrSodASyqKxZs2rNmzdH8+bNAfz+/SQ8PBxXrlzBpUuXEB8fj5iYGCQkJOD+/fuIi4tDUlISXF1d4ebmBpvNBm9vb/j4+MDb2xt58+aFn58fZ6CJ0oiFmiiNNE3T8uXLh3z58klHIXohpUqVYqGmdMMZaiJZmqZpBQsWRMGCBVGrVi3pOESWwYeSERFZVGBgoHQEEREREdIRTMmKn6uTkxMKFCggHYOIiASxUBMRWVTJkiWlI4jgDHXGsOLnWqBAAT5EkojI4lioiYgsKiAgQDqCiMjISDx8+FBJ5zAbKxbqwoULS0cgIiJhLNRERBZVsGBBuLi4SMfIdEopSy5PzkgxMTEqPj5eOkamK1SokHQEIiISxkJNRGRRNptN8/Pzk44hwoqzqRnJqg8kY6EmIiIWaiIiC7Pqsm8W6vRl1c+TS76JiIiFmojIwlioKT1Y9fNkoSYiIhZqIiILs+o7dK1aADOKVT9PLvkmIiIWaiIiC+MMNaUHK36ejo6OyJ8/v3QMIiISxkJNRGRhnKGm9GDFzzNfvnxwdHTkO6iJiCyOhZqIyMIKFiwIV1dX6RiZzooFMCNZ8fPk/dNERASwUBMRWZpVX50VEREBpZSSzmEWVnxtFgs1EREBLNRERJZnxWXfiYmJuH37tnQMU0hMTFSRkZHSMTIdH0hGREQACzURkeVZcYYa+H2Wml5cREQE7Ha7dIxMx0JNREQACzURkeVZtVBb8b7fjGDVz5FLvomICGChJiKyPBZqehFW/RxZqImICGChJiKyPBZqehFW/BxtNhvfQU1ERABYqImILK9IkSLSEURYsQhmBCt+jvny5YOzszPfQU1ERCzURERW5+HhoeXIkUM6RqazYhHMCFZ8ZRYfSEZERH9ioSYiIkvOUrNQpw8rfo68f5qIiP7EQk1ERJa8j9qKRTAjWPFzZKEmIqI/sVATEZElZ6ijoqLw4MEDJZ3DyJRS6vr169IxMh2XfBMR0Z9YqImIyJIz1AAQEREhHcHQIiMj8fDhQ+kYmY6FmoiI/sRCTUREli3UVlyunJ6s+EAygEu+iYjo/7FQExGRZQu1VQtherHiDL+maShQoIB0DCIi0gkWaiIiQsGCBeHg4CAdI9NxhvrFWPHzy507N1xdXfkOaiIiAsBCTUREAJycnLS8efNKx8h0VpxhTU9WnOHn/dNERPRXLNRERATAmveFWnGGNT1Z8fNjoSYior9ioSYiIgDWLApWnGFNTyzURERkdSzUREQEgDPUlHZW/PwKFiwoHYGIiHSEhZqIiABYc+bt+vXrsNvtSjqHUVmxUFtxPyEioidzlA5ARET6YMUZ6qSkJFSuXBk2m42l+jlER0dLR8h0nKEmIqK/0pTidwgiIgLOnj2rihUrJh2DSNeio6Ph7e3N12YREREAFmoiIvpDYmKicnNzg91ul45CpEteXl64e/cuyzQRET3Ce6iJiAgA4OzsrPn6+krHINIt3j9NRET/xEJNRESPWPE+aqLUYqEmIqJ/YqEmIqJHWKiJnowPJCMion9ioSYiokdYqImerEiRItIRiIhIZ1ioiYjoEX9/f+kIRLrF/YOIiP6JhZqIiB7ha7OIniwgIEA6AhER6Qxfm0VERI/cvn1b5cqVSzoGke7YbDbExcXBzc2Nr80iIqJHOENNRESP5MyZU/Px8ZGOQaQ7+fPnZ5kmIqJ/YaEmIqK/4bJWon/j/dNERPQ4LNRERPQ3vI+a6N9YqImI6HFYqImI6G84Q030byzURET0OCzURET0NyzURP/GQk1ERI/DQk1ERH/DJd9E/8ZCTUREj8PXZhER0d/ExcWprFmzwm63S0ch0gVHR0fcu3cPrq6ufMo3ERH9DWeoiYjobzw8PDTOxhH9v5IlS7JMExHRY7FQExHRv1SoUEE6ApFulCtXTjoCERHpFAs1ERH9S/ny5aUjEOkGCzURET0JCzUREf0LZ6iJ/h8vMBER0ZPwoWRERPQvt27dUrlz55aOQaQLN2/eRK5cuXgPNRER/QtnqImI6F9y5cql5c2bVzoGkbi8efOyTBMR0ROxUBMR0WNx2TcR758mIqKnY6EmIqLHCgoKko5AJK5y5crSEYiISMdYqImI6LHq1KkjHYFIHPcDIiJ6Gj6UjIiIHuvBgwfKx8cHCQkJ0lGIRDg6OiIqKgqenp68h5qIiB6LM9RERPRYbm5uWpUqVaRjEImpWLEiyzQRET0VCzURET1Ro0aNpCMQieH2T0REz8JCTURET9S0aVPpCERiGjduLB2BiIh0jvdQExHREymlVOHChXHlyhXpKESZKmfOnLh+/TocHBy45JuIiJ6IM9RERPREmqZp7du3l45BlOnat2/PMk1ERM/EQk1ERE/VuXNn6QhEma5Tp07SEYiIyAC45JuIiJ6pXLly6siRI9IxiDKFv78/zpw5A03TOENNRERPxRlqIiJ6pgEDBkhHIMo0b775Jss0ERGlCmeoiYjome7fv6/y58+P6Oho6ShEGcrd3R1Xr16Ft7c3CzURET0TZ6iJiOiZsmTJor377rvSMYgy3MCBA1mmiYgo1ThDTUREqRIXF6eKFCmC27dvS0chyhAeHh64cOECcubMyUJNRESpwhlqIiJKFQ8PD23o0KHSMYgyzCeffMIyTUREacIZaiIiSrWUlBQVFBSEgwcPSkchSlcBAQE4evQoXFxcWKiJiCjVOENNRESp5uDgoIWEhMDJyUk6Cv1fO/fv2kQDgHH8ufzsnZfmB1jjbQ7FKqJ2CEoROygWFERQoVTRRdzVxck/wT8gpkvIIO3QIEUslIIIRWwHC6UOgo5GAqUxaRIT23sn877wIu+bNulF+/3AQY4Lx5PxC5dDx/j9fmUyGWIaANA2ghoA0JZUKmU8efLE6xlAxzx+/Fjnz58npgEAbeORbwBA27a2ttxLly5pYWHB6ynArpw7d04LCwsKBoMENQCgbQQ1AGBH1tfX3VQqpU+fPnk9BdgRx3G0tLQkx3GIaQDAjvDINwBgRxKJhDEzM6NYLOb1FKBt0WhUs7OzxDQAYFcIagDAjp08edJ49eqVbNv2egrwv5mmqRcvXmh4eJiYBgDsCkENANiVM2fOGPl8XuFw2OspwH8KBoOanp7mJWQAgI4gqAEAu3bhwgXj+fPnCgQCXk8Bfsnn8ymbzerKlSvENACgIwhqAEBHXLt2zchkMvL7/V5PAf7F5/MpnU5rfHycmAYAdAxv+QYAdNTU1JR7+/ZtNZtNr6cAkiS/36/JyUndvXuXmAYAdBRBDQDouJmZGXdiYkL1et3rKdjn+vr6lMvldP36dWIaANBxBDUAoCvevn3rXr16VcVi0esp2Kfi8bjy+TwvIAMAdA3/oQYAdMXZs2eNN2/e6Pjx415PwT507NgxLS4uEtMAgK4iqAEAXXP06FFjeXlZ9+7d83oK9pFbt27p3bt3GhoaIqYBAF1FUAMAuso0TePZs2fG9PS0HMfxeg7+YI7jaGpqSrlczrBtm5gGAHQdQQ0A2BM3btwwPnz4oEePHsmyLK/n4A9iWZYePnyotbU13bx5k5AGAOwZXkoGANhzxWLRffr0qdLptNbX172eg99UIpHQ/fv39eDBAw0MDBDSAIA9R1ADADzTaDTcly9fKpvNam5uTtVq1etJ6HGWZWlsbEx37tzR5cuXFQqFCGkAgGcIagBAT/j+/bu7uLio+fl5vX79WisrK6pUKl7Pgsds29apU6c0OjqqixcvamRkROFwmIgGAPQEghoA0JO2t7fdjx8/6v3791pdXdXnz59bx5cvX7yehw47fPiwjhw50jpOnDih06dPa3BwUD6fj4AGAPQkghoA8Nup1WpuoVBQoVBQsVhUoVDQ169fVSqVVC6X9e3bN1WrVVWrVW1sbLQ+l0olVSoVNZtNr3/CHycYDMq2bUWjUVmWJdM0FY/HZVmWLMtSf3+/IpGIotGoDh06pGQyqYMHDyqZTCqZTMo0TaIZAPDbIagBAPvOjx8/3J/hvbW1pVqtpnq93rreaDS0ubn5z++rXC63zl3X1cbGxi/v//O+vcLv96u/v/+X12OxmAzj756NRCIKBAKt8wMHDigUCrXO+/r6ZJpm6762bSsYDBLEAIB95y/lNx+2tWra5gAAACV0RVh0ZGF0ZTpjcmVhdGUAMjAxNy0wNi0xMlQwMzozNTowNSswODowMNf3Qn8AAAAldEVYdGRhdGU6bW9kaWZ5ADIwMTYtMDQtMjRUMTg6NDM6MzQrMDg6MDCzJp3UAAAAVHRFWHRzdmc6YmFzZS11cmkAZmlsZTovLy9ob21lL2RiL3N2Z19pbmZvL3N2Zy9iZS8zMi9iZTMyYWY0M2IzZTBiMDVmNzAyZTI3MmQxOTY4YTNlZC5zdmcNO+xeAAAAAElFTkSuQmCC;" vertex="1" parent="1">
          <mxGeometry x="1070" y="61.390000000000015" width="107" height="107.22" as="geometry" />
        </mxCell>
      </root>
    </mxGraphModel>
  </diagram>
</mxfile>
